<svg width="110" height="106" viewBox="0 0 110 106" fill="none" xmlns="http://www.w3.org/2000/svg">
<path id="Vector" d="M62.7593 3.82392C62.7593 1.87106 64.7371 0.276855 67.2002 0.276855C69.6676 0.276855 71.6433 1.8607 71.6433 3.82392V19.3389C71.6433 21.2939 69.6676 22.8881 67.2002 22.8881C64.7371 22.8881 62.7593 21.3021 62.7593 19.3389V3.82392ZM72.976 72.3956L77.7788 76.8258L87.2971 67.4139C88.187 66.5329 88.7405 65.8322 89.8369 66.9267L93.3943 70.4676C94.5567 71.5912 94.4971 72.2463 93.3964 73.2994L79.8034 86.306C77.4871 88.5201 77.8874 88.659 75.5349 86.3806L66.9895 78.109C66.5041 77.5907 66.5552 77.0725 67.0853 76.55L71.2111 72.3893C71.8349 71.7591 72.3309 71.7985 72.976 72.3956ZM80.5527 49.6392C88.4254 49.6392 95.5743 52.7572 100.741 57.7948C105.917 62.822 109.118 69.7772 109.118 77.4601C109.118 85.1285 105.917 92.0879 100.752 97.1193C95.5743 102.159 88.4276 105.277 80.5527 105.277C72.6694 105.277 65.5312 102.159 60.3622 97.1296C55.1847 92.0982 51.9871 85.1347 51.9871 77.4601C51.9871 69.7772 55.189 62.822 60.3558 57.7886L60.5027 57.658C65.6632 52.7033 72.7503 49.6392 80.5527 49.6392ZM97.3158 61.1262C93.0388 56.9572 87.1055 54.37 80.5527 54.37C74.0596 54.37 68.1753 56.9116 63.9068 61.0101L63.7897 61.1325C59.5 65.3097 56.8452 71.0854 56.8452 77.4601C56.8452 83.8349 59.4979 89.6084 63.7876 93.7857C68.0667 97.9588 74.0021 100.544 80.5527 100.544C87.1013 100.544 93.0388 97.9589 97.3221 93.7878C101.603 89.6188 104.258 83.837 104.258 77.4601C104.258 71.0854 101.603 65.3097 97.3158 61.1262ZM12.2127 50.5037C11.9615 50.5037 11.7358 49.4257 11.7358 48.1051C11.7358 46.7825 11.936 45.7149 12.2127 45.7149H24.3347C24.5881 45.7149 24.8137 46.7929 24.8137 48.1051C24.8137 49.4299 24.6136 50.5037 24.3347 50.5037H12.2127ZM31.5389 50.5037C31.2856 50.5037 31.0621 49.4257 31.0621 48.1051C31.0621 46.7825 31.26 45.7149 31.5389 45.7149H43.6609C43.9121 45.7149 44.1378 46.7929 44.1378 48.1051C44.1378 49.4299 43.9377 50.5037 43.6609 50.5037H31.5389ZM50.863 50.5037C50.6118 50.5037 50.3861 49.4257 50.3861 48.1051C50.3861 46.7825 50.5841 45.7149 50.863 45.7149H62.985C63.2362 45.7149 63.4619 46.7825 63.4619 48.0969C62.2488 48.8331 61.0802 49.6367 59.962 50.5037H50.863ZM12.2404 64.2359C11.9892 64.2359 11.7635 63.1579 11.7635 61.8373C11.7635 60.5126 11.9615 59.4346 12.2404 59.4346H24.3624C24.6136 59.4346 24.8393 60.5126 24.8393 61.8373C24.8393 63.1579 24.6413 64.2359 24.3624 64.2359H12.2404ZM31.5645 64.2359C31.3133 64.2359 31.0876 63.1579 31.0876 61.8373C31.0876 60.5126 31.2856 59.4346 31.5645 59.4346H43.6865C43.9377 59.4346 44.1633 60.5126 44.1633 61.8373C44.1633 63.1579 43.9654 64.2359 43.6865 64.2359H31.5645ZM12.2659 77.9763C12.0147 77.9763 11.7891 76.8983 11.7891 75.5736C11.7891 74.253 11.9892 73.175 12.2659 73.175H24.3879C24.6413 73.175 24.8669 74.253 24.8669 75.5736C24.8669 76.8983 24.6668 77.9763 24.3879 77.9763H12.2659ZM31.5922 77.9763C31.3388 77.9763 31.1132 76.8983 31.1132 75.5736C31.1132 74.253 31.3133 73.175 31.5922 73.175H43.7142C43.9654 73.175 44.191 74.253 44.191 75.5736C44.191 76.8983 43.9909 77.9763 43.7142 77.9763H31.5922ZM22.8615 3.82392C22.8615 1.87106 24.8393 0.276855 27.3024 0.276855C29.7677 0.276855 31.7433 1.8607 31.7433 3.82392V19.3389C31.7433 21.2939 29.7592 22.8881 27.3024 22.8881C24.8393 22.8881 22.8615 21.3021 22.8615 19.3389V3.82392ZM5.01063 34.2009H89.6112V16.335C89.6112 15.7255 89.36 15.1886 88.9555 14.7947C88.551 14.4008 87.9741 14.1562 87.3716 14.1562H79.2605C77.9044 14.1562 76.7974 13.0782 76.7974 11.7576C76.7974 10.435 77.9044 9.357 79.2605 9.357H87.3716C89.36 9.357 91.1398 10.1386 92.4427 11.4052C93.7477 12.6781 94.546 14.4112 94.546 16.3454V44.7074C92.9302 44.1642 91.2654 43.7268 89.558 43.4034V38.9711H89.6112H5.01063V85.2342C5.01063 85.8458 5.26397 86.3806 5.66634 86.7745C6.07083 87.1684 6.64776 87.413 7.24812 87.413H47.4546C47.9124 89.0757 48.4893 90.6968 49.1833 92.2558H7.29495C5.31507 92.2558 3.52679 91.4784 2.2239 90.2055C0.921006 88.9471 0.118408 87.214 0.118408 85.2777V16.3537C0.118408 14.4278 0.921006 12.6843 2.2239 11.4156C3.52679 10.1448 5.30655 9.36529 7.29495 9.36529H15.9553C17.3115 9.36529 18.4185 10.4433 18.4185 11.7639C18.4185 13.0886 17.3115 14.1666 15.9553 14.1666H7.29495C6.66479 14.1666 6.11767 14.4112 5.71317 14.8051C5.30655 15.199 5.05321 15.7566 5.05321 16.3454V34.2071H5.01063V34.2009ZM38.8496 14.1562C37.4914 14.1562 36.3843 13.0782 36.3843 11.7576C36.3843 10.435 37.4914 9.357 38.8496 9.357H55.3571C56.7175 9.357 57.8245 10.435 57.8245 11.7576C57.8245 13.0782 56.7175 14.1562 55.3571 14.1562H38.8496Z" fill="#A161BC"/>
</svg>
