<svg width="140" height="128" viewBox="0 0 140 128" fill="none" xmlns="http://www.w3.org/2000/svg">
<g id="autocuidado 1" clip-path="url(#clip0_240_298)">
<g id="Clip path group">
<mask id="mask0_240_298" style="mask-type:luminance" maskUnits="userSpaceOnUse" x="14" y="0" width="63" height="62">
<g id="3d5208e6d7">
<path id="Vector" d="M14.5715 0.00262451L76.6516 0.119064L76.5374 61.0205L14.4573 60.9041L14.5715 0.00262451Z" fill="white"/>
</g>
</mask>
<g mask="url(#mask0_240_298)">
<g id="Group">
<path id="Vector_2" d="M45.5295 3.79815C60.3163 3.82589 72.3266 15.7375 72.2992 30.3504C72.2718 44.9662 60.2168 56.8327 45.4301 56.805C30.6405 56.7773 18.633 44.8656 18.6604 30.2498C18.6878 15.6369 30.7399 3.77041 45.5295 3.79815ZM23.7994 51.645C26.6061 54.4256 29.8729 56.6131 33.5162 58.1417C37.2864 59.7277 41.2919 60.5347 45.4231 60.5425C49.5543 60.5502 53.5628 59.7583 57.3389 58.1864C60.9851 56.6714 64.2629 54.4962 67.0771 51.7262C69.8913 48.9534 72.1058 45.7254 73.6542 42.125C75.2547 38.3991 76.0734 34.4405 76.081 30.3575C76.0887 26.2775 75.2849 22.3158 73.6983 18.581C72.1635 14.9777 69.961 11.7415 67.1573 8.95812C64.3535 6.17759 61.0839 3.99007 57.4435 2.45856C53.6732 0.875414 49.6677 0.0684409 45.5365 0.0606924C41.4054 0.0529439 37.3968 0.844885 33.6207 2.41388C29.9717 3.93172 26.6967 6.10696 23.8797 8.87694C21.0655 11.6498 18.8538 14.8777 17.3055 18.4753C15.702 22.204 14.8862 26.1627 14.8786 30.2427C14.8709 34.3257 15.6718 38.2874 17.2613 42.0193C18.7961 45.6254 20.9957 48.8616 23.7994 51.645Z" fill="#A161BC"/>
</g>
</g>
</g>
<g id="Clip path group_2">
<mask id="mask1_240_298" style="mask-type:luminance" maskUnits="userSpaceOnUse" x="0" y="55" width="91" height="73">
<g id="70406c1a68">
<path id="Vector_3" d="M0.430725 55.8555L90.4503 56.0243L90.3166 127.327L0.296987 127.158L0.430725 55.8555Z" fill="white"/>
</g>
</mask>
<g mask="url(#mask1_240_298)">
<g id="Group_2">
<path id="Vector_4" d="M51.7246 77.8598C55.4695 74.4748 61.3035 74.737 64.7291 78.4381C68.1518 82.142 67.887 87.9062 64.1421 91.2911L61.2821 93.8697L47.6877 81.5012L51.7246 77.8598ZM76.6749 57.0578C75.7404 56.5964 74.6051 56.9711 74.1386 57.8953C73.6721 58.8195 74.051 59.9423 74.9855 60.4038C82.1673 63.9406 86.62 71.0641 86.6052 78.9873C86.6009 81.2601 86.2355 83.6692 85.6025 85.5981C85.5938 85.6324 85.5822 85.6695 85.5735 85.7037L74.6218 117.365C73.6203 120.292 71.2113 122.495 68.1815 123.263C67.7454 123.37 67.2949 123.452 66.8473 123.497C64.2255 123.764 61.6087 122.905 59.6691 121.14L26.5846 92.1115C22.8495 88.7125 22.6063 82.9474 26.0458 79.2563C29.4823 75.5681 35.3173 75.3278 39.0523 78.7268L59.3848 97.2239C59.503 97.3298 59.627 97.4185 59.7596 97.4901C59.8028 97.5473 59.846 97.6017 59.895 97.656C60.2696 98.0564 60.7773 98.263 61.2883 98.2639C61.7444 98.2648 62.2037 98.1029 62.5681 97.7752L66.6918 94.0483C71.9781 89.2758 72.3513 81.142 67.5197 75.9164C62.691 70.6938 54.4583 70.3243 49.172 75.0997L44.895 78.9605L41.6124 75.9763C36.3441 71.184 28.1129 71.5197 23.2618 76.7242C18.4106 81.9316 18.7533 90.0668 24.0216 94.8591L42.1593 110.685L31.1407 121.086C29.1916 122.844 26.5744 123.693 23.9536 123.417C23.5034 123.37 23.0561 123.287 22.6174 123.177C19.5905 122.398 17.1928 120.186 16.1994 117.255L5.14605 84.5764C4.5232 82.6479 4.16974 80.2403 4.174 77.9704C4.18886 70.0444 8.66536 62.9405 15.8604 59.4278C16.7966 58.9698 17.1827 57.8485 16.7196 56.9254C16.2565 55.9994 15.1227 55.6204 14.1865 56.0755C10.1151 58.0636 6.67681 61.118 4.23602 64.9108C1.72864 68.8092 0.397967 73.3208 0.389259 77.9633C0.384225 80.6472 0.794772 83.4033 1.5468 85.7203C1.54679 85.7231 1.54968 85.726 1.54967 85.7288C1.55255 85.7346 1.55254 85.7374 1.55542 85.7431L12.6145 118.439C14.0127 122.576 17.3961 125.697 21.6666 126.793C22.2841 126.951 22.9162 127.067 23.5512 127.134C24.0014 127.18 24.4546 127.204 24.905 127.205C28.1383 127.211 31.2815 126.023 33.6904 123.846L45.3238 113.549L57.1061 123.89C59.5097 126.076 62.6455 127.275 65.8789 127.281C66.3292 127.282 66.7825 127.26 67.2359 127.216C67.8682 127.151 68.5035 127.038 69.1188 126.882C73.3934 125.802 76.7914 122.694 78.2051 118.562L89.1916 86.7983C89.209 86.7441 89.2265 86.687 89.2381 86.6328C89.9728 84.3415 90.3821 81.6355 90.387 78.9944C90.3957 74.3547 89.082 69.8382 86.5892 65.9276C84.1656 62.1284 80.7359 59.0584 76.6749 57.0578Z" fill="#A161BC"/>
</g>
</g>
</g>
<path id="Vector_5" d="M115.043 62.5689C111.769 65.8234 108.487 68.4584 106.666 69.8511C104.85 68.4601 101.581 65.8272 98.3221 62.569C92.3775 56.6304 89.2406 51.4109 89.2508 47.4764C89.2635 42.28 93.1191 38.3698 98.2174 38.3794C99.2566 38.3814 100.399 38.6776 101.614 39.2595C102.196 39.5375 102.779 39.8755 103.347 40.2649C103.575 40.4195 103.797 40.5855 104.018 40.7544L103.33 41.4783C102.983 41.8432 102.803 42.3196 102.817 42.8222C102.833 43.3219 103.046 43.7877 103.415 44.131C103.766 44.4571 104.228 44.6379 104.71 44.6388C105.232 44.6398 105.738 44.4237 106.1 44.0447L108.078 41.9469C109.709 40.3111 112.562 38.4063 115.241 38.4113C120.334 38.4209 124.169 42.3483 124.165 47.5448C124.164 51.4393 121.007 56.6356 115.043 62.5689ZM124.364 38.4342C122.004 36.0085 118.765 34.6691 115.248 34.6625C111.498 34.6554 108.22 36.8935 106.729 38.0984C106.334 37.7751 105.924 37.4659 105.509 37.1825C104.78 36.6814 104.027 36.246 103.268 35.8849C101.535 35.0536 99.8382 34.6336 98.2244 34.6305C94.7052 34.6239 91.4607 35.9512 89.0918 38.368C86.7547 40.7506 85.464 43.9831 85.4574 47.4693C85.4492 50.3102 86.5605 53.493 88.7568 56.9263C90.4292 59.5419 92.7508 62.3387 95.6525 65.2336C100.537 70.1109 105.348 73.5747 105.55 73.7207C105.876 73.9554 106.26 74.0789 106.661 74.0797C107.065 74.0805 107.452 73.9555 107.779 73.722C107.981 73.5768 112.806 70.1082 117.706 65.2407C124.505 58.4837 127.958 52.5314 127.961 47.5462C127.962 44.06 126.686 40.8255 124.364 38.4342Z" fill="#A161BC"/>
<path id="Vector_6" d="M115.452 41.4583C114.399 41.4563 113.542 42.3027 113.541 43.342C113.539 44.3813 114.392 45.228 115.445 45.23C116.06 45.2312 116.562 45.7289 116.56 46.3371C116.558 47.3764 117.411 48.226 118.465 48.2279C119.516 48.2299 120.375 47.3835 120.377 46.3442C120.382 43.6546 118.172 41.4634 115.452 41.4583Z" fill="#A161BC"/>
<path id="Vector_7" d="M107.119 28.4742C108.15 28.4762 108.991 27.6469 108.993 26.6276L109 23.0386C109.002 22.0193 108.163 21.1868 107.133 21.1849C106.099 21.183 105.26 22.0123 105.258 23.0316L105.252 26.6206C105.25 27.6399 106.085 28.4723 107.119 28.4742Z" fill="#A161BC"/>
<path id="Vector_8" d="M107.028 76.8928C105.995 76.8909 105.156 77.7173 105.154 78.7366L105.147 82.3284C105.145 83.3478 105.981 84.1773 107.014 84.1793C108.045 84.1812 108.887 83.3548 108.889 82.3355L108.895 78.7436C108.897 77.7243 108.059 76.8947 107.028 76.8928Z" fill="#A161BC"/>
<g id="Clip path group_3">
<mask id="mask2_240_298" style="mask-type:luminance" maskUnits="userSpaceOnUse" x="130" y="52" width="9" height="5">
<g id="7fb016bf56">
<path id="Vector_9" d="M130.738 52.3624L138.634 52.3772L138.627 56.1147L130.731 56.0999L130.738 52.3624Z" fill="white"/>
</g>
</mask>
<g mask="url(#mask2_240_298)">
<g id="Group_3">
<path id="Vector_10" d="M137.127 52.4058L132.638 52.3974C131.607 52.3955 130.766 53.2219 130.764 54.2412C130.762 55.2605 131.6 56.093 132.631 56.0949L137.12 56.1033C138.151 56.1053 138.992 55.276 138.994 54.2567C138.996 53.2374 138.158 52.4078 137.127 52.4058Z" fill="#A161BC"/>
</g>
</g>
</g>
<path id="Vector_11" d="M127.868 35.8054C128.368 35.8063 128.838 35.6159 129.191 35.2683L131.89 32.6123C132.619 31.8913 132.621 30.7206 131.895 29.9969C131.54 29.6479 131.073 29.4529 130.573 29.4519C130.071 29.451 129.603 29.6443 129.247 29.9919L126.549 32.6479C125.82 33.3661 125.818 34.5396 126.544 35.2633C126.898 35.6123 127.366 35.8045 127.868 35.8054Z" fill="#A161BC"/>
<path id="Vector_12" d="M127.241 69.9754C126.889 69.6264 126.419 69.4343 125.92 69.4333C125.42 69.4324 124.949 69.6228 124.596 69.9705C123.865 70.6915 123.863 71.865 124.592 72.5858L127.45 75.4207C127.802 75.7726 128.272 75.9647 128.771 75.9657C129.271 75.9666 129.742 75.7762 130.094 75.4257C130.826 74.7075 130.828 73.534 130.099 72.8132L127.241 69.9754Z" fill="#A161BC"/>
<path id="Vector_13" d="M85.4165 33.907C85.7681 34.2645 86.2412 34.4624 86.7464 34.4634C87.2429 34.4643 87.7081 34.2767 88.0609 33.9348C88.7984 33.2195 88.8093 32.046 88.086 31.3195L85.4408 28.6534C85.0922 28.3016 84.6249 28.1037 84.1254 28.0999C84.1197 28.0999 84.1139 28.0999 84.1081 28.0999C83.6144 28.099 83.1493 28.2865 82.7965 28.6285C82.059 29.3409 82.0481 30.5144 82.7713 31.241L85.4165 33.907Z" fill="#A161BC"/>
</g>
<defs>
<clipPath id="clip0_240_298">
<rect width="138.572" height="127.182" fill="white" transform="translate(0.529602 0.02771) rotate(0.107465)"/>
</clipPath>
</defs>
</svg>
