<svg width="106" height="107" viewBox="0 0 106 107" fill="none" xmlns="http://www.w3.org/2000/svg">
<g id="clock 1">
<g id="Clip path group">
<mask id="mask0_497_385" style="mask-type:luminance" maskUnits="userSpaceOnUse" x="1" y="2" width="104" height="104">
<g id="f28824ed49">
<path id="Vector" d="M1.74304 2.05176H104.937V105.724H1.74304V2.05176Z" fill="white"/>
</g>
</mask>
<g mask="url(#mask0_497_385)">
<g id="Group">
<path id="Vector_2" d="M39.4765 24.986L53.0865 48.671L53.3414 48.6622C56.1831 48.6622 58.4932 50.9537 58.5398 53.7999L70.5025 60.7344C71.9066 61.5495 72.3887 63.3669 71.5804 64.7761C70.7705 66.1838 68.9644 66.671 67.5632 65.8574L55.2815 58.7341C54.6829 58.9755 54.026 59.1102 53.3414 59.1102C50.4691 59.1102 48.1386 56.7733 48.1386 53.8877C48.1386 52.8443 48.4445 51.8742 48.9688 51.0576L35.3588 27.3741C34.7034 26.2372 35.0966 24.7724 36.2284 24.1154H36.2298C37.3616 23.4569 38.8225 23.8476 39.4765 24.986ZM55.1665 94.3142C55.1665 95.3283 54.3479 96.1536 53.3414 96.1536C52.3335 96.1536 51.5149 95.3283 51.5149 94.3142V86.6685C51.5149 85.6559 52.3335 84.8335 53.3414 84.8335C54.3479 84.8335 55.1665 85.6559 55.1665 86.6685V94.3142ZM51.5149 13.4611C51.5149 12.447 52.3335 11.6247 53.3414 11.6247C54.3479 11.6247 55.1665 12.447 55.1665 13.4611V21.1054C55.1665 22.1224 54.3479 22.9447 53.3414 22.9447C52.3335 22.9447 51.5149 22.1224 51.5149 21.1054V13.4611ZM13.0998 55.7212C12.0875 55.7212 11.2718 54.8988 11.2718 53.8877C11.2718 52.878 12.0875 52.0541 13.0998 52.0541H20.7117C21.7197 52.0541 22.5382 52.878 22.5382 53.8877C22.5382 54.8988 21.7197 55.7212 20.7117 55.7212H13.0998ZM93.583 52.0541C94.5924 52.0541 95.411 52.878 95.411 53.8877C95.411 54.8988 94.5924 55.7212 93.583 55.7212H85.9711C84.9632 55.7212 84.1446 54.8988 84.1446 53.8877C84.1446 52.878 84.9632 52.0541 85.9711 52.0541H93.583ZM53.3414 2.05176C67.585 2.05176 80.4872 7.8552 89.8237 17.2379C99.1602 26.6147 104.937 39.5781 104.937 53.8877C104.937 68.2016 99.1602 81.1606 89.8237 90.5389C80.4872 99.9201 67.585 105.722 53.3414 105.722C39.0934 105.722 26.1942 99.9201 16.8577 90.5389C7.51973 81.1606 1.74304 68.2016 1.74304 53.8877C1.74304 39.5781 7.51973 26.6162 16.8577 17.2379C26.1927 7.8552 39.0934 2.05176 53.3414 2.05176ZM84.6587 22.4282C76.6448 14.3757 65.5706 9.39459 53.3414 9.39459C41.1107 9.39459 30.038 14.3757 22.0226 22.4282C14.0101 30.4763 9.05202 41.6003 9.05202 53.8877C9.05202 78.4608 28.8801 98.3793 53.3414 98.3793C65.5706 98.3793 76.6448 93.3996 84.6587 85.3486C92.6712 77.2975 97.6308 66.1735 97.6308 53.8877C97.6308 41.6003 92.6712 30.4763 84.6587 22.4282Z" fill="#A161BC"/>
</g>
</g>
</g>
</g>
</svg>
