<svg width="128" height="128" viewBox="0 0 128 128" fill="none" xmlns="http://www.w3.org/2000/svg">
<g id="relacionamento 1" clip-path="url(#clip0_574_606)">
<g id="Clip path group">
<mask id="mask0_574_606" style="mask-type:luminance" maskUnits="userSpaceOnUse" x="-20" y="-15" width="168" height="168">
<g id="12c760a761">
<path id="Vector" d="M-19.425 -14.6409L147.827 -14.3272L147.514 152.586L-19.7381 152.273L-19.425 -14.6409Z" fill="white"/>
</g>
</mask>
<g mask="url(#mask0_574_606)">
<circle id="circle" cx="63.9623" cy="64.0585" r="58.9267" transform="rotate(0.107465 63.9623 64.0585)" stroke="#A161BC" stroke-width="2.71552"/>
</g>
</g>
<path id="Vector_2" d="M62.2548 32.3873C57.2472 32.378 49.2438 38.4496 49.2438 38.4496C49.2438 38.4496 41.2705 32.348 36.2581 32.3386C25.934 32.3192 17.5494 42.0314 17.5269 54.0183C17.5044 66.0195 21.9588 68.809 29.8705 76.4719C33.3033 79.7826 48.4949 91.9701 49.1334 93.4933L49.1334 93.5291C49.7141 92.0465 65.04 79.8505 68.4816 76.5455C76.4232 68.9123 80.8917 66.1384 80.9142 54.1384C80.9366 42.1515 72.5825 32.4067 62.256 32.3873" fill="#A161BC"/>
<path id="Vector_3" d="M49.2489 35.782C46.6091 33.9313 40.7206 30.1858 36.2622 30.1775C24.7631 30.1559 15.3882 40.8494 15.3635 54.013C15.3416 65.669 19.5724 69.6766 25.9771 75.743L28.3635 78.022C29.7682 79.3758 32.9759 82.0841 36.3724 84.9528C40.4045 88.3567 46.4974 93.5003 47.26 94.5601L47.1372 94.3269L49.0819 98.0148L51.1469 94.3154L51.0076 94.5899C51.773 93.5328 57.8696 88.4229 61.9036 85.0413C65.3336 82.1675 68.5719 79.4534 69.9804 78.1001L72.3802 75.8276C78.8088 69.7865 83.0557 65.7948 83.0776 54.1412C83.1023 40.9764 73.7628 30.249 62.2589 30.2274C57.8053 30.2191 51.898 33.9412 49.2489 35.7832L49.2489 35.782ZM50.5509 40.1687C53.4268 37.9927 59.1445 34.5402 62.2508 34.546C71.3687 34.5631 78.7722 43.3504 78.752 54.1319C78.7336 63.9255 75.8124 66.67 69.415 72.6826L66.9804 74.9884C65.6786 76.2391 62.4943 78.908 59.123 81.7329C53.7743 86.2147 50.814 88.7442 49.1526 90.3144C47.4983 88.7367 44.532 86.183 39.1666 81.6537C35.8263 78.834 32.6711 76.1701 31.3728 74.9192L28.954 72.6103C22.5804 66.5726 19.6719 63.8171 19.6903 54.0211C19.7105 43.2396 27.1409 34.4802 36.2541 34.4973C39.3639 34.5031 45.0639 37.9758 47.928 40.1638L49.2364 41.1638L50.5509 40.1687Z" fill="#FCFCFC"/>
<path id="Vector_4" d="M92.0579 45.3178C87.0418 45.3084 79.0445 51.3729 79.0445 51.3729C79.0445 51.3729 71.0748 45.2784 66.0623 45.269C55.7287 45.2496 47.3428 54.9546 47.3203 66.9487C47.2978 78.944 51.7606 81.7394 59.6664 89.3951C63.1003 92.7143 78.2991 104.902 78.9305 106.42L78.9304 106.454C79.5135 104.97 94.8335 92.781 98.2763 89.4675C106.215 81.8427 110.684 79.0629 110.706 67.0676C110.729 55.0735 102.378 45.3371 92.0579 45.3178Z" fill="#A161BC"/>
<path id="Vector_5" d="M79.0507 48.7065C76.4109 46.857 70.5236 43.1175 66.0664 43.1091C54.5613 43.0876 45.1816 53.781 45.1569 66.9458C45.1351 78.5959 49.367 82.6022 55.7729 88.6686L58.1594 90.9465C59.57 92.3086 62.8004 95.0361 66.2196 97.9239C70.2326 101.312 76.2968 106.431 77.057 107.487L76.9318 107.25L78.8718 110.94L80.9428 107.243L80.8035 107.517C81.5665 106.463 87.6355 101.376 91.6527 98.0087C95.1019 95.117 98.3605 92.3862 99.7774 91.0234L102.165 88.7616C108.597 82.7193 112.848 78.7264 112.87 67.0728C112.895 53.908 103.56 43.1807 92.0607 43.1591C87.5999 43.1507 81.6974 46.8681 79.0495 48.7065L79.0507 48.7065ZM80.3527 53.0932C83.225 50.9196 88.9415 47.4718 92.0538 47.4777C101.167 47.4948 108.563 56.282 108.543 67.0635C108.525 76.8571 105.603 79.6017 99.2013 85.6154L96.7763 87.9105C95.466 89.172 92.2626 91.8563 88.8709 94.7003C83.5509 99.1594 80.6026 101.677 78.9484 103.24C77.2977 101.667 74.3433 99.1243 69.015 94.6248C65.6508 91.786 62.4741 89.1029 61.171 87.8425L58.7511 85.5335C52.3751 79.497 49.4654 76.7415 49.4837 66.9528C49.504 56.1701 56.9392 47.4118 66.0583 47.4289C69.1682 47.4348 74.8681 50.9039 77.731 53.0895L79.0394 54.0883L80.3527 53.0944" fill="#FCFCFC"/>
</g>
<defs>
<clipPath id="clip0_574_606">
<rect width="126" height="126" fill="white" transform="translate(1.08057 0.94043) rotate(0.107465)"/>
</clipPath>
</defs>
</svg>
