<svg width="171" height="125" viewBox="0 0 171 125" fill="none" xmlns="http://www.w3.org/2000/svg">
<g id="sexualidae_2 1">
<g id="Clip path group">
<mask id="mask0_574_694" style="mask-type:luminance" maskUnits="userSpaceOnUse" x="58" y="32" width="84" height="82">
<g id="d9d1bd2c4c">
<path id="Vector" d="M58.7017 32.9574L141.624 33.1129L141.473 113.587L58.5507 113.432L58.7017 32.9574Z" fill="white"/>
</g>
</mask>
<g mask="url(#mask0_574_694)">
<g id="Group">
<path id="Vector_2" d="M100.012 113.599C77.4715 113.557 59.1641 95.5167 59.2056 73.3788C59.2471 51.2409 77.6221 33.2557 100.162 33.298C122.703 33.3403 141.003 51.3943 140.962 73.5322C140.92 95.6701 122.552 113.641 100.012 113.599ZM100.15 40.0374C81.3298 40.0021 65.9908 54.9659 65.9562 73.3774C65.9217 91.7912 81.2045 106.791 100.025 106.827C118.845 106.862 134.176 91.9052 134.211 73.5054C134.239 55.0869 118.97 40.0727 100.15 40.0374Z" fill="#A161BC"/>
</g>
</g>
</g>
<path id="Vector_3" d="M126.639 50.8604C125.761 50.8588 124.891 50.5193 124.23 49.8563C122.937 48.5233 122.962 46.3786 124.293 45.0763L158.786 11.3709C160.119 10.0827 162.257 10.1008 163.557 11.4361C164.853 12.7691 164.828 14.9256 163.494 16.2137L129.004 49.9192C128.355 50.5398 127.496 50.8621 126.639 50.8604Z" fill="#A161BC"/>
<g id="Clip path group_2">
<mask id="mask1_574_694" style="mask-type:luminance" maskUnits="userSpaceOnUse" x="122" y="7" width="46" height="46">
<g id="2affadb1b4">
<path id="Vector_4" d="M123.044 7.84723L167.068 7.9298L166.985 52.3839L122.961 52.3014L123.044 7.84723Z" fill="white"/>
</g>
</mask>
<g mask="url(#mask1_574_694)">
<g id="Group_2">
<path id="Vector_5" d="M163.819 51.9369C161.956 51.9334 160.447 50.4099 160.45 48.5514L160.514 14.7556L126.761 14.6923C124.897 14.6888 123.388 13.1653 123.392 11.3045C123.395 9.44596 124.91 7.92819 126.773 7.93168L163.902 8.00132C165.758 8.00481 167.274 9.52826 167.271 11.3868L167.201 48.5641C167.198 50.4226 165.683 51.9403 163.819 51.9369Z" fill="#A161BC"/>
</g>
</g>
</g>
<path id="Vector_6" d="M69.5876 88.2476C47.0473 88.2053 28.7446 70.1514 28.7861 48.0135C28.8276 25.8779 47.1979 7.89035 69.7383 7.93263C92.2786 7.9749 110.586 26.0313 110.544 48.1668C110.503 70.3047 92.1279 88.2899 69.5876 88.2476ZM69.7256 14.6862C50.9032 14.6509 35.5712 29.6217 35.5367 48.0191C35.5022 66.454 50.785 81.4471 69.6003 81.4823C88.4133 81.5176 103.759 66.5539 103.794 48.1471C103.821 29.7356 88.5385 14.7214 69.7256 14.6862Z" fill="#A161BC"/>
<path id="Vector_7" d="M8.5991 111.13C7.72124 111.128 6.85106 110.789 6.19038 110.126C4.89018 108.791 4.91535 106.634 6.24629 105.346L40.7386 71.6405C42.0766 70.3453 44.2102 70.3634 45.5104 71.7034C46.8106 73.0387 46.7878 75.1811 45.4545 76.4833L10.9645 110.189C10.3085 110.814 9.45583 111.132 8.5991 111.13Z" fill="#A161BC"/>
<path id="Vector_8" d="M30.5229 111.983C29.6732 111.982 28.8241 111.654 28.1634 111.012L5.7114 88.8999C4.37592 87.5997 4.36117 85.4502 5.66638 84.1198C6.97861 82.7987 9.11225 82.7887 10.4384 84.0748L32.8904 106.173C34.2235 107.48 34.2406 109.636 32.9354 110.953C32.2792 111.649 31.4007 111.985 30.5229 111.983Z" fill="#A161BC"/>
</g>
</svg>
