<svg width="121" height="89" viewBox="0 0 121 89" fill="none" xmlns="http://www.w3.org/2000/svg">
<g id="Sigilo">
<path id="Vector" d="M60.8371 68.91C46.6623 68.91 35.1692 58.8582 34.1157 45.9848L14.4817 32.0533C11.8957 35.0512 9.50131 38.1373 7.5858 41.5761C7.15671 42.3549 6.93308 43.2158 6.93308 44.0891C6.93308 44.9623 7.15671 45.8232 7.5858 46.602C17.738 64.854 37.8509 77.1984 60.8371 77.1984C65.9132 77.1984 70.702 76.493 75.395 75.4349L65.7217 68.4692C64.1114 68.7523 62.4765 68.8999 60.8371 68.91ZM119.548 78.9619L98.8601 64.2368C105.159 59.3489 110.336 53.3537 114.088 46.602C114.518 45.8232 114.741 44.9623 114.741 44.0891C114.741 43.2158 114.518 42.3549 114.088 41.5761C103.936 23.4123 83.8233 11.0679 60.8371 11.0679C51.1946 11.0852 41.7109 13.3286 33.2537 17.5928L9.49653 0.658976C9.19 0.429657 8.83686 0.258948 8.45778 0.156845C8.0787 0.054742 7.6813 0.0232981 7.28885 0.0643545C6.89641 0.105411 6.51681 0.218142 6.17228 0.395947C5.82774 0.573752 5.52521 0.813056 5.28239 1.09985L1.64292 5.42037C1.39383 5.70256 1.2084 6.02768 1.09749 6.37667C0.986588 6.72566 0.952433 7.09152 0.997029 7.45282C1.04163 7.81411 1.16408 8.16359 1.35721 8.48077C1.55034 8.79796 1.81028 9.07648 2.12179 9.30002L112.168 87.5985C112.475 87.8278 112.828 87.9985 113.207 88.1006C113.586 88.2027 113.983 88.2342 114.376 88.1931C114.768 88.1521 115.148 88.0393 115.492 87.8615C115.837 87.6837 116.139 87.4444 116.382 87.1576L120.022 82.8371C120.271 82.5549 120.456 82.2298 120.567 81.8808C120.678 81.5318 120.712 81.166 120.668 80.8047C120.623 80.4434 120.501 80.0939 120.307 79.7767C120.114 79.4595 119.854 79.181 119.543 78.9575L119.548 78.9619ZM85.1641 54.4495L77.7894 49.2472C78.4357 47.6054 78.7914 45.8788 78.8429 44.1331C78.8799 41.581 78.2657 39.0564 77.0499 36.7625C75.8341 34.4686 74.0505 32.4694 71.8426 30.9256C69.6348 29.3819 67.0642 28.3366 64.3377 27.874C61.6111 27.4113 58.8047 27.5442 56.1441 28.2618C57.2643 29.6684 57.8682 31.3672 57.8681 33.1114C57.8368 33.6776 57.7405 34.2392 57.5807 34.7867L43.789 24.9994C48.5805 21.3416 54.6126 19.3449 60.8371 19.3563C67.9749 19.3563 74.8203 21.9667 79.8675 26.6132C84.9146 31.2598 87.7501 37.5619 87.7501 44.1331C87.7501 47.8365 86.7923 51.3634 85.1641 54.4495Z" fill="#A161BC"/>
</g>
</svg>