<svg width="101" height="91" viewBox="0 0 101 91" fill="none" xmlns="http://www.w3.org/2000/svg">
<g id="autonomia 1" clip-path="url(#clip0_435_203)">
<path id="Vector" d="M57.7391 46.9092V51.6599L50.2066 64.3478L42.6505 51.6599V47.2615C44.9723 48.8978 47.4979 49.6929 49.9555 49.6929H49.9792C52.6185 49.6714 55.3036 48.7655 57.7391 46.9092Z" fill="#E0CFFF"/>
<g id="Clip path group">
<mask id="mask0_435_203" style="mask-type:luminance" maskUnits="userSpaceOnUse" x="19" y="53" width="63" height="38">
<g id="9b74346735">
<path id="Vector_2" d="M19.288 53.0479H81.2965V90.1179H19.288V53.0479Z" fill="white"/>
</g>
</mask>
<g mask="url(#mask0_435_203)">
<g id="Group">
<path id="Vector_3" d="M81.0911 69.3865V90.1179H70.5309V69.1881C70.5309 68.5683 70.0066 68.0608 69.37 68.0608C68.732 68.0608 68.2091 68.5683 68.2091 69.1881V90.1179H32.204V69.1881C32.204 68.5683 31.6796 68.0608 31.0431 68.0608C30.405 68.0608 29.8822 68.5683 29.8822 69.1881V90.1179H19.322V69.3865C19.322 60.4127 26.8544 53.0981 36.0957 53.0981H40.8294L49.2052 67.1765C49.409 67.5302 49.796 67.7286 50.2065 67.7286C50.6157 67.7286 51.0026 67.5086 51.2079 67.1765L59.5601 53.1197L59.5823 53.0981H64.3174C73.5793 53.0981 81.0911 60.3911 81.0911 69.3865Z" fill="#A161BC"/>
</g>
</g>
</g>
<path id="Vector_4" d="M22.075 47.4168C13.5412 45.1852 4.96007 42.7753 1.93379 37.6924C0.385945 35.0841 1.29575 31.7238 4.00448 30.2212C4.96007 29.6906 5.80341 29.426 6.71322 29.426C8.00998 29.426 9.37617 29.9997 11.2194 31.1716C11.5842 31.4146 12.0613 31.4146 12.4482 31.2162C12.8352 30.9948 13.0626 30.5979 13.0169 30.1766C12.7894 26.5301 13.4496 24.9384 15.7714 23.6357C17.0681 22.9052 18.5938 22.7068 20.0501 23.0821C21.5064 23.4588 22.7131 24.3647 23.4634 25.6243C26.4911 30.7072 24.351 39.1289 22.075 47.4168Z" fill="#E0CFFF"/>
<path id="Vector_5" d="M98.3656 13.3578L90.1035 18.3746C89.8982 18.4853 89.6929 18.5515 89.4891 18.5515C89.1022 18.5515 88.7152 18.3746 88.5099 18.0209C88.1687 17.4903 88.3282 16.8059 88.8747 16.4737L97.1353 11.4785C97.6818 11.1478 98.3878 11.3017 98.7289 11.8322C99.0701 12.3412 98.9106 13.0257 98.3656 13.3578Z" fill="#E0CFFF"/>
<path id="Vector_6" d="M98.0229 37.6926C94.9966 42.7755 86.4155 45.1854 77.8817 47.417C75.6057 39.129 73.4656 30.7073 76.4934 25.6244C77.2436 24.3648 78.4503 23.4589 79.9066 23.0822C80.3851 22.9499 80.8858 22.8838 81.3865 22.8838C82.3657 22.8838 83.3213 23.1268 84.1853 23.6128C86.5071 24.917 87.1673 26.5087 86.9399 30.1552C86.9162 30.575 87.1451 30.9949 87.5085 31.1948C87.8733 31.3932 88.374 31.3932 88.7373 31.1502C91.8788 29.1386 93.6305 28.8956 95.9522 30.1997C98.6373 31.7239 99.5708 35.0842 98.0229 37.6926Z" fill="#E0CFFF"/>
<path id="Vector_7" d="M91.8788 5.11339L85.8012 15.3468C85.5974 15.7005 85.2104 15.922 84.7998 15.922C84.596 15.922 84.3907 15.8774 84.2312 15.7667C83.6847 15.4575 83.4809 14.7731 83.7984 14.2195L89.8761 3.98609C90.1936 3.45695 90.8996 3.25708 91.4683 3.56623C92.0384 3.87681 92.1964 4.58281 91.8788 5.11339Z" fill="#E0CFFF"/>
<path id="Vector_8" d="M81.614 2.72591L81.2728 12.1857C81.2492 12.8055 80.7263 13.2685 80.1119 13.2685H80.0661C79.4296 13.2469 78.9289 12.7163 78.951 12.098L79.27 2.6382C79.2922 2.01847 79.8165 1.53247 80.4767 1.55547C81.1354 1.59861 81.6361 2.10762 81.614 2.72591Z" fill="#E0CFFF"/>
<g id="Clip path group_2">
<mask id="mask1_435_203" style="mask-type:luminance" maskUnits="userSpaceOnUse" x="29" y="0" width="42" height="24">
<g id="5086e128b2">
<path id="Vector_9" d="M29.1186 0.118164H70.7096V23.6002H29.1186V0.118164Z" fill="white"/>
</g>
</mask>
<g mask="url(#mask1_435_203)">
<g id="Group_2">
<path id="Vector_10" d="M70.6669 9.13657L67.3215 23.5686H32.6353L29.29 9.13657L43.6282 12.4293C44.1747 12.563 44.7433 12.2755 44.9723 11.7665L49.9792 0.118164L55.0082 11.7665C55.2356 12.2755 55.8043 12.563 56.3507 12.4293L70.6669 9.13657Z" fill="#A161BC"/>
</g>
</g>
</g>
<path id="Vector_11" d="M64.0899 25.8228C63.7473 34.2214 61.3576 40.0132 58.1718 43.4828C58.1038 43.549 58.0359 43.6151 57.9665 43.7043C55.5546 46.2234 52.7321 47.4169 50.0013 47.4385C47.4757 47.4385 44.857 46.4219 42.581 44.278C42.4673 44.035 42.2635 43.815 42.0124 43.7043C38.7129 40.2562 36.2316 34.3983 35.8904 25.8228H64.0899Z" fill="#E0CFFF"/>
<path id="Vector_12" d="M21.0057 12.1196C21.0293 12.7379 20.5286 13.2685 19.8906 13.2915H19.8448C19.2304 13.2915 18.7076 12.8055 18.6839 12.2088L18.3427 2.72591C18.3206 2.10762 18.8213 1.57704 19.4578 1.55547C20.0959 1.53247 20.6424 2.01847 20.6645 2.6382L21.0057 12.1196Z" fill="#E0CFFF"/>
<path id="Vector_13" d="M15.7492 15.7447C15.5661 15.8554 15.3623 15.9 15.157 15.9C14.7478 15.9 14.3609 15.7001 14.1556 15.3248L8.07792 5.11297C7.76037 4.58239 7.94204 3.87639 8.51067 3.56581C9.05714 3.25666 9.78528 3.43352 10.1043 3.98567L16.1805 14.2191C16.4774 14.7497 16.2942 15.4355 15.7492 15.7447Z" fill="#E0CFFF"/>
<path id="Vector_14" d="M11.4704 17.9991C11.2415 18.3529 10.8782 18.5297 10.4912 18.5297C10.2859 18.5297 10.0821 18.4852 9.8768 18.3529L1.61472 13.3361C1.06825 13.0039 0.908738 12.3181 1.25139 11.7889C1.59257 11.2584 2.29708 11.1031 2.84355 11.4352L11.1056 16.429C11.6285 16.7827 11.8116 17.4686 11.4704 17.9991Z" fill="#E0CFFF"/>
</g>
<defs>
<clipPath id="clip0_435_203">
<rect width="100.102" height="90" fill="white" transform="translate(0.00488281 0.225586)"/>
</clipPath>
</defs>
</svg>
