<svg width="112" height="85" viewBox="0 0 112 85" fill="none" xmlns="http://www.w3.org/2000/svg">
<g id="confian&#195;&#167;a ">
<path id="Vector" d="M39.2669 13.9429C34.9852 13.9429 33.6687 14.0572 33.0006 14.1578C31.8749 14.327 30.9001 15.0298 30.3846 16.045L16.7643 42.8407C16.1191 44.109 16.2991 45.6395 17.2204 46.7234C18.1097 47.7721 18.3461 48.0282 18.6055 48.3011C18.7412 48.4444 18.8953 48.6075 19.7022 49.5572C19.7526 49.6167 19.8044 49.6746 19.8593 49.7295C19.9188 49.792 19.9753 49.8484 20.0332 49.9093C20.1263 49.7478 20.2254 49.5907 20.3368 49.4413C20.5 49.2218 20.7074 49.0221 20.9378 48.8438C20.9561 48.8026 20.9713 48.7599 20.9896 48.7188C21.1635 48.4383 21.3374 48.1563 21.5098 47.8758C21.7386 47.5953 21.9979 47.356 22.2832 47.1532C20.6815 45.2706 21.6486 46.4932 19.9036 44.4398L33.5238 17.6441C34.4055 17.5115 36.657 17.4673 39.2669 17.4673C39.9961 17.4673 40.7542 17.4718 41.5184 17.4764C41.7137 17.2584 41.9318 17.0618 42.1652 16.8926C42.4352 15.6456 43.3657 14.4459 44.5448 13.9856C42.8135 13.9612 40.9617 13.9429 39.2669 13.9429Z" fill="#A161BC"/>
<path id="Vector_2" d="M95.8348 55.2416C95.5495 52.6806 94.0073 51.1486 92.8724 50.2188C92.0426 49.5373 91.2357 48.8255 90.383 48.0694C89.991 47.7248 89.6005 47.3788 89.2084 47.0373C88.5708 46.4825 87.9332 45.9291 87.2956 45.3758C86.15 44.3788 85.0045 43.3834 83.8604 42.3834C83.1252 41.7386 82.393 41.0922 81.6608 40.4459C80.8706 39.7477 80.0545 39.0267 79.2446 38.3178C78.6817 37.8285 78.1142 37.3438 77.5651 36.8742C77.0907 36.4703 76.6011 36.0526 76.1297 35.6425C74.7492 34.4428 73.3474 33.2157 71.9928 32.0282L71.1737 31.3117C69.7871 30.0983 68.402 28.8834 67.017 27.6669C66.7317 27.4154 64.8952 25.705 62.5049 23.4688C62.3828 23.5983 62.2547 23.7187 62.122 23.8255C60.7659 24.9169 59.117 24.7096 57.7975 23.8895C61.0085 26.8971 64.2621 29.9383 64.6938 30.3178C66.0804 31.5343 67.4655 32.7508 68.8536 33.9657C70.5086 35.4139 72.1606 36.8636 73.8203 38.3056C74.8514 39.2005 75.8994 40.077 76.9275 40.9748C78.4712 42.3224 79.9996 43.6883 81.5418 45.0373C83.3219 46.5953 85.1112 48.1441 86.8959 49.6974C88.1422 50.7828 89.364 51.9002 90.6423 52.9474C91.5194 53.6669 92.2028 54.452 92.334 55.6334C92.424 56.4276 92.4362 57.205 91.9862 57.8925C91.5286 58.5907 90.9581 59.1852 90.2671 59.6806C89.6889 60.0953 88.8424 60.3102 87.9866 60.3102C87.0942 60.3102 86.1927 60.0755 85.5765 59.5831C84.344 58.5953 83.023 57.7172 81.7355 56.798C79.8578 55.4596 77.9739 54.1303 76.0961 52.7889C73.9057 51.2233 71.7213 49.6502 69.5324 48.0831C68.0344 47.0099 66.5273 45.9505 65.0386 44.8605C64.4528 44.4322 63.8457 44.1303 63.112 44.0358C63.022 44.0252 62.932 44.0191 62.8435 44.0191C61.7849 44.0191 60.9718 44.8453 61.0771 45.9398C61.1579 46.7675 61.5759 47.4093 62.2303 47.8849C63.8762 49.0831 65.5374 50.2599 67.1939 51.4444C68.5927 52.4428 69.9991 53.4322 71.3949 54.4367C73.5014 55.952 75.5958 57.4825 77.7039 58.9977C79.2995 60.1441 80.8981 61.2843 82.5089 62.4093C84.0694 63.4992 84.2051 65.1334 83.534 66.5511C82.9269 67.8346 81.8637 68.4322 80.7288 68.4322C80.0851 68.4322 79.4185 68.2401 78.8007 67.8727C76.9534 66.7706 75.2679 65.3986 73.5075 64.1502C71.2408 62.5389 68.968 60.9352 66.7028 59.3224C64.5809 57.8117 62.4561 56.3041 60.3525 54.7706C59.8583 54.4108 59.3565 54.2111 58.7692 54.2111C58.6899 54.2111 58.6075 54.2142 58.5236 54.2218C57.6114 54.3056 57.108 54.6593 56.8548 55.484C56.597 56.3163 56.8518 57.1471 57.5306 57.641C60.8635 60.0648 64.195 62.4855 67.5295 64.9063C69.5964 66.4063 71.6755 67.8895 73.7272 69.4093C74.3953 69.9047 74.7141 70.6349 74.7675 71.4657C74.8255 72.4017 74.4869 73.2111 73.9118 73.9215C73.2223 74.7752 72.3498 75.2248 71.4284 75.2248C70.8534 75.2248 70.2615 75.0511 69.6819 74.6883C68.7803 74.1258 67.9261 73.484 67.0567 72.8697C66.1307 72.2157 65.2185 71.5419 64.2896 70.8925C62.9457 69.955 61.5866 69.0404 60.2458 68.0998C58.4107 66.8117 56.5924 65.5023 54.7559 64.2172C54.3669 63.9444 53.9977 63.8102 53.6438 63.8102C53.1786 63.8102 52.7393 64.0465 52.3213 64.5114C51.6029 65.3117 51.6135 66.4794 52.3762 67.0785C53.3083 67.8133 54.2555 68.5267 55.2058 69.2386C57.5336 70.9855 59.8675 72.7233 62.1952 74.4703C62.6467 74.8102 62.7154 75.1456 62.482 75.6669C61.8322 77.1242 60.5539 77.8224 59.1719 77.8224C58.7753 77.8224 58.3695 77.7645 57.9683 77.6502C57.1355 77.4139 56.3926 76.8681 55.607 76.4672C55.5674 76.4474 55.334 76.2675 54.9725 75.984C54.9786 76.016 54.9862 76.0465 54.9908 76.0785C55.1448 77.1014 54.7452 78.1197 54.1487 78.9245C54.016 79.1029 53.8543 79.2675 53.6759 79.4184C53.8086 79.5069 53.8925 79.5495 54.0069 79.609C54.1762 79.6944 54.376 79.8087 54.5881 79.9322C55.2242 80.3011 56.0174 80.7599 57.0058 81.0419C57.7197 81.2447 58.4488 81.3483 59.1719 81.3483C62.0274 81.3483 64.5291 79.7233 65.6975 77.1075C65.8012 76.8758 65.8851 76.6441 65.9523 76.4123C66.5441 76.8361 67.1558 77.2675 67.8178 77.6791C68.939 78.3803 70.1883 78.7508 71.4284 78.7508C73.4359 78.7508 75.2892 77.8239 76.6499 76.1395C77.7665 74.7584 78.3324 73.1669 78.2942 71.5191C79.0844 71.8087 79.9096 71.9581 80.7288 71.9581C83.3235 71.9581 85.5628 70.5008 86.719 68.0602C87.3856 66.6471 87.5778 65.1791 87.3337 63.8117C87.5488 63.8285 87.7685 63.8361 87.9866 63.8361C89.6188 63.8361 91.1564 63.3788 92.3172 62.5465C93.3575 61.8026 94.2377 60.8864 94.9317 59.8255C96.0041 58.1883 95.9782 56.516 95.8348 55.2416Z" fill="#A161BC"/>
<path id="Vector_3" d="M59.0605 8.98389C57.2117 8.98389 55.3843 9.23541 53.566 9.60889C51.0933 10.1196 48.7701 10.5266 46.5995 11.8162C46.3737 11.9488 41.0394 14.3528 37.6561 18.1333C36.8965 19.4778 36.1475 20.8269 35.4107 22.1836C35.2887 22.4061 35.2048 22.6699 35.1773 22.9214C35.0233 24.333 34.9058 25.7491 34.7472 27.1607C34.6099 28.3955 34.5641 29.6607 34.2438 30.8497C33.8853 32.1851 33.2935 33.4641 32.7504 34.7446C32.3904 35.5921 32.3859 36.4031 32.842 37.1821C33.687 38.6257 34.9958 39.4031 36.6326 39.5723C37.081 39.618 37.5295 39.6424 37.9764 39.6424C39.1678 39.6424 40.35 39.4732 41.4909 39.1043C42.9935 38.6211 44.2885 37.7278 45.4326 36.6394C46.5995 35.5281 47.5666 34.2644 48.2927 32.8238C48.8525 31.7125 49.2537 30.551 49.4596 29.3132C49.5771 28.6135 49.6045 27.8635 50.114 27.2766C50.3199 27.0403 50.4938 26.7766 50.7013 26.5388C51.6119 25.4976 52.7514 24.7537 54.0968 24.5464C54.5499 24.4763 55.0044 24.4427 55.4559 24.4427C56.4963 24.4427 57.532 24.6272 58.5327 25.0022C59.0559 25.1988 59.5623 25.4138 59.962 25.8452C60.6377 26.5784 61.3287 27.301 62.0548 27.9824C62.9106 28.7857 63.8105 29.5418 64.6937 30.3177C66.0803 31.5342 67.4654 32.7507 68.8535 33.9656C70.5086 35.4138 72.1606 36.8635 73.8202 38.3055C74.8514 39.2004 75.8993 40.0769 76.9274 40.9747C78.4711 42.3223 79.9996 43.6882 81.5417 45.0372C83.3219 46.5952 85.1112 48.144 86.8959 49.6973C88.1421 50.7827 89.364 51.9001 90.6423 52.9473C90.6728 52.9732 90.7094 52.9839 90.7506 52.9839C91.1944 52.9839 92.2149 51.5464 93.4093 49.8452C94.3825 48.458 95.4167 46.5479 96.0925 44.9915C96.1825 44.7842 96.1932 44.4671 96.1001 44.2659C95.3573 42.6363 94.5854 41.0205 93.8136 39.4046C92.5963 36.8543 91.3668 34.3101 90.1496 31.7598C88.885 29.1119 87.6281 26.4625 86.3666 23.8132C85.5825 22.1653 84.8 20.5174 84.0114 18.8711C83.0961 16.9656 82.1733 15.0616 81.2534 13.1592C81.1253 12.8924 80.9438 12.7827 80.6174 12.7598C78.8189 12.6348 77.0144 12.5388 75.2297 12.2918C74.0063 12.1211 72.8089 11.74 71.6099 11.4168C69.9213 10.9625 68.2479 10.4534 66.5563 10.0083C64.3154 9.41681 62.0304 9.07078 59.7149 8.99456C59.4967 8.98694 59.2786 8.98389 59.0605 8.98389ZM59.0605 12.2735C59.245 12.2735 59.4281 12.2781 59.6065 12.2827C61.6323 12.3497 63.6885 12.6546 65.7188 13.1897C66.5929 13.4199 67.4928 13.6775 68.3638 13.926C69.1433 14.147 69.9487 14.3772 70.7572 14.5952C71.0028 14.6607 71.2468 14.7293 71.4924 14.7979C72.5267 15.0875 73.596 15.3848 74.7781 15.551C76.1891 15.7461 77.5864 15.8528 78.9486 15.9458L79.0752 16.208C79.7341 17.5708 80.3916 18.9336 81.0475 20.2979C81.6577 21.5693 82.2633 22.8436 82.8704 24.1165L83.3997 25.2293C83.842 26.1577 84.2844 27.0875 84.7252 28.0174C85.5429 29.7385 86.362 31.4595 87.1842 33.179C87.7943 34.4595 88.4091 35.7385 89.0238 37.0174C89.6324 38.2857 90.2411 39.554 90.8467 40.8223C91.44 42.0632 92.0487 43.336 92.6436 44.6196C92.0624 45.8162 91.3516 47.051 90.7185 47.9534C90.6224 48.0906 90.5156 48.243 90.4028 48.4016C90.3448 48.3513 90.2853 48.2979 90.2258 48.2461C89.8368 47.9 89.4463 47.5571 89.0543 47.2156C88.4167 46.6607 87.7791 46.1074 87.143 45.5525C85.9959 44.5555 84.8488 43.5601 83.7063 42.5586C82.9695 41.9153 82.2373 41.2674 81.5051 40.6211C80.715 39.9244 79.8989 39.2034 79.0889 38.4946C78.5291 38.0052 77.9616 37.522 77.4125 37.054C76.9381 36.6485 76.4484 36.2308 75.9756 35.8208C74.5936 34.6196 73.1902 33.3909 71.8326 32.2019L71.0196 31.4885C69.6315 30.275 68.2464 29.0601 66.8613 27.8436C66.6066 27.6196 66.3488 27.397 66.0941 27.1729C65.4641 26.6287 64.8707 26.1135 64.3032 25.5814C63.5894 24.9107 62.8968 24.176 62.3751 23.6104C61.408 22.5662 60.2457 22.1302 59.6874 21.9199C58.3267 21.4107 56.9035 21.1516 55.4559 21.1516C54.8397 21.1516 54.2158 21.1988 53.5995 21.2933C51.5723 21.6043 49.7128 22.6699 48.224 24.3757C48.0471 24.5784 47.9037 24.7674 47.7878 24.9199C47.7298 24.9961 47.6627 25.083 47.6307 25.1211C46.572 26.3421 46.3753 27.6927 46.2593 28.5007C46.2456 28.5906 46.2334 28.6821 46.2181 28.7705C46.0717 29.6394 45.791 30.4808 45.3563 31.3421C44.8239 32.4 44.0872 33.3787 43.1689 34.2522C42.2536 35.1226 41.375 35.6851 40.4842 35.9717C39.7047 36.2232 38.8596 36.3513 37.9764 36.3513C37.647 36.3513 37.3083 36.3345 36.9681 36.2994C36.4144 36.2415 36.0987 36.0616 35.8744 35.7994C35.9278 35.6775 35.9797 35.5555 36.0316 35.4336C36.5365 34.2644 37.0551 33.0555 37.4197 31.7034C37.7308 30.5433 37.8361 29.4061 37.9291 28.4016C37.9581 28.0967 37.9841 27.8071 38.0161 27.5266C38.1 26.7674 38.1747 26.0052 38.2449 25.2689C38.3013 24.6988 38.3578 24.1104 38.4188 23.5357C39.0335 22.4061 39.6773 21.2476 40.3347 20.0799C42.0477 18.2598 44.7019 16.4168 47.8564 14.8665C48.0349 14.7781 48.1447 14.7247 48.2774 14.647C49.812 13.7339 51.6074 13.368 53.6834 12.9443L54.2295 12.8314C56.0768 12.4504 57.6129 12.2735 59.0605 12.2735Z" fill="#A161BC"/>
<g id="Clip path group">
<mask id="mask0_410_341" style="mask-type:luminance" maskUnits="userSpaceOnUse" x="13" y="44" width="45" height="40">
<g id="9e751015b9">
<path id="Vector_4" d="M13.1461 44.5557H57.5305V83.4474H13.1461V44.5557Z" fill="white"/>
</g>
</mask>
<g mask="url(#mask0_410_341)">
<g id="Group">
<path id="Vector_5" d="M43.9591 73.7219C44.0247 73.7219 44.0903 73.7264 44.1574 73.7341C44.7111 73.8011 45.1932 74.1441 45.4372 74.6456C45.6889 75.1639 45.6584 75.6106 45.6477 75.7783C45.6386 76.0085 45.6203 76.2234 45.602 76.4292C45.5745 76.7493 45.5455 77.0786 45.5821 77.2722C45.7072 77.9353 46.0962 78.5359 46.7719 79.1075C47.707 79.8972 48.5383 80.2158 49.4719 80.1487C49.7526 80.1274 49.9798 80.0237 50.2331 79.8011C51.1635 78.9856 53.5859 76.0725 54.0465 75.2158C54.1686 74.9886 54.286 74.6517 54.1182 74.0557C53.7613 72.7859 52.9467 71.9109 51.6318 71.385C50.471 70.92 49.9127 71.1441 49.5192 71.4261C49.0936 71.7295 48.6634 71.7478 48.517 71.7524C48.0334 71.795 47.5545 71.6228 47.2097 71.2813C46.8574 70.9307 46.6819 70.4368 46.7323 69.9414L46.7353 69.9048C46.7414 69.7493 46.7536 69.4581 46.8833 69.1289C47.138 68.4856 47.3058 67.5572 46.3479 66.103C45.5943 64.9581 44.5738 64.2585 43.2315 63.9612C42.3041 63.7569 41.5825 63.8667 40.8931 64.321C40.7878 64.3896 40.678 64.4551 40.5331 64.5405L40.3317 64.6594C39.7322 65.0191 38.9726 64.9597 38.4356 64.513C37.8987 64.0664 37.7019 63.3286 37.946 62.6746C38.6782 60.7066 38.2556 59.1929 36.5762 57.763C34.8738 56.3164 33.3134 56.1319 31.5164 57.1639C30.859 57.542 30.0292 57.4216 29.506 56.8713C28.9843 56.3225 28.905 55.4856 29.3153 54.8484C30.6744 52.7325 30.5234 50.9749 28.8409 49.3149C27.1736 47.6716 25.4545 47.4292 23.4425 48.5618C21.4458 50.821 20.8539 51.5298 20.5977 51.8377L20.4817 51.9764C20.1355 52.3865 19.7953 52.8027 19.4551 53.2173C18.8801 53.9185 18.2867 54.6426 17.6628 55.3423C16.8818 56.2142 16.5111 56.9749 16.4608 57.8088C16.3799 59.1304 16.801 60.2402 17.7482 61.2021C18.517 61.9825 19.4414 62.4338 20.5733 62.5816C21.3924 62.6899 22.1414 62.5344 22.8583 62.1106C23.02 62.0161 23.1939 61.888 23.4166 61.7249C23.5447 61.6319 23.6805 61.5328 23.8285 61.4277C24.3913 61.0328 25.1403 61.0283 25.7062 61.4185C26.2721 61.8088 26.536 62.51 26.3682 63.1777C26.3545 63.2249 26.3484 63.2646 26.3408 63.2981C26.3103 63.4368 26.2676 63.6456 26.1516 63.8819C25.8069 64.5877 25.8008 65.3362 26.1303 66.1716C26.7847 67.8286 27.9196 68.8652 29.599 69.3392C30.8514 69.6929 31.7773 69.5481 32.601 68.8728C32.7185 68.7767 32.8207 68.7081 32.9305 68.635C32.9763 68.603 33.0312 68.5664 33.0983 68.5206C33.6459 68.1411 34.3674 68.1304 34.9272 68.4932C35.4871 68.856 35.7708 69.5191 35.6503 70.1746C35.635 70.2493 35.6274 70.3133 35.6182 70.3697C35.5893 70.5603 35.5557 70.7996 35.4428 71.0755C35.2521 71.5481 35.2888 72.0755 35.574 72.9581C36.0591 74.4505 37.8774 76.0679 39.81 76.0969C40.8564 76.106 41.5337 75.8042 42.0768 75.0649C42.2324 74.8514 42.394 74.6655 42.5359 74.5008C42.5908 74.4368 42.6442 74.3743 42.6976 74.3118C43.0118 73.9353 43.4756 73.7219 43.9591 73.7219ZM49.2171 83.4475C47.6018 83.4475 46.1038 82.8469 44.6532 81.6213C43.6739 80.795 42.989 79.853 42.6061 78.8103C41.7732 79.2097 40.8214 79.4048 39.7627 79.3865C36.6296 79.3408 33.4171 76.9627 32.4469 73.9749C32.3203 73.5847 32.1983 73.1502 32.1205 72.6822C31.0695 72.9094 29.9285 72.8514 28.7082 72.5069C26.0494 71.7554 24.1015 69.9841 23.0734 67.3819C22.8537 66.8271 22.7103 66.2707 22.6447 65.7188C21.8409 65.9139 21.0065 65.9566 20.1477 65.8438C18.2882 65.6014 16.6927 64.8164 15.4067 63.513C13.8127 61.8941 13.0409 59.8514 13.1797 57.606C13.2758 56.0283 13.9408 54.5694 15.2115 53.1487C15.7896 52.5008 16.3342 51.8362 16.9123 51.1304C17.2647 50.7021 17.6155 50.2737 17.9725 49.8499L18.0731 49.7295C18.3691 49.3758 18.9853 48.6365 21.1544 46.1838C21.2658 46.0588 21.3939 45.9505 21.5358 45.8652C24.9328 43.8133 28.3482 44.2066 31.1488 46.9719C32.9991 48.7966 33.7664 50.9688 33.4262 53.2203C35.2445 53.1441 37.0277 53.8286 38.7056 55.2569C40.5193 56.7996 41.4849 58.6213 41.5749 60.6289C42.3269 60.5252 43.1171 60.5649 43.9408 60.7478C46.1282 61.231 47.8611 62.4231 49.0921 64.2905C49.8715 65.4719 50.2941 66.6548 50.3597 67.824C51.1452 67.8118 51.9796 67.9795 52.8552 68.3301C55.1174 69.2356 56.6473 70.9063 57.2819 73.1624C57.648 74.4581 57.5336 75.6731 56.9417 76.7737C56.1913 78.17 53.4486 81.3575 52.3991 82.2767C51.6105 82.9673 50.7075 83.356 49.7159 83.4292C49.5482 83.4429 49.3819 83.4475 49.2171 83.4475Z" fill="#A161BC"/>
</g>
</g>
</g>
<path id="Vector_6" d="M24.8337 64.4183C24.463 64.4183 24.0908 64.2933 23.7827 64.0372C23.0856 63.4549 22.991 62.4183 23.5722 61.7202L29.4434 54.6683C30.0246 53.9702 31.0603 53.8756 31.7574 54.458C32.4561 55.0388 32.5491 56.0769 31.9695 56.775L26.0982 63.8269C25.7718 64.2171 25.305 64.4183 24.8337 64.4183Z" fill="#A161BC"/>
<path id="Vector_7" d="M33.9921 71.47C33.6321 71.47 33.2706 71.3526 32.967 71.1102C32.2577 70.5416 32.1418 69.505 32.7108 68.7962L38.3471 61.7459C38.913 61.0355 39.9488 60.9212 40.6566 61.4883C41.3659 62.0554 41.4818 63.0919 40.9128 63.8008L35.2765 70.8526C34.9531 71.2581 34.4741 71.47 33.9921 71.47Z" fill="#A161BC"/>
<path id="Vector_8" d="M43.622 77.3454C43.2635 77.3454 42.9035 77.2311 42.6015 76.9902C41.8907 76.4277 41.7701 75.3926 42.333 74.6792L46.7948 69.039C47.3592 68.3256 48.3934 68.2067 49.1042 68.7692C49.8166 69.3347 49.9371 70.3683 49.3727 71.0817L44.9109 76.7234C44.586 77.132 44.1071 77.3454 43.622 77.3454Z" fill="#A161BC"/>
<path id="Vector_9" d="M24.3913 6.63463C24.0329 6.63463 23.92 6.74591 23.7659 7.05994C23.1634 8.29012 22.5197 9.58128 21.7997 11.0066C20.5412 13.4959 19.2797 15.9837 18.0152 18.4685C17.6399 19.2063 17.2601 19.9441 16.8803 20.6804C16.3998 21.6133 15.9193 22.5462 15.4464 23.4837C15.1611 24.0493 14.8835 24.6194 14.6059 25.1895C14.3374 25.7459 14.0674 26.3008 13.7898 26.8526C12.9844 28.4502 12.1592 30.066 11.3599 31.6301L10.9877 32.3602C10.6429 33.0325 10.2997 33.7032 9.95497 34.374C9.4638 35.3282 8.97414 36.281 8.48907 37.2383C8.18094 37.8435 7.87891 38.4517 7.57536 39.0599C7.12536 39.9654 6.65707 40.9014 6.18114 41.8191C6.01793 42.1362 6.1003 42.6011 6.35046 42.7581C6.92096 43.1179 7.5418 43.4334 8.19924 43.7688L9.24414 44.3023C10.7009 45.0493 12.2065 45.8206 13.6968 46.531C13.8905 46.6224 14.1773 46.6773 14.429 46.6651C14.5769 46.6605 14.7783 46.6514 15.0834 46.0279C16.0108 44.1301 16.9748 42.217 17.9069 40.3648L18.5872 39.0127C19.658 36.8831 20.7319 34.7581 21.8119 32.6346C22.5166 31.2474 23.2229 29.8618 23.9291 28.4761C24.8352 26.6987 25.7428 24.9197 26.6443 23.1407C27.2347 21.9776 27.8189 20.8115 28.4016 19.6453C28.8729 18.7032 29.3443 17.7612 29.8202 16.8206C30.6653 15.1453 31.5653 13.3663 32.4637 11.6316C32.6879 11.1941 32.691 10.6331 32.1891 10.3618C31.7742 10.1362 31.3532 9.92579 30.9078 9.70323C30.6927 9.595 30.4746 9.48677 30.2595 9.37701C29.8385 9.16207 29.4205 8.94561 29.0011 8.73067C28.034 8.23372 27.0364 7.72 26.051 7.23829C25.8832 7.15445 25.7169 7.06603 25.5521 6.97609C25.2913 6.83585 24.8978 6.62396 24.7711 6.63463L24.6476 6.6453L24.524 6.6392C24.4767 6.63616 24.4325 6.63463 24.3913 6.63463ZM14.3664 49.9578C13.6388 49.9578 12.9081 49.7977 12.2873 49.5035C10.7512 48.7718 9.22278 47.9883 7.74467 47.2307L6.70893 46.7017C6.01488 46.348 5.29794 45.9822 4.59778 45.5416C2.91375 44.4807 2.31427 42.1301 3.26306 40.3023C3.72831 39.409 4.18898 38.4852 4.63287 37.592C4.93947 36.9761 5.24608 36.3618 5.55726 35.7474C6.04538 34.7871 6.53809 33.8282 7.03079 32.8694C7.374 32.2002 7.71874 31.5325 8.05891 30.8618L8.43263 30.1316C9.23041 28.5721 10.0526 26.9609 10.8534 25.3724C11.1234 24.8343 11.3873 24.2932 11.6497 23.752C11.9288 23.1773 12.2171 22.5828 12.5115 21.9974C12.9905 21.0538 13.4741 20.1133 13.9576 19.1743C14.3344 18.441 14.7127 17.7078 15.0849 16.9746C16.3494 14.4913 17.6094 12.0081 18.8648 9.52183C19.5802 8.10719 20.2163 6.82823 20.8143 5.61024C21.5617 4.0889 22.901 3.29012 24.5988 3.34805C25.6543 3.29164 26.4979 3.74591 27.1172 4.08128C27.2438 4.1514 27.3704 4.22 27.4986 4.2825C28.5114 4.77945 29.5243 5.30079 30.5036 5.80384C30.92 6.01878 31.3349 6.23219 31.7529 6.44408C31.9603 6.55079 32.1708 6.65597 32.3783 6.75963C32.8283 6.98524 33.292 7.21695 33.7542 7.46695C35.786 8.56908 36.4877 11.0096 35.3833 13.1438C34.491 14.8679 33.6306 16.5676 32.7551 18.3038C32.2807 19.2413 31.8108 20.1804 31.341 21.1194C30.7553 22.2901 30.168 23.4609 29.5761 24.6285C28.6731 26.4121 27.7655 28.1926 26.8579 29.973C26.1516 31.3572 25.4454 32.7413 24.7422 34.127C23.6652 36.2459 22.5929 38.3679 21.5251 40.4913L20.8432 41.8465C19.9143 43.688 18.9548 45.592 18.038 47.473C17.0709 49.4502 15.6096 49.9136 14.554 49.9532C14.4915 49.9563 14.429 49.9578 14.3664 49.9578Z" fill="#A161BC"/>
<g id="Clip path group_2">
<mask id="mask1_410_341" style="mask-type:luminance" maskUnits="userSpaceOnUse" x="76" y="2" width="34" height="48">
<g id="707fb5d508">
<path id="Vector_10" d="M76.7886 2.71729H109.205V49.6792H76.7886V2.71729Z" fill="white"/>
</g>
</mask>
<g mask="url(#mask1_410_341)">
<g id="Group_2">
<path id="Vector_11" d="M87.985 6.06943C86.9554 6.53589 85.9105 7.03284 84.9007 7.51302L84.0236 7.93071C83.6331 8.11516 83.2456 8.30266 82.8566 8.48863C82.1107 8.84687 81.3404 9.21729 80.567 9.57095C80.2513 9.71577 80.024 10.26 80.0942 10.4627C80.2284 10.8575 80.4297 11.2706 80.6402 11.7097L80.6921 11.8164C81.1269 12.7142 81.5631 13.6106 81.9994 14.5054C82.6095 15.7554 83.2182 17.0054 83.8192 18.26C84.1792 19.013 84.5315 19.7783 84.8717 20.5176C85.1844 21.199 85.4971 21.8804 85.819 22.5557C86.2491 23.4612 86.6884 24.3621 87.1262 25.2615C87.535 26.1014 87.9438 26.9414 88.3465 27.7844C88.8621 28.8636 89.3716 29.9475 89.8826 31.0298C90.3082 31.9383 90.7368 32.8469 91.167 33.7539C92.0944 35.7005 93.0249 37.6456 93.9539 39.5908L95.7417 43.3347C96.1795 44.2478 96.6157 45.1609 97.0505 46.0755C97.1237 46.2112 97.4867 46.3728 97.6454 46.3423C98.4508 46.0542 99.1708 45.763 99.8328 45.4566C101.534 44.6685 102.931 43.9947 104.232 43.3362C104.758 43.0694 105.359 42.7432 105.814 42.3621C105.942 42.2554 105.939 41.946 105.872 41.7996C104.993 39.9261 104.086 38.0237 103.21 36.1838L102.487 34.6685C101.286 32.1487 100.088 29.6274 98.884 27.1091C98.3867 26.0679 97.8864 25.0283 97.386 23.9902C96.8354 22.8423 96.2847 21.6944 95.7356 20.5466C94.9042 18.8057 94.0775 17.0618 93.2507 15.3179L91.8717 12.4124C90.9641 10.5039 90.058 8.59534 89.1596 6.68223C88.8759 6.08162 88.6745 6.00997 88.4472 6.0054C88.3633 6.01912 88.2794 6.02979 88.1955 6.04046C88.1254 6.04961 88.0323 6.06028 87.985 6.06943ZM97.6179 49.635C96.1856 49.635 94.7013 48.792 94.0836 47.4917C93.6473 46.5786 93.2126 45.6655 92.7763 44.7539L90.987 41.0115C90.0565 39.0633 89.126 37.1167 88.2001 35.167C87.7654 34.2569 87.3367 33.3453 86.9066 32.4322C86.4001 31.3545 85.8937 30.2783 85.3812 29.2036C84.9815 28.3682 84.5758 27.5359 84.1715 26.7036C83.7292 25.795 83.2853 24.885 82.8505 23.9719C82.5226 23.2813 82.2038 22.5862 81.8834 21.8926C81.5494 21.1639 81.2046 20.4109 80.8538 19.6822C80.2574 18.4353 79.6518 17.1929 79.0447 15.9505C78.6069 15.0496 78.1676 14.1502 77.7313 13.2478L77.681 13.1426C77.4354 12.635 77.1822 12.1121 76.9824 11.5252C76.3539 9.67918 77.3713 7.41394 79.2018 6.57705C79.9462 6.23711 80.7028 5.8743 81.4335 5.52217C81.827 5.33315 82.2206 5.14412 82.6156 4.95662L83.4882 4.54199C84.5254 4.04808 85.5993 3.53741 86.6717 3.05266C87.0942 2.86059 87.4954 2.8118 87.7883 2.77522C87.8584 2.76607 87.9271 2.75845 87.9957 2.74473L88.1223 2.72187L88.252 2.71729C89.4555 2.68223 91.1075 3.10144 92.1341 5.27979C93.031 7.18985 93.9356 9.09382 94.8402 10.9993L96.2206 13.9078C97.0459 15.6487 97.8726 17.3895 98.7009 19.1274C99.2501 20.2737 99.7992 21.4185 100.35 22.5633C100.85 23.6045 101.351 24.6472 101.849 25.6883C103.053 28.2097 104.255 30.731 105.455 33.2524L106.177 34.7676C107.056 36.6121 107.965 38.5191 108.848 40.4017C109.467 41.7234 109.35 43.6883 107.928 44.8835C107.217 45.4795 106.412 45.92 105.716 46.2706C104.382 46.9475 102.949 47.638 101.213 48.4429C100.463 48.7905 99.6528 49.1197 98.736 49.4475C98.3791 49.5755 97.9993 49.635 97.6179 49.635Z" fill="#A161BC"/>
</g>
</g>
</g>
</g>
</svg>
