<svg width="44" height="44" viewBox="0 0 44 44" fill="none" xmlns="http://www.w3.org/2000/svg">
<g id="email 1" clip-path="url(#clip0_660_464)">
<g id="Clip path group">
<mask id="mask0_660_464" style="mask-type:luminance" maskUnits="userSpaceOnUse" x="0" y="4" width="43" height="37">
<g id="4bab3cf453">
<path id="Vector" d="M42.8123 4.124H42.906V4.21777V40.4182V40.512H42.8123H0.395969H0.3022V40.4182V4.21777V4.124H0.395969H42.8123Z" fill="white" stroke="white" stroke-width="0.187544"/>
</g>
</mask>
<g mask="url(#mask0_660_464)">
<g id="Group">
<path id="Vector_2" d="M3.05421 39.0669L16.8358 26.9201L19.9751 29.6695L3.05421 39.0669ZM3.05421 39.0669H40.2574L26.4404 26.92L23.3003 29.6696L23.299 29.6707C22.3297 30.4904 20.9106 30.492 19.9753 29.6696L3.05421 39.0669ZM22.3111 4.23559L22.3112 4.2356C26.1771 4.56053 29.2186 7.57364 29.5839 11.4245H40.542C41.8175 11.4245 42.8646 12.4728 42.902 13.7441L42.9021 13.7441V13.7469V38.1542C42.9021 39.4666 41.8511 40.4753 40.5447 40.5126L40.5447 40.5126H40.542H2.77005C1.45675 40.5126 0.446774 39.4624 0.409473 38.1569L0.409435 38.1569V38.1542L0.409393 13.7469L0.409477 13.7441C0.446869 12.4728 1.49454 11.4245 2.77005 11.4245H13.764C14.1704 7.10304 17.9707 3.87418 22.3111 4.23559ZM13.7636 12.8342H3.09048L20.9623 28.5581L20.9623 28.5581L20.9636 28.5594C21.3597 28.922 21.9883 28.9219 22.3838 28.5594L22.3853 28.5581L40.2571 12.8701H29.5835C29.1797 16.9384 25.7771 20.0593 21.6557 20.0593C17.5349 20.0593 14.1314 16.9382 13.7636 12.8342ZM41.4193 38.1266V13.7469C41.4193 13.733 41.4193 13.7199 41.419 13.7075L27.5535 25.9325L41.4193 38.1266ZM1.8565 38.1936L15.758 25.9327L1.86019 13.7104C1.85761 13.7241 1.85621 13.7358 1.85621 13.7469V38.1542C1.85621 38.1682 1.85626 38.1812 1.8565 38.1936ZM21.6557 5.64498C18.0741 5.64498 15.1663 8.55063 15.1663 12.1293C15.1663 15.708 18.0741 18.6137 21.6557 18.6137C25.2374 18.6137 28.1452 15.708 28.1452 12.1293C28.1452 8.55063 25.2374 5.64498 21.6557 5.64498Z" fill="#7B4393" stroke="#7B4393" stroke-width="0.187544"/>
</g>
</g>
</g>
<path id="Vector_3" d="M21.116 7.81641H22.1955C24.2821 7.81641 25.9727 9.50587 25.9727 11.5907V12.6691C25.9727 14.754 24.2821 16.4434 22.1955 16.4434H21.5839C21.2244 16.4434 20.9722 16.1559 20.9722 15.7964C20.9722 15.437 21.2604 15.1494 21.5839 15.1494H22.1955C23.5985 15.1494 24.7134 14.0351 24.7134 12.6332V11.5548C24.7134 10.1529 23.5985 9.03857 22.1955 9.03857H21.116C19.7136 9.03857 18.5981 10.1529 18.5981 11.5548V13.4599C18.5981 13.6397 18.7419 13.7834 18.9216 13.7834H19.3176C19.4973 13.7834 19.6411 13.6397 19.6411 13.4599V11.6986C19.6411 10.7999 20.3606 10.081 21.2604 10.081H22.0158C22.915 10.081 23.6345 10.7999 23.6345 11.6986V12.4534C23.6345 13.3521 22.915 14.071 22.0158 14.071H20.7566C20.5049 14.6461 19.9652 15.0416 19.3176 15.0416H18.9216C18.0584 15.0416 17.3389 14.3226 17.3389 13.4599V11.5548C17.3389 9.50587 19.03 7.81641 21.116 7.81641ZM22.3752 12.5253V11.7705C22.3752 11.5907 22.2315 11.411 22.0158 11.411H21.2604C21.0801 11.411 20.9003 11.5548 20.9003 11.7705V12.8848H22.0158C22.2315 12.8848 22.3752 12.7051 22.3752 12.5253Z" fill="#7B4393"/>
</g>
<defs>
<clipPath id="clip0_660_464">
<rect width="43.1352" height="43.1352" fill="white" transform="matrix(-1 0 0 1 43.2436 0.624023)"/>
</clipPath>
</defs>
</svg>
