<svg width="211" height="216" viewBox="0 0 211 216" fill="none" xmlns="http://www.w3.org/2000/svg">
<g id="Cr 1">
<g id="Clip path group">
<mask id="mask0_922_920" style="mask-type:luminance" maskUnits="userSpaceOnUse" x="22" y="29" width="169" height="168">
<g id="60bd59015b">
<path id="Vector" d="M22.8342 29.1592H190.563V196.893H22.8342V29.1592Z" fill="white"/>
</g>
</mask>
<g mask="url(#mask0_922_920)">
<g id="Group">
<g id="Clip path group_2">
<mask id="mask1_922_920" style="mask-type:luminance" maskUnits="userSpaceOnUse" x="22" y="29" width="169" height="168">
<g id="06ae2d7c16">
<path id="Vector_2" d="M106.699 29.1592C60.3794 29.1592 22.8342 66.7044 22.8342 113.024C22.8342 159.343 60.3794 196.893 106.699 196.893C153.018 196.893 190.563 159.343 190.563 113.024C190.563 66.7044 153.018 29.1592 106.699 29.1592Z" fill="white"/>
</g>
</mask>
<g mask="url(#mask1_922_920)">
<g id="Group_2">
<path id="Vector_3" d="M22.8342 29.1592H190.563V196.893H22.8342V29.1592Z" fill="#D5C2DD"/>
</g>
</g>
</g>
</g>
</g>
</g>
<g id="Clip path group_3">
<mask id="mask2_922_920" style="mask-type:luminance" maskUnits="userSpaceOnUse" x="62" y="32" width="97" height="161">
<g id="bfff31eb6f">
<path id="Vector_4" d="M62.9369 32.6836H158.747V192.94H62.9369V32.6836Z" fill="white"/>
</g>
</mask>
<g mask="url(#mask2_922_920)">
<g id="Group_3">
<path id="Vector_5" d="M104.314 146.528C112.488 138.735 125.283 133.986 133.42 127.561C140.129 122.266 146.224 115.598 149.59 107.659C152.879 99.9064 152.78 91.4756 152.206 83.2211C155.283 87.5449 158.192 92.5374 157.013 97.9591C155.965 102.757 152.491 106.742 152.188 111.744C151.894 116.614 154.713 120.879 156.25 125.311C156.991 127.458 157.664 130.223 156.426 132.328C155.093 134.592 152.165 133.828 150.2 135.08C148.614 136.083 148.456 137.379 148.89 139.055C149.07 139.76 149.301 140.741 149.021 141.477C148.677 142.381 147.629 142.462 146.87 142.611C146.278 142.72 145.587 142.778 145.058 143.104C143.875 143.831 144.024 144.902 144.448 146.054C144.774 146.944 145.619 147.278 144.873 148.602C144.101 149.976 142.93 149.348 141.86 149.542C141.344 149.632 140.924 149.804 140.5 150.111C139.058 151.155 138.701 152.994 138.485 154.643C138.042 157.964 136.713 160.263 133.348 161.334C128.066 163.019 121.713 161.659 117.096 158.822C112.045 155.723 108.096 151.101 104.314 146.528ZM101.848 147.513C96.3716 153.757 94.1171 161.574 96.1502 169.706C98.3595 178.525 104.5 185.488 110.436 192.089C110.965 192.68 111.837 191.808 111.308 191.221C104.265 183.387 96.5117 174.486 96.5749 163.313C96.6156 156.671 99.349 151.593 103.442 147.396C108.236 153.211 113.427 159.265 120.57 161.894C125.052 163.543 131.644 164.144 135.905 161.537C137.631 160.485 138.887 158.885 139.379 156.92C139.713 155.592 139.619 154.173 140.066 152.872C140.509 151.589 141.078 150.983 142.528 150.726C143.021 150.644 143.536 150.802 144.042 150.69C145.465 150.36 146.468 148.887 146.328 147.441C146.247 146.551 144.905 144.97 145.682 144.165C146.201 143.623 147.805 143.772 148.506 143.479C149.902 142.9 150.665 141.459 150.466 139.986C150.331 138.97 149.459 137.994 150.037 136.887C150.534 135.943 151.713 135.703 152.631 135.491C153.742 135.224 154.899 135.179 155.906 134.569C159.403 132.459 158.369 127.467 157.207 124.345C155.21 118.982 152.165 114.125 154.176 108.247C155.784 103.552 158.942 99.45 158.459 94.2407C157.989 89.1624 154.903 84.7889 151.962 80.8085C151.641 80.3702 150.76 80.447 150.814 81.1157C151.257 86.804 151.632 92.56 150.864 98.2347C150.137 103.575 148.23 108.558 145.298 113.081C140.007 121.241 132.259 127.638 123.896 132.468C116.911 136.503 109.406 139.986 103.61 145.67C103.099 145.055 102.593 144.441 102.087 143.831C101.576 143.221 100.709 144.093 101.215 144.699C101.721 145.308 102.227 145.927 102.742 146.551C102.439 146.867 102.141 147.183 101.848 147.513ZM64.8038 78.7799C70.849 74.4967 77.8611 71.5826 85.1216 70.3446C90.7421 69.3823 96.4032 69.4094 101.951 70.4259C102.317 71.1488 102.697 71.8672 103.085 72.5765C103.113 72.6308 103.144 72.6805 103.176 72.7347C103.56 73.4395 103.957 74.1308 104.369 74.8175C104.518 75.066 104.671 75.3145 104.825 75.563C105.119 76.0464 105.417 76.5299 105.729 77.0088C105.909 77.2934 106.094 77.569 106.28 77.8491C106.569 78.2829 106.863 78.7211 107.161 79.1503C107.364 79.435 107.563 79.7196 107.766 80.0043C108.069 80.4199 108.372 80.8311 108.679 81.2422C108.887 81.5223 109.099 81.7979 109.311 82.0735C109.628 82.4847 109.953 82.8868 110.278 83.2889C110.491 83.5509 110.703 83.8175 110.92 84.075C111.268 84.4952 111.625 84.9064 111.986 85.3175C112.185 85.5479 112.384 85.7783 112.587 86.0088C113.021 86.4877 113.459 86.9621 113.906 87.4274C114.046 87.5765 114.182 87.7302 114.326 87.8793C114.918 88.4937 115.519 89.0946 116.134 89.6865C116.265 89.813 116.4 89.935 116.531 90.057C117.015 90.5178 117.507 90.9741 118.004 91.4214C118.226 91.6247 118.456 91.8145 118.682 92.0133C119.098 92.3793 119.513 92.7407 119.938 93.0931C120.195 93.31 120.457 93.5178 120.715 93.7256C121.122 94.0555 121.528 94.3808 121.939 94.7015C122.215 94.9139 122.491 95.1217 122.766 95.3296C123.182 95.6413 123.593 95.944 124.018 96.2467C124.298 96.45 124.578 96.6488 124.863 96.8476C125.296 97.1503 125.73 97.444 126.173 97.7332C126.448 97.9184 126.724 98.1037 127.009 98.2844C127.113 98.3521 127.212 98.4244 127.316 98.4922C126.882 98.3883 126.444 98.2934 126.01 98.1985C125.762 98.1443 125.522 98.0856 125.278 98.0359C124.551 97.8823 123.823 97.7467 123.091 97.6202C122.622 97.5434 122.147 97.4666 121.668 97.3988C121.515 97.3762 121.361 97.3582 121.207 97.3356C120.878 97.2904 120.548 97.2452 120.218 97.2046C120.042 97.182 119.861 97.1639 119.685 97.1413C119.373 97.1052 119.061 97.0735 118.75 97.0419C118.564 97.0238 118.375 97.0058 118.189 96.9877C117.882 96.9606 117.57 96.9335 117.263 96.9109C117.069 96.8973 116.884 96.8838 116.694 96.8702C116.382 96.8476 116.066 96.8296 115.754 96.8115C115.564 96.8024 115.379 96.7934 115.194 96.7844C114.869 96.7708 114.543 96.7573 114.218 96.7482C114.037 96.7437 113.861 96.7347 113.68 96.7302C113.341 96.7256 112.998 96.7211 112.655 96.7166C112.488 96.7166 112.325 96.7121 112.153 96.7121C112.104 96.7121 112.054 96.7121 112.004 96.7121C111.561 96.7121 111.114 96.7166 110.667 96.7211C110.256 96.7302 109.84 96.7437 109.429 96.7618C109.298 96.7663 109.162 96.7753 109.031 96.7844C108.751 96.7979 108.471 96.8115 108.195 96.8341C108.037 96.8431 107.875 96.8612 107.716 96.8747C107.468 96.8928 107.215 96.9109 106.966 96.9335C106.795 96.9515 106.623 96.9696 106.451 96.9922C106.216 97.0148 105.982 97.0374 105.747 97.0645C105.566 97.0871 105.39 97.1142 105.209 97.1368C104.983 97.1684 104.757 97.1955 104.531 97.2271C104.351 97.2543 104.17 97.2904 103.985 97.3175C103.763 97.3537 103.542 97.3853 103.325 97.4214C103.14 97.4576 102.959 97.4937 102.774 97.5253C102.557 97.566 102.34 97.6021 102.123 97.6473C101.938 97.6835 101.753 97.7241 101.567 97.7648C101.355 97.81 101.143 97.8552 100.93 97.9049C100.745 97.9455 100.56 97.9907 100.375 98.0359C100.162 98.0856 99.9544 98.1353 99.7421 98.1895C99.5568 98.2347 99.3716 98.2889 99.1909 98.3341C98.983 98.3928 98.7707 98.447 98.5629 98.5058C98.3776 98.56 98.1924 98.6142 98.0071 98.6684C97.8038 98.7271 97.6005 98.7859 97.3927 98.8491C97.2074 98.9079 97.0267 98.9711 96.8415 99.0299C96.6382 99.0931 96.4348 99.1609 96.2315 99.2287C96.0463 99.2919 95.8656 99.3552 95.6848 99.4184C95.4815 99.4907 95.2782 99.563 95.0749 99.6353C94.8942 99.703 94.7135 99.7753 94.5327 99.8431C94.3339 99.9199 94.1306 99.9967 93.9318 100.074C93.7511 100.146 93.5704 100.218 93.3942 100.295C93.1909 100.376 92.9921 100.458 92.7933 100.543C92.6171 100.616 92.4409 100.697 92.2602 100.774C92.1065 100.842 91.9529 100.909 91.7993 100.977C81.0644 95.9756 71.7436 88.313 64.8038 78.7799ZM91.7993 102.333C92.2963 102.558 92.7978 102.78 93.3038 102.997C93.3806 103.033 93.462 103.06 93.5388 103.096C94.0132 103.299 94.4921 103.494 94.971 103.688C95.1517 103.76 95.3324 103.828 95.5086 103.9C95.8972 104.049 96.2858 104.199 96.6743 104.343C96.8686 104.415 97.0629 104.488 97.2571 104.555C97.6547 104.7 98.0568 104.84 98.4589 104.976C98.6261 105.034 98.7933 105.093 98.965 105.152C99.5297 105.337 100.099 105.522 100.668 105.694C101.247 105.87 101.825 106.042 102.408 106.2C102.561 106.245 102.719 106.286 102.878 106.327C103.298 106.444 103.723 106.557 104.152 106.661C104.337 106.711 104.527 106.756 104.712 106.801C105.128 106.9 105.539 107 105.95 107.09C106.126 107.131 106.302 107.171 106.483 107.208C106.98 107.316 107.477 107.415 107.974 107.515C108.06 107.533 108.146 107.551 108.232 107.564C108.823 107.677 109.415 107.786 110.007 107.881C110.134 107.903 110.26 107.921 110.387 107.939C110.852 108.012 111.313 108.084 111.778 108.147C111.959 108.174 112.144 108.197 112.329 108.224C112.75 108.278 113.165 108.328 113.581 108.373C113.766 108.396 113.956 108.418 114.141 108.436C114.598 108.486 115.058 108.527 115.515 108.568C115.65 108.577 115.786 108.59 115.921 108.604C116.518 108.653 117.114 108.689 117.715 108.726C117.796 108.73 117.878 108.73 117.959 108.735C118.469 108.762 118.98 108.78 119.491 108.798C119.671 108.802 119.852 108.807 120.037 108.807C120.453 108.821 120.873 108.825 121.289 108.825C121.393 108.825 121.501 108.83 121.605 108.83C121.736 108.83 121.863 108.83 121.994 108.83C122.197 108.825 122.4 108.825 122.599 108.821C122.897 108.816 123.195 108.811 123.489 108.802C123.679 108.798 123.869 108.793 124.058 108.784C124.402 108.775 124.75 108.757 125.098 108.744C125.233 108.735 125.373 108.73 125.509 108.721C125.988 108.699 126.466 108.667 126.945 108.631C127.076 108.617 127.212 108.608 127.348 108.599C127.695 108.568 128.048 108.536 128.4 108.504C128.576 108.486 128.753 108.468 128.933 108.45C129.245 108.418 129.552 108.387 129.864 108.346C130.049 108.328 130.235 108.305 130.42 108.283C130.727 108.242 131.039 108.202 131.346 108.161C131.527 108.134 131.703 108.111 131.879 108.084C132.223 108.034 132.561 107.98 132.9 107.926C133.045 107.903 133.185 107.885 133.325 107.858C133.808 107.777 134.292 107.696 134.775 107.601C134.807 107.596 134.838 107.592 134.87 107.583C135.317 107.501 135.769 107.406 136.212 107.316C136.366 107.284 136.515 107.253 136.664 107.217C136.994 107.144 137.323 107.072 137.658 106.995C137.829 106.955 138.001 106.914 138.173 106.873C138.485 106.801 138.796 106.724 139.108 106.643C139.28 106.598 139.456 106.557 139.628 106.512C139.948 106.426 140.274 106.34 140.594 106.25C140.707 106.218 140.82 106.191 140.933 106.159C124.709 130.882 93.8234 142.955 65.0478 135.703C66.8821 127.751 70.6547 120.346 75.9815 114.251C80.4409 109.15 85.7632 105.138 91.7993 102.333ZM145.235 84.9109C145.253 91.2271 144.263 97.4169 142.293 103.349C142.271 103.29 142.244 103.236 142.221 103.182C141.941 102.513 141.647 101.858 141.344 101.208C141.322 101.158 141.295 101.108 141.272 101.058C140.956 100.39 140.631 99.7256 140.292 99.0705C140.283 99.0479 140.274 99.0253 140.26 99.0027C139.921 98.3476 139.569 97.7061 139.207 97.0645C139.162 96.9922 139.122 96.9199 139.081 96.8476C138.733 96.2377 138.372 95.6323 137.997 95.0314C137.938 94.941 137.879 94.8461 137.82 94.7512C137.454 94.1639 137.075 93.5856 136.682 93.0118C136.619 92.9169 136.551 92.8175 136.483 92.7181C136.09 92.1488 135.688 91.5796 135.272 91.0193C135.209 90.9335 135.141 90.8476 135.078 90.7663C134.649 90.1925 134.21 89.6277 133.763 89.072C133.718 89.0133 133.668 88.9546 133.623 88.9003C133.149 88.313 132.661 87.7347 132.164 87.1654C129.512 84.1383 126.466 81.2693 123.105 78.6353C122.726 78.3371 122.346 78.0524 121.957 77.7678C121.835 77.6774 121.713 77.5916 121.591 77.5012C121.325 77.3115 121.063 77.1217 120.796 76.932C120.647 76.828 120.494 76.7286 120.34 76.6293C120.096 76.4666 119.857 76.2994 119.608 76.1413C119.445 76.0329 119.278 75.929 119.111 75.8296C118.881 75.6759 118.646 75.5268 118.406 75.3823C118.235 75.2783 118.058 75.1789 117.882 75.075C117.652 74.9395 117.421 74.7994 117.186 74.6639C117.006 74.5645 116.82 74.4651 116.64 74.3657C116.409 74.2392 116.179 74.1082 115.948 73.9862C115.763 73.8868 115.573 73.7919 115.384 73.697C115.153 73.5796 114.927 73.4576 114.692 73.3446C114.503 73.2497 114.304 73.1594 114.11 73.069C113.879 72.9561 113.653 72.8476 113.418 72.7392C113.224 72.6488 113.025 72.5675 112.826 72.4817C112.596 72.3777 112.361 72.2738 112.126 72.1744C111.927 72.0931 111.724 72.0118 111.521 71.9305C111.286 71.8356 111.055 71.7407 110.82 71.6503C110.617 71.569 110.405 71.4967 110.201 71.4199C109.966 71.3341 109.732 71.2437 109.497 71.1624C109.284 71.0901 109.072 71.0178 108.86 70.9455C108.625 70.8687 108.394 70.7874 108.159 70.7151C107.942 70.6428 107.721 70.5796 107.509 70.5163C107.269 70.444 107.039 70.3717 106.799 70.304C106.578 70.2407 106.357 70.182 106.135 70.1232C105.9 70.06 105.665 69.9922 105.43 69.9335C105.204 69.8747 104.974 69.8205 104.748 69.7708C104.513 69.7121 104.278 69.6534 104.043 69.6037C103.813 69.5494 103.582 69.5043 103.352 69.4546C103.162 69.4184 102.977 69.3732 102.792 69.3371C97.4017 58.444 94.9484 46.313 95.6894 34.2C95.8656 34.1955 96.0373 34.1955 96.2135 34.1955C105.39 34.1955 114.308 36.6759 122.075 41.3973C133.542 48.3642 141.552 59.7994 144.046 72.7708C144.837 76.9003 145.235 80.9847 145.235 84.9109ZM130.298 100.593C130.704 100.715 131.116 100.833 131.522 100.968C131.536 100.977 131.549 100.982 131.567 100.986C131.992 101.126 132.412 101.271 132.837 101.424C132.973 101.47 133.108 101.524 133.248 101.574C133.533 101.677 133.817 101.781 134.102 101.894C134.265 101.953 134.423 102.016 134.585 102.08C134.843 102.183 135.105 102.287 135.363 102.391C135.53 102.459 135.697 102.531 135.86 102.599C136.117 102.708 136.37 102.816 136.623 102.929C136.786 103.001 136.948 103.074 137.111 103.141C137.373 103.259 137.635 103.381 137.893 103.503C138.042 103.571 138.191 103.643 138.344 103.715C138.634 103.851 138.923 103.995 139.212 104.135C139.325 104.199 139.442 104.253 139.56 104.311C139.957 104.51 140.355 104.718 140.748 104.93C140.721 104.935 140.698 104.944 140.667 104.953C140.491 105.003 140.31 105.048 140.134 105.102C139.804 105.188 139.474 105.278 139.149 105.364C138.954 105.414 138.76 105.464 138.566 105.509C138.25 105.59 137.938 105.667 137.622 105.744C137.418 105.789 137.215 105.834 137.012 105.879C136.704 105.947 136.393 106.019 136.085 106.083C135.878 106.128 135.67 106.168 135.462 106.209C135.159 106.272 134.852 106.336 134.545 106.39C134.337 106.43 134.129 106.467 133.917 106.503C133.61 106.561 133.307 106.616 133 106.665C132.787 106.702 132.579 106.733 132.372 106.765C132.064 106.814 131.757 106.86 131.45 106.9C131.238 106.932 131.03 106.959 130.822 106.986C130.51 107.031 130.203 107.068 129.891 107.104C129.683 107.131 129.476 107.153 129.272 107.176C128.956 107.212 128.644 107.244 128.332 107.271C128.125 107.293 127.921 107.311 127.718 107.33C127.397 107.361 127.081 107.384 126.765 107.406C126.561 107.42 126.363 107.438 126.164 107.452C125.838 107.47 125.518 107.488 125.192 107.506C124.998 107.515 124.804 107.524 124.605 107.533C124.275 107.546 123.941 107.56 123.611 107.569C123.421 107.574 123.236 107.578 123.051 107.583C122.707 107.592 122.36 107.592 122.016 107.596C121.844 107.596 121.668 107.601 121.497 107.601C121.126 107.596 120.76 107.592 120.394 107.587C120.241 107.583 120.091 107.583 119.942 107.578C119.527 107.569 119.111 107.555 118.695 107.537C118.591 107.533 118.492 107.533 118.388 107.524C116.816 107.456 115.248 107.33 113.685 107.153C113.581 107.14 113.477 107.126 113.373 107.113C112.962 107.063 112.551 107.013 112.144 106.959C111.986 106.936 111.832 106.914 111.674 106.891C111.317 106.842 110.96 106.787 110.604 106.733C110.423 106.702 110.242 106.67 110.061 106.638C109.732 106.584 109.402 106.53 109.072 106.471C108.878 106.435 108.683 106.394 108.489 106.358C108.173 106.299 107.857 106.241 107.54 106.177C107.337 106.132 107.134 106.087 106.93 106.046C106.623 105.979 106.32 105.915 106.018 105.848C105.805 105.798 105.598 105.748 105.385 105.699C105.091 105.626 104.793 105.558 104.5 105.482C104.283 105.427 104.07 105.373 103.858 105.314C103.564 105.242 103.275 105.165 102.986 105.084C102.769 105.025 102.552 104.962 102.335 104.903C102.051 104.822 101.766 104.736 101.482 104.655C101.265 104.587 101.043 104.519 100.826 104.456C100.546 104.37 100.266 104.28 99.9861 104.189C99.7647 104.117 99.5433 104.045 99.3264 103.973C99.0463 103.878 98.7707 103.787 98.4951 103.688C98.2737 103.611 98.0523 103.534 97.8355 103.458C97.5598 103.358 97.2842 103.259 97.0086 103.155C96.7918 103.074 96.5704 102.992 96.3535 102.906C96.0779 102.802 95.8068 102.694 95.5358 102.586C95.3189 102.5 95.102 102.414 94.8852 102.328C94.6095 102.215 94.3339 102.093 94.0583 101.98C93.8505 101.89 93.6382 101.799 93.4258 101.709C93.3897 101.691 93.349 101.677 93.3129 101.659C93.5297 101.564 93.7511 101.474 93.9725 101.384C94.0855 101.339 94.1939 101.293 94.3068 101.248C94.6683 101.104 95.0297 100.964 95.3912 100.828C95.4318 100.814 95.468 100.801 95.5041 100.792C95.8294 100.67 96.1592 100.552 96.4845 100.439C96.6111 100.399 96.7376 100.358 96.8641 100.318C97.1035 100.236 97.343 100.155 97.587 100.078C97.7361 100.033 97.8852 99.9922 98.0297 99.947C98.2511 99.8793 98.4725 99.8115 98.6984 99.7482C98.8565 99.703 99.0102 99.6579 99.1683 99.6172C99.3852 99.5585 99.5975 99.4997 99.8144 99.441C99.977 99.4003 100.14 99.3597 100.302 99.319C100.515 99.2648 100.727 99.2151 100.939 99.1654C101.107 99.1247 101.274 99.0886 101.441 99.0524C101.649 99.0073 101.861 98.9576 102.073 98.9169C102.241 98.8808 102.408 98.8446 102.579 98.813C102.787 98.7723 103 98.7317 103.212 98.6955C103.384 98.6639 103.551 98.6323 103.723 98.6052C103.935 98.569 104.147 98.5374 104.364 98.5012C104.531 98.4741 104.698 98.4515 104.87 98.4244C105.087 98.3928 105.304 98.3657 105.525 98.3341C105.688 98.316 105.855 98.2934 106.022 98.2708C106.248 98.2482 106.469 98.2256 106.695 98.203C106.858 98.185 107.021 98.1669 107.183 98.1488C107.418 98.1262 107.653 98.1082 107.893 98.0901C108.042 98.0811 108.195 98.0675 108.344 98.0585C108.607 98.0404 108.869 98.0223 109.131 98.0088C109.262 98.0043 109.388 97.9952 109.515 97.9907C109.908 97.9726 110.296 97.9591 110.689 97.9546C114.887 97.8732 118.994 98.1714 122.888 98.8356C123.62 98.9576 124.352 99.0976 125.084 99.2467C125.305 99.2964 125.527 99.3506 125.753 99.4003C126.254 99.5088 126.76 99.6217 127.262 99.7437C127.533 99.8115 127.799 99.8883 128.066 99.9561C128.518 100.078 128.969 100.191 129.412 100.318C129.71 100.403 130.004 100.503 130.298 100.593ZM103.854 71.3883C103.741 71.1759 103.628 70.9591 103.519 70.7467C103.537 70.7512 103.555 70.7512 103.573 70.7603C103.736 70.7919 103.899 70.8326 104.061 70.8732C104.341 70.9365 104.622 70.9997 104.897 71.0675C105.078 71.1127 105.254 71.1624 105.435 71.2076C105.692 71.2753 105.95 71.3431 106.212 71.4154C106.397 71.4696 106.582 71.5238 106.768 71.578C107.016 71.6503 107.26 71.7226 107.509 71.7994C107.698 71.8582 107.884 71.9214 108.073 71.9847C108.313 72.0615 108.552 72.1383 108.792 72.2196C108.982 72.2874 109.171 72.3552 109.361 72.4229C109.591 72.5043 109.826 72.5901 110.057 72.6759C110.251 72.7482 110.436 72.825 110.626 72.8973C110.857 72.9877 111.082 73.078 111.313 73.1729C111.498 73.2497 111.688 73.3265 111.878 73.4079C112.104 73.5027 112.325 73.6021 112.551 73.7015C112.736 73.7874 112.921 73.8687 113.107 73.9546C113.332 74.0585 113.554 74.1624 113.775 74.2708C113.956 74.3567 114.141 74.447 114.322 74.5374C114.543 74.6458 114.76 74.7588 114.982 74.8717C115.162 74.9666 115.343 75.0615 115.519 75.1564C115.741 75.2693 115.957 75.3913 116.179 75.5133C116.351 75.6127 116.527 75.7076 116.698 75.807C116.92 75.9335 117.141 76.0645 117.358 76.1955C117.53 76.2949 117.697 76.3943 117.864 76.4982C118.09 76.6338 118.307 76.7738 118.533 76.9139C118.691 77.0178 118.854 77.1172 119.012 77.2211C119.242 77.3702 119.473 77.5283 119.703 77.682C119.848 77.7814 119.997 77.8762 120.137 77.9802C120.394 78.1564 120.647 78.3371 120.9 78.5223C121.018 78.6082 121.135 78.6895 121.248 78.7708C121.619 79.0419 121.985 79.322 122.346 79.6021C124.817 81.5404 127.117 83.6097 129.213 85.7783C129.909 86.5012 130.587 87.2332 131.238 87.9741C131.721 88.5299 132.191 89.0901 132.652 89.6594C132.701 89.7181 132.751 89.7768 132.796 89.8356C133.235 90.3732 133.659 90.9244 134.075 91.4802C134.138 91.566 134.201 91.6518 134.265 91.7377C134.671 92.2799 135.064 92.8311 135.448 93.3868C135.512 93.4817 135.579 93.5811 135.643 93.6759C136.027 94.2317 136.397 94.8009 136.759 95.3747C136.813 95.4606 136.867 95.5509 136.921 95.6368C137.287 96.2241 137.644 96.8205 137.992 97.4169C138.024 97.4802 138.06 97.5389 138.091 97.6021C138.453 98.2302 138.801 98.8672 139.135 99.5088L139.14 99.5178C139.474 100.164 139.795 100.814 140.102 101.465C140.134 101.537 140.17 101.601 140.201 101.668C140.495 102.296 140.771 102.929 141.042 103.561C141.069 103.62 141.091 103.674 141.114 103.729C140.838 103.584 140.558 103.439 140.278 103.299C140.197 103.259 140.12 103.214 140.043 103.173C139.637 102.97 139.23 102.775 138.823 102.577C138.701 102.522 138.584 102.468 138.462 102.409C138.168 102.274 137.879 102.138 137.585 102.007C137.432 101.939 137.278 101.872 137.129 101.804C136.863 101.691 136.591 101.574 136.325 101.461C136.167 101.393 136.004 101.325 135.841 101.262C135.575 101.149 135.308 101.04 135.037 100.936C134.879 100.873 134.726 100.814 134.567 100.751C134.274 100.638 133.98 100.53 133.686 100.421C133.555 100.376 133.424 100.327 133.293 100.277C132.869 100.128 132.444 99.9787 132.024 99.8386C131.247 99.4184 130.488 98.9802 129.733 98.5329C129.561 98.4335 129.399 98.3205 129.227 98.2211C128.644 97.8642 128.061 97.5118 127.492 97.1368C127.226 96.9651 126.968 96.7844 126.706 96.6082C126.241 96.3009 125.771 95.9892 125.314 95.6684C125.025 95.4651 124.745 95.2527 124.456 95.0449C124.036 94.7377 123.611 94.435 123.195 94.1187C122.902 93.8928 122.613 93.6579 122.319 93.4274C121.926 93.1202 121.533 92.813 121.144 92.4967C120.846 92.2527 120.561 92.0043 120.268 91.7558C119.897 91.4395 119.522 91.1232 119.156 90.8024C118.863 90.5404 118.578 90.2738 118.293 90.0118C117.936 89.6865 117.584 89.3612 117.236 89.0314C116.951 88.7603 116.671 88.4802 116.391 88.2C116.052 87.8657 115.713 87.5359 115.384 87.197C115.108 86.9079 114.832 86.6142 114.561 86.325C114.241 85.9817 113.915 85.6383 113.604 85.2904C113.332 84.9922 113.066 84.685 112.804 84.3823C112.497 84.0299 112.189 83.6774 111.891 83.316C111.629 83.0043 111.376 82.688 111.119 82.3672C110.829 82.0103 110.54 81.6488 110.256 81.2783C110.003 80.953 109.759 80.6277 109.515 80.2979C109.235 79.9274 108.959 79.557 108.692 79.1774C108.453 78.8431 108.213 78.4997 107.979 78.1609C107.721 77.7814 107.459 77.4018 107.206 77.0178C106.976 76.6699 106.75 76.313 106.524 75.9651C106.28 75.5765 106.036 75.188 105.796 74.7949C105.579 74.4335 105.363 74.072 105.15 73.7061C104.92 73.3085 104.689 72.9154 104.468 72.5133C104.26 72.1428 104.057 71.7678 103.854 71.3883ZM90.3716 101.65C84.5478 104.506 79.4017 108.468 75.0508 113.443C69.4574 119.84 65.5403 127.647 63.715 136.019C63.6427 136.345 63.8415 136.661 64.1577 136.747C70.1261 138.305 76.1848 139.083 82.2255 139.083C91.2345 139.083 100.203 137.357 108.778 133.923C123.024 128.221 134.807 118.363 142.863 105.427L142.881 105.387C142.89 105.364 142.903 105.346 142.908 105.328L142.917 105.314C145.293 98.7814 146.486 91.9184 146.468 84.9109C146.468 80.9079 146.061 76.7467 145.257 72.5404C142.695 59.2256 134.482 47.4922 122.712 40.3446C114.444 35.316 104.897 32.7678 95.0975 32.9756C94.7812 32.9847 94.5192 33.2332 94.4966 33.5494C93.6517 45.7663 96.0056 58.0193 101.296 69.066C95.8836 68.1714 90.3806 68.194 84.9138 69.1293C77.2647 70.435 69.8912 73.5524 63.5794 78.1428C63.3038 78.3416 63.2451 78.7211 63.4394 78.9967C70.3475 88.6609 79.6412 96.4681 90.3716 101.65Z" fill="black"/>
</g>
</g>
</g>
<g id="Clip path group_4">
<mask id="mask3_922_920" style="mask-type:luminance" maskUnits="userSpaceOnUse" x="2" y="77" width="25" height="38">
<g id="12573d84dd">
<path id="Vector_6" d="M2.74683 77.4932H26.8914V114.505H2.74683V77.4932Z" fill="white"/>
</g>
</mask>
<g mask="url(#mask3_922_920)">
<g id="Group_4">
<g id="Group_5">
<g id="Group_6">
<g id="Group_7">
<path id="Vector_7" d="M21.2377 107.468C19.4078 100.23 10.828 94.5326 5.25723 91.1169C5.15784 91.0808 5.13525 90.9724 5.17139 90.873C5.21205 90.7781 5.32049 90.7329 5.4244 90.751C11.4425 92.5266 19.1955 95.3549 21.0614 96.0462C21.2783 96.1275 21.5404 96.0462 21.6804 95.8383C21.8205 95.635 21.8024 95.3594 21.6443 95.1877C19.0193 92.1335 12.3958 86.3278 7.80091 82.4377C7.73314 82.3654 7.71055 82.2344 7.76476 82.1621C7.8235 82.0672 7.93193 82.0447 8.03133 82.0808C16.6292 86.0928 23.9395 88.9483 25.3762 86.1471C25.5072 85.876 25.3988 85.5462 25.1277 85.4151C24.8566 85.2841 24.5494 85.379 24.4003 85.6456C23.1624 88.126 10.6066 82.126 5.26627 79.5642C4.45302 79.1983 3.72109 78.8413 3.0479 78.5206C2.79488 78.4121 2.50573 78.5115 2.36567 78.7374C2.21657 78.9814 2.27079 79.2841 2.49217 79.4468C3.71205 80.3639 12.938 88.0266 18.2331 93.1862C18.3596 93.2901 18.3687 93.4799 18.2828 93.6109C18.2015 93.7465 18.0434 93.8007 17.8852 93.7555C13.1277 92.0432 5.22561 89.3413 0.965064 88.51C0.725607 88.4468 0.477113 88.5733 0.373197 88.8037C0.273799 89.0386 0.350606 89.3007 0.55392 89.4588C1.09157 89.8654 2.03585 90.4438 3.24669 91.1712C8.50121 94.3429 18.3145 100.271 20.194 107.725C20.7407 109.903 20.0765 111.335 19.2813 111.972C18.6759 112.451 17.8536 112.519 17.1849 112.158C15.8295 111.426 15.1744 109.266 15.4139 106.411C15.4365 106.266 15.3958 106.135 15.2919 106.013C15.206 105.914 15.075 105.832 14.9259 105.828C14.6413 105.796 14.3747 106.022 14.3431 106.311C13.9455 111.082 15.8295 112.655 16.6473 113.106C17.7181 113.685 19.0102 113.572 19.95 112.817C20.7271 112.176 21.2602 111.268 21.3913 110.246C21.5268 109.329 21.4816 108.362 21.2377 107.468Z" fill="black"/>
</g>
</g>
</g>
</g>
</g>
</g>
<g id="Group_8">
<g id="Group_9">
<g id="Group_10">
<path id="Vector_8" d="M27.9483 68.474C27.6591 68.5689 27.4965 68.8761 27.5913 69.1698C27.623 69.2511 30.1215 77.0719 26.3037 79.4981C24.7856 80.465 22.4588 79.8234 22.4407 79.8144C22.2058 79.733 21.9618 79.8234 21.8263 80.0358C21.7133 80.23 21.7224 80.5056 21.8715 80.6864C23.4212 82.4439 25.1968 85.1141 24.7224 85.4168C24.7088 85.4574 24.5959 85.4981 24.4422 85.4936C23.7194 85.4394 23.0778 85.0644 22.6441 84.4815C21.501 83.1126 21.0401 81.3279 21.3564 79.5749C21.3925 79.3897 21.3203 79.1999 21.1757 79.0644C21.0356 78.9333 20.8188 78.9062 20.638 78.9605C20.4663 79.0418 20.3353 79.1818 20.2992 79.3716C19.9016 81.4454 20.4799 83.5779 21.8263 85.1954C22.4678 86.0267 23.4528 86.5373 24.4965 86.5779C25.0025 86.605 25.4859 86.3249 25.6983 85.855L25.7073 85.837C26.1004 84.9108 25.4724 83.2526 24.5868 81.9062C24.4829 81.7481 24.4829 81.5448 24.5778 81.3821C24.6501 81.215 24.8127 81.1065 24.998 81.102C25.6666 81.0162 26.3082 80.7903 26.8639 80.4062C31.4227 77.5418 28.7299 69.1833 28.626 68.8219C28.5718 68.6864 28.4678 68.5689 28.3549 68.5192C28.2329 68.4424 28.0748 68.4379 27.9483 68.474Z" fill="black"/>
</g>
</g>
</g>
<g id="Group_11">
<g id="Group_12">
<g id="Group_13">
<path id="Vector_9" d="M36.6492 55.1554C36.5046 55.1825 36.3871 55.2503 36.3058 55.3723C36.2245 55.4897 36.1929 55.6434 36.2245 55.7879C37.11 60.6765 34.1959 66.3241 32.7682 67.0018C31.8103 67.4672 31.3405 67.0244 30.6492 65.7684C30.3103 65.1675 29.9127 64.4762 29.2215 64.7292C28.5664 64.9551 28.4896 65.5515 28.4308 66.0801C28.3766 66.8617 28.1191 67.6072 27.6718 68.2714C27.5679 68.425 27.2019 68.3753 27.1251 68.2759C25.6703 65.9039 24.9926 66.0666 24.735 66.1163C24.3058 66.1976 24.0573 66.6042 24.0257 67.2729C24.0618 68.4385 24.8344 69.4596 25.9549 69.8166C26.2576 69.9205 26.5784 69.9656 26.8947 69.934C27.0709 70.0741 27.3013 70.1057 27.5001 69.9928C27.6221 69.925 27.7034 69.8075 27.7486 69.6629C28.0784 69.4641 28.3676 69.1885 28.5844 68.8632C29.0724 68.1765 29.3796 67.3903 29.4519 66.55C29.4971 66.2292 29.6552 66.2111 29.7004 66.2925C30.2245 67.2413 31.1959 68.9626 33.2561 67.9732C33.9203 67.5756 34.476 67.0108 34.86 66.3286C36.473 63.9431 37.982 59.5018 37.2682 55.5982C37.2546 55.4672 37.1733 55.3361 37.0513 55.2548C36.9429 55.1554 36.7893 55.1283 36.6492 55.1554ZM26.1266 68.7187C25.5664 68.4882 25.1688 67.9732 25.11 67.3632C25.4896 67.7925 25.8284 68.2443 26.1447 68.7322L26.1266 68.7187Z" fill="black"/>
</g>
</g>
</g>
<g id="Group_14">
<g id="Group_15">
<g id="Group_16">
<path id="Vector_10" d="M44.4412 47.0067C44.1385 47.0338 43.9171 47.2778 43.9442 47.5805C43.9352 47.6844 44.4276 57.1769 39.0602 58.2522C37.4156 58.582 36.4081 55.8756 36.4081 55.8485C36.2951 55.5729 35.9969 55.4419 35.7123 55.5413C35.4412 55.6543 35.2921 55.9389 35.3915 56.2235C35.4276 56.3681 36.7108 59.8064 39.2635 59.3049C40.4472 59.079 41.5406 58.4645 42.3448 57.5564C45.3493 54.2853 45.0195 47.8696 45.0014 47.5217C44.9969 47.3772 44.9472 47.2461 44.8433 47.1467C44.7213 47.0654 44.5903 46.9976 44.4412 47.0067ZM34.3614 55.5865C34.4156 55.5232 34.4562 55.4509 34.4834 55.3606C34.6325 54.832 34.6822 54.2898 34.6596 53.7386C34.6325 53.4359 34.3749 53.2281 34.0858 53.2371C33.7831 53.2687 33.5572 53.5082 33.5888 53.8154C33.6069 54.2491 33.5526 54.6738 33.4397 55.0985C33.3764 55.3199 33.4894 55.591 33.6972 55.6994C33.9186 55.8214 34.1942 55.7672 34.3614 55.5865Z" fill="black"/>
</g>
</g>
</g>
<g id="Group_17">
<g id="Group_18">
<g id="Group_19">
<path id="Vector_11" d="M56.7308 37.8668C56.4281 37.8172 56.1434 38.0205 56.0982 38.3232C56.0847 38.4135 54.7925 46.519 50.288 46.9662C48.4988 47.1425 46.7097 45.5205 46.7006 45.5069C46.529 45.3262 46.2669 45.2991 46.05 45.4211C45.8603 45.5476 45.7473 45.8006 45.797 46.0265C46.3889 48.2946 46.7729 51.4798 46.2082 51.534C46.1766 51.5611 46.0636 51.5521 45.9235 51.4753C45.3046 51.1048 44.9025 50.4768 44.7714 49.7629C44.3738 48.0235 44.7669 46.2253 45.8377 44.8021C45.9552 44.653 45.9778 44.4497 45.91 44.269C45.8377 44.0837 45.6615 43.9662 45.4763 43.9301C45.2865 43.9256 45.1058 43.9934 44.9838 44.1425C43.6961 45.8187 43.2488 47.9783 43.7232 50.0295C43.922 51.0596 44.5726 51.9632 45.4808 52.4693C45.9235 52.7178 46.4838 52.6906 46.8814 52.3653L46.8994 52.3563C47.6675 51.7057 47.8528 49.9391 47.672 48.3443C47.6494 48.15 47.7398 47.9693 47.8979 47.8699C48.0425 47.7524 48.2323 47.7298 48.3994 47.8066C49.0365 48.0325 49.7142 48.1184 50.3784 48.028C55.7413 47.5265 57.1058 38.8563 57.1781 38.4813C57.1916 38.3367 57.1464 38.1876 57.0696 38.0928C56.9973 37.9662 56.8573 37.894 56.7308 37.8668Z" fill="black"/>
</g>
</g>
</g>
<g id="Group_20">
<g id="Group_21">
<g id="Group_22">
<path id="Vector_12" d="M70.8627 30.0483C70.7136 30.0348 70.578 30.0438 70.4515 30.1116C70.334 30.2019 70.2392 30.3239 70.2166 30.455C70.1849 30.5227 68.581 36.9429 64.3792 37.467C63.4214 37.4806 62.4997 37.2185 61.6774 36.7125C61.4018 36.5589 61.0901 36.4233 60.7557 36.3285C60.3627 36.1703 59.9154 36.211 59.5268 36.4007C58.569 36.839 57.7964 38.0724 57.1639 40.0694C57.1503 40.1236 57.1051 40.1733 57.0328 40.1643C56.9696 40.1779 56.8928 40.1282 56.8792 40.0604L56.2964 38.0815C56.2286 37.7923 55.9169 37.6116 55.6368 37.6974C55.3521 37.7833 55.194 38.086 55.2618 38.3751L56.5494 42.8119C56.6172 43.0559 56.8431 43.2095 57.0916 43.1914C57.3491 43.1914 57.5524 43.0062 57.6066 42.7622C58.447 38.6056 59.5178 37.6523 59.938 37.3947C60.3581 37.1372 60.941 37.5438 61.203 37.6794C62.197 38.2803 63.3491 38.5785 64.4967 38.5288C69.4349 37.9279 71.1789 31.0016 71.2512 30.7035C71.328 30.4233 71.1428 30.1297 70.8627 30.0483Z" fill="black"/>
</g>
</g>
</g>
<g id="Group_23">
<g id="Group_24">
<g id="Group_25">
<path id="Vector_13" d="M85.2925 25.4679C85.0214 25.3233 84.6871 25.4182 84.5425 25.6847C84.5018 25.766 80.5395 32.9588 76.1479 31.8519C74.4084 31.4136 73.2744 29.2811 73.2654 29.263C73.166 29.0371 72.931 28.9242 72.6825 28.9648C72.4657 29.0191 72.2714 29.2179 72.2443 29.4438C72.0319 31.7841 71.3136 34.9061 70.7669 34.7706C70.7262 34.7841 70.6223 34.7344 70.5139 34.617C70.0621 34.0567 69.8949 33.3338 70.0169 32.6154C70.2247 30.8444 71.2051 29.2856 72.6961 28.3097C72.8542 28.2103 72.9446 28.0251 72.9446 27.8308C72.9401 27.6365 72.8136 27.4603 72.6509 27.3654C72.4747 27.2977 72.2804 27.2977 72.1178 27.3971C70.3377 28.5401 69.1856 30.4242 68.9325 32.5115C68.7744 33.5507 69.0771 34.617 69.7639 35.4031C70.0982 35.7871 70.6313 35.9498 71.1148 35.7826L71.1374 35.7736C72.0816 35.4212 72.8542 33.8263 73.2202 32.263C73.2654 32.0733 73.4145 31.9332 73.5952 31.8926C73.7714 31.8293 73.9566 31.8745 74.0922 32.001C74.6118 32.4302 75.2172 32.742 75.8768 32.882C81.0907 34.2239 85.3106 26.5296 85.5048 26.1998C85.5681 26.0688 85.5771 25.9106 85.5365 25.7977C85.5094 25.6531 85.4054 25.5401 85.2925 25.4679Z" fill="black"/>
</g>
</g>
</g>
<g id="Group_26">
<g id="Group_27">
<g id="Group_28">
<path id="Vector_14" d="M104.77 25.2704C105.628 21.5385 102.1 18.5746 98.7023 15.683C95.4628 12.9406 92.377 10.3291 93.502 7.46015C94.3378 5.27792 97.4688 5.22371 99.2625 5.39088C104.074 5.86527 109.577 8.75684 109.988 11.0114C110.119 11.8246 109.546 12.5565 108.244 13.1891C106.406 13.8713 104.449 14.1514 102.497 14.0611C102.208 14.043 101.96 14.2734 101.946 14.5626C101.933 14.8562 102.159 15.1002 102.452 15.1364C104.589 15.2538 106.704 14.9195 108.723 14.1605C110.937 13.0942 111.208 11.7478 111.046 10.8306C110.499 7.74479 104.309 4.81256 99.3709 4.32913C95.7475 3.97672 93.3167 4.95714 92.4944 7.07612C91.0848 10.6499 94.6179 13.6364 98.011 16.5099C101.165 19.1755 104.427 21.9361 103.735 25.0355C103.293 26.9918 100.139 27.9586 97.4191 28.0174C94.6179 28.0852 92.3363 27.2809 92.002 26.1108C91.8258 25.4873 91.9975 23.7388 97.2384 20.7478C97.3965 20.6529 97.505 20.4767 97.505 20.2689C97.5095 20.0836 97.4101 19.8849 97.2339 19.799C97.0622 19.7086 96.8544 19.7086 96.7008 19.8035C92.3589 22.2839 90.4342 24.4978 90.9538 26.3909C91.5366 28.4873 94.8167 29.1605 97.4553 29.0882C97.7625 29.0836 98.0743 29.0746 98.3815 29.0475C101.165 28.7945 104.223 27.6966 104.77 25.2704Z" fill="black"/>
</g>
</g>
</g>
<g id="Group_29">
<g id="Group_30">
<g id="Group_31">
<path id="Vector_15" d="M123.013 24.6914C122.828 24.4519 122.48 24.3977 122.259 24.5875C122.191 24.6417 115.64 29.6161 112.062 26.7923C110.67 25.6853 110.503 23.2772 110.507 23.2591C110.485 23.0061 110.318 22.8073 110.074 22.7441C109.852 22.7079 109.617 22.8119 109.495 23.0061C108.33 25.0528 106.595 27.2983 105.958 27.2667C105.917 27.2622 105.84 27.1718 105.791 27.0227C105.587 26.5302 105.732 25.7802 106.17 24.9941C106.825 23.8329 108.262 22.4685 110.354 22.1522C110.648 22.1116 110.855 21.8405 110.797 21.5468C110.76 21.235 110.489 21.0453 110.196 21.0859C107.729 21.4745 106.003 23.0784 105.221 24.479C104.616 25.5408 104.462 26.6206 104.788 27.4338C105.077 28.1206 105.52 28.3013 105.867 28.3284L105.885 28.3329C106.812 28.3917 107.919 27.226 108.849 26.0061C109.197 25.5408 109.916 25.5814 110.182 26.0965C110.467 26.6567 110.851 27.2079 111.393 27.6236C115.608 30.976 122.62 25.6718 122.91 25.4459C123.149 25.2606 123.199 24.9173 123.013 24.6914ZM109.432 20.1326C109.536 20.1417 109.617 20.1281 109.703 20.092C111.316 19.342 111.709 18.3254 111.8 17.7742C111.895 17.1236 111.7 16.4866 111.262 16.0799C111.032 15.8721 110.702 15.8856 110.498 16.0935C110.295 16.3058 110.304 16.6582 110.517 16.8616C110.67 16.9971 110.792 17.2546 110.742 17.6025C110.693 17.9278 110.413 18.5649 109.251 19.107C108.994 19.229 108.863 19.5453 108.985 19.8254C109.071 19.9971 109.247 20.1146 109.432 20.1326Z" fill="black"/>
</g>
</g>
</g>
<g id="Group_32">
<g id="Group_33">
<g id="Group_34">
<path id="Vector_16" d="M145.789 32.0186C145.726 31.8876 145.622 31.8108 145.491 31.743C145.355 31.6933 145.201 31.7069 145.07 31.7702C141.135 33.6135 136.518 33.112 134.927 31.9238C133.586 30.9072 133.369 29.2852 133.567 27.722C133.626 27.3741 133.793 27.0804 134.06 26.8726C137.774 23.728 142.238 18.8846 141.867 17.2084C141.781 16.8289 141.483 16.5533 141.095 16.481C138.849 15.9976 135.442 19.8153 133.68 23.6647C133.305 24.4915 133.012 25.3274 132.777 26.1813C132.7 26.4614 132.551 26.7144 132.311 26.8906C132.126 27.0442 131.918 27.2114 131.715 27.356C129.122 29.2807 127.671 29.6873 127.211 29.4614C126.962 29.353 126.808 29.1045 126.836 28.8515C126.985 27.7942 127.572 26.8635 128.421 26.2491C129 25.9057 129.79 25.5714 130.333 25.8921C130.626 26.1045 130.811 26.4524 130.839 26.8093C130.802 27.103 130.983 27.3831 131.272 27.4418C131.557 27.4961 131.837 27.3108 131.9 27.0081C131.95 26.24 131.616 25.5126 130.992 25.0563C130.459 24.6542 129.461 24.3921 127.875 25.3138C127.003 25.8153 125.715 27.5006 125.756 28.8876C125.742 29.5382 126.126 30.1301 126.7 30.4147C126.759 30.4373 126.836 30.4644 126.894 30.4825C127.924 30.8439 129.61 30.1933 131.909 28.5352C131.995 28.481 132.131 28.4629 132.244 28.5217C132.357 28.5623 132.429 28.6753 132.433 28.7837C132.366 30.3515 133.066 31.8379 134.281 32.7867C136.319 34.3048 141.424 34.6527 145.536 32.737C145.798 32.6105 145.906 32.3033 145.789 32.0186ZM134.674 24.1211C136.229 20.6783 138.736 18.0533 140.254 17.5789C140.372 17.5563 140.512 17.5834 140.602 17.7009C140.679 17.7958 140.697 17.9313 140.656 18.0488C139.965 19.4629 137.986 21.7536 134.837 24.5277C134.349 24.9253 134.512 24.4599 134.674 24.1211Z" fill="black"/>
</g>
</g>
</g>
<g id="Group_35">
<g id="Group_36">
<g id="Group_37">
<path id="Vector_17" d="M159.144 39.3659C159.103 39.2259 159.04 39.0903 158.914 39.018C158.801 38.9322 158.652 38.896 158.525 38.9141C158.421 38.9277 148.432 40.4819 144.036 34.8614C143.15 33.7183 143.448 33.0632 143.679 32.7424C143.71 32.6882 143.76 32.643 143.832 32.6385C143.887 32.625 143.959 32.6656 144.004 32.7153C145.124 33.4472 146.457 33.8042 147.817 33.7454C148.987 33.6822 149.475 33.1536 149.647 32.7289C149.977 32.0647 149.755 31.256 149.105 30.8584C147.731 29.9864 144.415 30.3207 143.005 31.884C142.468 32.4578 141.777 33.7183 143.191 35.5165C144.049 36.6189 145.111 37.5045 146.308 38.1867C151.436 41.1054 158.335 40.0391 158.697 39.9849C158.828 39.9623 158.968 39.881 159.031 39.7725C159.117 39.6551 159.153 39.5105 159.144 39.3659ZM145.034 31.8569C146.281 31.2876 147.808 31.3057 148.509 31.7756C148.707 31.8885 148.775 32.0195 148.658 32.3087C148.572 32.4985 148.233 32.6385 147.745 32.6656C146.737 32.7289 144.09 32.268 145.034 31.8569Z" fill="black"/>
</g>
</g>
</g>
<g id="Group_38">
<g id="Group_39">
<g id="Group_40">
<path id="Vector_18" d="M168.709 54.0782C169.075 54.2815 169.405 54.5662 169.608 54.9321C172.771 60.2138 177.154 65.8839 184.428 67.2755C184.726 67.3433 184.992 67.1445 185.056 66.8418C185.11 66.5526 184.925 66.277 184.636 66.2273C178.559 65.0526 174.678 60.8237 171.696 56.2559C171.605 56.1204 171.619 55.9171 171.718 55.777C171.831 55.6234 172.026 55.5692 172.197 55.637C175.581 56.7665 179.539 57.0511 183.506 57.0601C184.017 57.0511 184.523 57.268 184.92 57.6023L185.182 57.8418C191.81 63.7198 201.755 62.9201 204.185 61.0225C205.098 60.3177 204.863 59.5993 204.723 59.3101C202.735 55.4879 196.364 55.6776 189 55.8809C187.875 55.9306 186.709 55.9577 185.553 55.9713C185.042 55.9803 184.55 55.7815 184.211 55.4201C180.651 51.7559 179.476 48.4306 180.944 46.1038C182.453 43.7273 186.669 42.8915 189.917 44.3011C190.184 44.4231 190.514 44.3056 190.636 44.0345C190.749 43.7544 190.622 43.4517 190.355 43.3297C186.574 41.6716 181.861 42.6882 180.041 45.5255C179.02 47.1114 178.206 50.3327 182.602 55.2845C182.711 55.4111 182.724 55.5873 182.657 55.7273C182.602 55.8809 182.449 55.9577 182.291 55.9623C178.17 55.899 174.117 55.4472 170.923 53.9698L170.639 53.8297C170.245 53.6535 169.947 53.3689 169.739 53.0029C169.315 52.2574 168.904 51.5255 168.52 50.8252C166.274 46.7635 164.489 43.5556 162.032 43.4427C161.44 43.3839 160.916 43.7815 160.785 44.3553C160.5 45.2228 160.672 47.2198 162.696 49.5737C164.404 51.4351 166.45 52.9623 168.709 54.0782ZM164.191 45.9231C165.511 47.6129 166.64 49.4336 167.575 51.3403C168.045 52.262 167.684 52.2529 167.517 52.149C162.402 48.9818 161.883 46.0135 161.756 45.3629C161.666 44.8433 161.81 44.6354 161.95 44.5135C162.357 44.1656 163.455 45.0647 164.191 45.9231ZM203.295 59.1294C203.467 59.3327 203.639 59.5632 203.77 59.8071C203.815 59.9291 203.661 60.0601 203.521 60.1821C201.8 61.524 193.188 62.64 186.831 57.8056C186.678 57.6927 186.619 57.4984 186.678 57.3132C186.718 57.1415 186.89 57.0195 187.08 57.0195C187.739 56.9969 188.395 56.9743 189.036 56.9653C195.497 56.78 201.136 56.6219 203.295 59.1294Z" fill="black"/>
</g>
</g>
</g>
<g id="Group_41">
<g id="Group_42">
<g id="Group_43">
<path id="Vector_19" d="M191.04 79.6628C191.126 79.3691 190.981 79.0754 190.688 78.9896C190.593 78.9444 181.561 75.976 182.496 70.5814C182.781 68.9278 185.668 68.9685 185.695 68.9775C185.993 68.973 186.224 68.7426 186.233 68.4399C186.224 68.1462 186.016 67.9067 185.713 67.8932C185.564 67.8751 181.896 67.8299 181.444 70.3917C181.227 71.5799 181.403 72.8179 181.959 73.8977C183.924 77.8826 190.028 79.8887 190.358 80.0016C190.498 80.0468 190.634 80.0468 190.765 79.9836C190.882 79.9022 190.995 79.8028 191.04 79.6628ZM186.68 67.1658C186.716 67.2381 186.771 67.3013 186.847 67.3555C187.286 67.6899 187.774 67.9339 188.293 68.1101C188.587 68.1959 188.876 68.0287 188.966 67.7531C189.052 67.4595 188.908 67.1658 188.614 67.0799C188.198 66.9399 187.823 66.7366 187.466 66.479C187.281 66.339 186.987 66.348 186.811 66.5016C186.621 66.6688 186.572 66.9444 186.68 67.1658Z" fill="black"/>
</g>
</g>
</g>
<g id="Group_44">
<g id="Group_45">
<g id="Group_46">
<path id="Vector_20" d="M196.669 99.5672C196.782 99.2961 196.647 98.9753 196.38 98.8578C196.308 98.8352 189.657 95.9979 190.827 91.2629C191.049 90.6214 191.442 90.0611 191.97 89.6681C192.612 89.0762 193.389 88.3578 192.824 87.1515C192.535 86.528 191.415 85.7644 190.217 85.1907C190.15 85.1681 190.105 85.0958 190.109 85.028C190.109 84.9647 190.132 84.8925 190.213 84.8699C191.053 84.4542 191.632 83.6455 191.745 82.7102C191.727 81.9873 191.609 80.8443 188.699 79.2313C188.568 79.141 188.559 78.9693 188.722 78.9422C188.803 78.9196 190.516 78.8518 190.516 78.8518C190.809 78.8292 191.035 78.5717 191.035 78.2735C191.013 77.9798 190.755 77.7539 190.457 77.7539L186.011 78.0205C185.758 78.0295 185.555 78.2147 185.501 78.4678C185.473 78.7343 185.605 78.9738 185.844 79.0551C189.928 80.7358 190.624 81.9467 190.701 82.5024C190.755 83.0626 189.897 84.0837 188.157 84.5039C187.918 84.5762 187.742 84.775 187.751 85.028C187.742 85.2901 187.909 85.4979 188.144 85.5566C189.761 85.9678 191.618 87.1379 191.844 87.6078C192.061 88.0596 191.921 88.2494 191.248 88.8729C190.543 89.4015 190.032 90.147 189.784 90.9919C189.535 91.9632 189.531 92.9934 189.815 93.9602C190.909 97.7283 195.698 99.7614 195.96 99.8563C196.231 99.9738 196.556 99.8337 196.669 99.5672Z" fill="black"/>
</g>
</g>
</g>
<g id="Group_47">
<g id="Group_48">
<g id="Group_49">
<path id="Vector_21" d="M197.174 114.726C197.382 114.5 197.373 114.153 197.151 113.945C197.083 113.886 191.092 108.27 193.248 104.29C194.106 102.708 196.451 102.139 196.469 102.135C196.713 102.094 196.885 101.895 196.903 101.647C196.903 101.416 196.763 101.181 196.546 101.1C194.332 100.318 191.485 98.8499 191.752 98.3484C191.748 98.3077 191.824 98.2219 191.96 98.1451C192.615 97.8423 193.36 97.8604 194.025 98.1541C195.692 98.8002 196.961 100.133 197.535 101.818C197.594 101.999 197.748 102.13 197.937 102.175C198.127 102.22 198.33 102.144 198.461 102.008C198.57 101.854 198.62 101.665 198.561 101.484C197.892 99.4779 196.356 97.8966 194.391 97.133C193.428 96.7219 192.317 96.7535 191.386 97.2279C190.93 97.4493 190.641 97.9282 190.686 98.4433V98.4613C190.794 99.4643 192.15 100.607 193.577 101.353C193.749 101.439 193.848 101.619 193.844 101.805C193.857 101.99 193.767 102.162 193.613 102.257C193.067 102.654 192.615 103.169 192.317 103.77C189.728 108.491 196.144 114.482 196.415 114.749C196.523 114.844 196.672 114.894 196.794 114.88C196.943 114.889 197.079 114.817 197.174 114.726Z" fill="black"/>
</g>
</g>
</g>
<g id="Group_50">
<g id="Group_51">
<g id="Group_52">
<path id="Vector_22" d="M14.5523 157.398L13.8655 156.296L24.1487 149.88L26.227 153.223C26.9589 154.416 27.2797 155.5 27.1848 156.476C27.099 157.461 26.5613 158.265 25.5764 158.88C24.6005 159.481 23.6246 159.612 22.6487 159.277C21.6728 158.952 20.7375 158.076 19.8475 156.657L18.7089 154.814L14.5523 157.398ZM25.233 153.693L23.9137 151.561L19.6667 154.217L20.8414 156.133C21.5146 157.204 22.1788 157.854 22.8294 158.085C23.48 158.324 24.1667 158.22 24.8896 157.777C25.599 157.33 25.9785 156.77 26.0282 156.097C26.0869 155.433 25.8204 154.633 25.233 153.693Z" fill="black"/>
</g>
</g>
</g>
<g id="Group_53">
<g id="Group_54">
<g id="Group_55">
<path id="Vector_23" d="M24.0233 171.088C22.311 169.014 22.329 167.09 24.0775 165.305L24.9812 166.136C24.3667 166.895 24.0504 167.605 24.0414 168.269C24.0414 168.942 24.3577 169.66 24.9992 170.419C25.5278 171.07 26.0881 171.454 26.6799 171.576C27.2809 171.693 27.8411 171.54 28.3607 171.106C28.695 170.826 28.9028 170.532 28.9751 170.221C29.0474 169.904 29.0158 169.538 28.8848 169.118C28.7492 168.693 28.5459 168.206 28.2703 167.654C27.9179 166.968 27.6559 166.335 27.4751 165.757C27.3034 165.169 27.2944 164.614 27.439 164.094C27.5926 163.579 27.9812 163.064 28.5956 162.558C29.1016 162.138 29.6619 161.889 30.2763 161.817C30.8998 161.736 31.5143 161.826 32.1197 162.088C32.7206 162.341 33.2583 162.757 33.7281 163.335C34.4013 164.144 34.7312 164.989 34.7221 165.865C34.7086 166.746 34.3516 167.546 33.6559 168.269L32.7703 167.546C33.2763 166.922 33.5293 166.331 33.5293 165.775C33.5384 165.21 33.3125 164.636 32.8426 164.058C32.3366 163.457 31.7763 163.114 31.1619 163.028C30.5565 162.933 29.9917 163.1 29.4631 163.534C28.8848 164.017 28.6182 164.546 28.6679 165.124C28.7131 165.703 28.9751 166.434 29.445 167.311C29.8065 167.998 30.0595 168.617 30.204 169.172C30.3577 169.737 30.3667 170.257 30.2221 170.727C30.0775 171.206 29.7387 171.671 29.2101 172.118C28.6905 172.538 28.1257 172.773 27.5113 172.823C26.9059 172.868 26.3004 172.742 25.686 172.443C25.0806 172.154 24.5293 171.703 24.0233 171.088Z" fill="black"/>
</g>
</g>
</g>
<g id="Group_56">
<g id="Group_57">
<g id="Group_58">
<path id="Vector_24" d="M30.9549 178.481L39.4669 169.843L40.4067 170.764L31.8946 179.403L30.9549 178.481Z" fill="black"/>
</g>
</g>
</g>
<g id="Group_59">
<g id="Group_60">
<g id="Group_61">
<path id="Vector_25" d="M45.8916 188.237C45.0467 188.598 44.1838 188.698 43.3073 188.544C42.4398 188.386 41.613 188.002 40.8314 187.387C39.9368 186.674 39.3178 185.874 38.9699 184.984C38.6175 184.103 38.5407 183.177 38.735 182.201C38.9383 181.216 39.4262 180.24 40.1988 179.273C40.994 178.275 41.8841 177.547 42.8735 177.086C43.8585 176.616 44.866 176.449 45.8916 176.58C46.9127 176.702 47.8796 177.118 48.7832 177.827C49.5151 178.406 50.0482 179.074 50.3735 179.833C50.7079 180.583 50.8118 181.378 50.6808 182.219L49.3976 182.201C49.6235 180.818 49.1537 179.666 47.988 178.749C47.3013 178.198 46.5603 177.89 45.7651 177.827C44.979 177.755 44.1928 177.913 43.3976 178.297C42.6115 178.686 41.8976 179.287 41.247 180.104C40.3163 181.288 39.8826 182.431 39.9458 183.538C40.0046 184.645 40.5512 185.607 41.5904 186.43C42.8555 187.428 44.1838 187.627 45.5844 187.026L45.8916 188.237Z" fill="black"/>
</g>
</g>
</g>
<g id="Group_62">
<g id="Group_63">
<g id="Group_64">
<path id="Vector_26" d="M53.5896 195.898C52.6137 195.342 51.8817 194.656 51.4028 193.838C50.9194 193.016 50.7025 192.116 50.7522 191.127C50.7974 190.128 51.1363 189.08 51.7643 187.982C52.3878 186.889 53.1558 186.04 54.0594 185.434C54.9721 184.833 55.9435 184.508 56.9691 184.458C57.9902 184.413 59.0022 184.671 60.0052 185.235C60.9314 185.755 61.6182 186.437 62.0655 187.278C62.5082 188.109 62.707 189.022 62.6619 190.006C62.6122 190.996 62.2914 192.012 61.704 193.061C61.0534 194.204 60.2763 195.071 59.3727 195.663C58.4691 196.264 57.5158 196.589 56.5173 196.639C55.5278 196.684 54.5519 196.44 53.5896 195.898ZM54.204 194.832C54.9495 195.252 55.704 195.437 56.4631 195.392C57.2311 195.356 57.9676 195.085 58.6679 194.579C59.3637 194.073 59.9872 193.336 60.5293 192.374C60.9992 191.534 61.2703 190.725 61.3426 189.952C61.4149 189.171 61.2884 188.466 60.9631 187.838C60.6378 187.214 60.1227 186.699 59.4269 186.302C58.6543 185.868 57.8727 185.678 57.0775 185.723C56.2823 185.759 55.5143 186.031 54.7823 186.537C54.0594 187.034 53.436 187.738 52.9209 188.651C52.1709 189.979 51.9179 191.181 52.1619 192.266C52.4013 193.336 53.0835 194.19 54.204 194.832ZM59.7884 183.808L62.9691 182.127L63.945 183.121L60.7823 184.368L59.7884 183.808Z" fill="black"/>
</g>
</g>
</g>
<g id="Group_65">
<g id="Group_66">
<g id="Group_67">
<path id="Vector_27" d="M64.6468 201.219L69.0926 189.941L70.3215 190.429L66.2914 200.64L71.5685 202.719L71.0263 203.731L64.6468 201.219Z" fill="black"/>
</g>
</g>
</g>
<g id="Group_68">
<g id="Group_69">
<g id="Group_70">
<path id="Vector_28" d="M81.2961 206.841C80.2118 206.574 79.3172 206.109 78.6214 205.449C77.9346 204.799 77.4738 203.994 77.2479 203.028C77.0175 202.065 77.0491 200.967 77.3383 199.738C77.6364 198.51 78.138 197.479 78.8383 196.648C79.5476 195.808 80.3925 195.229 81.3684 194.913C82.3443 194.588 83.3925 194.561 84.513 194.823C85.534 195.067 86.3789 195.523 87.0431 196.196C87.7163 196.86 88.1636 197.678 88.3804 198.654C88.6063 199.63 88.5792 200.71 88.2901 201.889C87.9874 203.168 87.4858 204.216 86.7901 205.034C86.1033 205.851 85.281 206.416 84.3322 206.732C83.3789 207.058 82.3669 207.094 81.2961 206.841ZM81.5852 205.648C82.4166 205.838 83.1937 205.811 83.9166 205.558C84.6395 205.305 85.263 204.844 85.7961 204.166C86.3383 203.479 86.7404 202.603 87.0069 201.528C87.2238 200.588 87.2509 199.738 87.0973 198.979C86.9527 198.211 86.6365 197.57 86.1575 197.064C85.6741 196.549 85.0416 196.192 84.2599 195.997C83.4015 195.794 82.5973 195.826 81.8383 196.088C81.0792 196.354 80.4151 196.824 79.8503 197.497C79.2946 198.175 78.8925 199.025 78.6395 200.046C78.2871 201.519 78.3774 202.747 78.9105 203.732C79.4392 204.708 80.3292 205.345 81.5852 205.648Z" fill="black"/>
</g>
</g>
</g>
<g id="Group_71">
<g id="Group_72">
<g id="Group_73">
<path id="Vector_29" d="M99.6566 203.551L103.849 203.876L103.416 209.732L102.422 209.659L102.367 208.015C101.5 209.135 100.19 209.628 98.4458 209.497C97.3614 209.424 96.4307 209.117 95.6626 208.575C94.9036 208.033 94.3298 207.305 93.9458 206.388C93.5708 205.476 93.4307 204.391 93.5301 203.135C93.625 201.861 93.9548 200.759 94.5241 199.828C95.1024 198.902 95.8524 198.201 96.7831 197.732C97.7093 197.253 98.7801 197.058 100 197.153C101.952 197.298 103.307 198.161 104.066 199.738L102.982 200.424C102.413 199.173 101.364 198.491 99.8373 198.382C98.9202 198.31 98.1024 198.468 97.3795 198.852C96.6656 199.227 96.0873 199.792 95.6446 200.551C95.2108 201.31 94.9578 202.209 94.8855 203.244C94.7771 204.762 95.0482 205.963 95.6988 206.84C96.3584 207.707 97.3434 208.191 98.6446 208.286C99.7515 208.372 100.651 208.159 101.337 207.653C102.024 207.138 102.404 206.402 102.476 205.448L102.53 204.852L99.5843 204.617L99.6566 203.551Z" fill="black"/>
</g>
</g>
</g>
<g id="Group_74">
<g id="Group_75">
<g id="Group_76">
<path id="Vector_30" d="M108.989 209.748L113.073 197.26L114.212 197.188L119.977 208.898L118.64 208.989L117.14 205.862L111.411 206.314L110.344 209.639L108.989 209.748ZM111.736 205.175L116.634 204.796L113.76 198.85L111.736 205.175Z" fill="black"/>
</g>
</g>
</g>
<g id="Group_77">
<g id="Group_78">
<g id="Group_79">
<path id="Vector_31" d="M141.909 201.172C141.737 202.067 141.34 202.83 140.716 203.467C140.088 204.096 139.293 204.561 138.331 204.859C137.233 205.184 136.221 205.239 135.295 205.022C134.364 204.796 133.56 204.326 132.873 203.612C132.195 202.889 131.68 201.931 131.319 200.739C130.948 199.523 130.849 198.38 131.03 197.305C131.21 196.234 131.64 195.312 132.313 194.54C132.999 193.772 133.89 193.216 134.987 192.877C135.877 192.602 136.727 192.543 137.536 192.696C138.353 192.855 139.072 193.23 139.686 193.817L138.963 194.847C137.938 193.885 136.722 193.614 135.313 194.034C134.468 194.3 133.795 194.739 133.289 195.353C132.783 195.967 132.462 196.708 132.331 197.576C132.195 198.434 132.281 199.356 132.584 200.341C133.018 201.787 133.704 202.808 134.644 203.395C135.593 203.974 136.704 204.073 137.969 203.684C139.51 203.205 140.436 202.216 140.752 200.721L141.909 201.172Z" fill="black"/>
</g>
</g>
</g>
<g id="Group_80">
<g id="Group_81">
<g id="Group_82">
<path id="Vector_32" d="M147.783 201.242L142.777 190.199L143.988 189.657L148.524 199.669L153.675 197.32L154.036 198.404L147.783 201.242Z" fill="black"/>
</g>
</g>
</g>
<g id="Group_83">
<g id="Group_84">
<g id="Group_85">
<path id="Vector_33" d="M158.755 195.813L152.719 185.295L153.858 184.626L159.894 195.145L158.755 195.813ZM152.087 184.157L152.268 180.56L153.605 180.217L153.081 183.578L152.087 184.157Z" fill="black"/>
</g>
</g>
</g>
<g id="Group_86">
<g id="Group_87">
<g id="Group_88">
<path id="Vector_34" d="M165.155 176.967L166.167 176.208L173.378 185.949L172.492 186.618L160.908 182.859L166.8 190.828L165.788 191.569L158.577 181.828L159.498 181.16L171.047 184.919L165.155 176.967Z" fill="black"/>
</g>
</g>
</g>
<g id="Group_89">
<g id="Group_90">
<g id="Group_91">
<path id="Vector_35" d="M178.521 181.368L170.244 172.512L171.22 171.627L179.497 180.482L178.521 181.368Z" fill="black"/>
</g>
</g>
</g>
<g id="Group_92">
<g id="Group_93">
<g id="Group_94">
<path id="Vector_36" d="M188.865 166.822C189.199 167.69 189.271 168.557 189.082 169.425C188.887 170.283 188.467 171.087 187.817 171.846C187.067 172.714 186.244 173.306 185.341 173.617C184.437 173.934 183.502 173.97 182.54 173.726C181.577 173.486 180.624 172.962 179.684 172.153C178.722 171.322 178.03 170.41 177.606 169.407C177.186 168.408 177.059 167.396 177.226 166.37C177.384 165.349 177.836 164.4 178.582 163.533C179.187 162.824 179.874 162.318 180.642 162.015C181.415 161.717 182.223 161.644 183.064 161.798L182.991 163.081C181.609 162.806 180.434 163.226 179.467 164.346C178.902 165.024 178.573 165.751 178.473 166.533C178.365 167.319 178.491 168.114 178.853 168.919C179.205 169.727 179.77 170.468 180.552 171.141C181.699 172.117 182.824 172.601 183.931 172.587C185.038 172.578 186.018 172.063 186.877 171.051C187.925 169.822 188.183 168.503 187.654 167.093L188.865 166.822Z" fill="black"/>
</g>
</g>
</g>
<g id="Group_95">
<g id="Group_96">
<g id="Group_97">
<path id="Vector_37" d="M193.328 164.725L185.774 153.972L186.388 153.014L199.219 155.399L198.497 156.538L195.081 155.869L192.009 160.731L194.051 163.568L193.328 164.725ZM191.304 159.755L193.924 155.616L187.454 154.387L191.304 159.755Z" fill="black"/>
</g>
</g>
</g>
</g>
</svg>
