<svg width="103" height="107" viewBox="0 0 103 107" fill="none" xmlns="http://www.w3.org/2000/svg">
<g id="online ">
<path id="Vector" d="M50.4041 37.092C55.8045 37.092 60.0373 32.7049 60.0373 27.4408C60.0373 22.1766 55.8045 17.7896 50.4041 17.7896C45.0054 17.7896 40.7726 22.1766 40.7726 27.4408C40.7726 32.7049 45.1507 37.092 50.4041 37.092ZM50.4041 19.9831C54.4916 19.9831 57.8474 23.3471 57.8474 27.4408C57.8474 31.536 54.4916 34.8985 50.4041 34.8985C46.3183 34.8985 42.9625 31.536 42.9625 27.4408C42.9625 23.3471 46.3183 19.9831 50.4041 19.9831Z" fill="#A161BC"/>
<path id="Vector_2" d="M70.5744 56.4209L70.5975 56.398L70.619 56.3735C74.862 51.5314 77.6047 45.159 77.6047 38.3105C77.6047 23.2783 65.2921 10.986 50.2409 10.986C35.1913 10.986 22.8787 23.2783 22.8787 38.3105V38.3198L22.8789 38.3291C23.1814 53.1934 35.3309 65.4886 50.3873 65.4886C58.2971 65.4886 65.4346 61.998 70.4419 56.5519L70.5744 56.4209ZM50.3873 61.3116C44.0751 61.3116 38.0185 58.6471 33.7885 54.4859C36.044 47.38 42.7446 42.4542 50.3873 42.4542C58.0212 42.4542 64.598 47.3725 66.9833 54.5022C62.7651 58.7752 56.7136 61.3116 50.3873 61.3116ZM50.3873 15.0166C63.2548 15.0166 73.7165 25.4658 73.7165 38.3105C73.7165 42.9534 72.2629 47.376 69.8524 50.9765C66.4071 43.5431 58.8684 38.57 50.3873 38.57C41.9165 38.57 34.3832 43.5328 30.9341 50.9535C28.5119 47.263 27.0607 42.9522 27.0596 38.3155C27.2032 25.3135 37.5284 15.0166 50.3873 15.0166Z" fill="#A161BC" stroke="#A161BC" stroke-width="1.82985"/>
<g id="Clip path group">
<mask id="mask0_435_353" style="mask-type:luminance" maskUnits="userSpaceOnUse" x="11" y="0" width="79" height="107">
<g id="6d3a2588c4">
<path id="Vector_3" d="M14.1306 3.52162H87.0059V104.032H14.1306V3.52162Z" fill="white" stroke="white" stroke-width="5.48954"/>
</g>
</mask>
<g mask="url(#mask0_435_353)">
<g id="Group">
<path id="Vector_4" d="M65.254 97.6289C69.1226 95.704 71.4023 93.1171 71.4023 90.3803C71.4023 88.5068 70.3587 86.6596 68.3544 85.0521C66.3898 83.4763 63.5295 82.1564 59.9376 81.3079C55.339 86.6611 51.6765 90.3247 51.2072 90.7933C50.987 91.0158 50.5838 91.2132 50.1703 91.2132C49.7555 91.2132 49.3547 91.0148 49.1344 90.7941M65.254 97.6289L49.3932 90.5354M65.254 97.6289C61.4098 99.5417 56.1068 100.737 50.3251 100.737C44.5461 100.737 39.2433 99.5036 35.3981 97.5714C31.5257 95.6255 29.2479 93.0382 29.2479 90.3803C29.2479 88.508 30.2908 86.699 32.2587 85.1094C34.1859 83.5527 36.9705 82.2339 40.4119 81.3126M65.254 97.6289L40.5363 80.9012M49.1344 90.7941C49.1343 90.794 49.1342 90.794 49.1341 90.7939L49.3932 90.5354M49.1344 90.7941C49.1344 90.7942 49.1345 90.7943 49.1346 90.7944L49.3932 90.5354M49.1344 90.7941C48.6651 90.3256 45.156 86.6621 40.4119 81.3126M49.3932 90.5354C48.9272 90.0702 45.3542 86.3402 40.5363 80.9012M40.4119 81.3126C40.4839 81.2933 40.5561 81.2742 40.6287 81.2553L40.5363 80.9012M40.4119 81.3126C40.3622 81.2565 40.3123 81.2002 40.2624 81.1438L40.5363 80.9012M50.3251 3.61157C31.3225 3.61157 15.7749 19.1605 15.7749 38.1658C15.7749 44.1808 19.0885 51.5606 23.5792 58.8323C27.9689 65.9402 33.5219 73.0047 38.3391 78.6888C30.9899 80.9369 26.3409 85.43 26.3409 90.3803C26.3409 94.2243 29.0781 97.5866 33.4065 99.9673C37.7449 102.354 43.7522 103.8 50.4816 103.8C57.2109 103.8 63.2178 102.354 67.5558 99.9673C71.8838 97.5865 74.6205 94.2243 74.6205 90.3803C74.6205 87.843 73.3517 85.4214 71.1643 83.3727C69.0809 81.4215 66.1482 79.7911 62.6156 78.6899C67.3578 73.0055 72.8369 65.9396 77.1705 58.8305C81.6033 51.5586 84.877 44.1795 84.877 38.1658C84.877 19.1616 69.4869 3.61157 50.3251 3.61157ZM50.3251 6.67453C67.6819 6.67453 81.8135 20.8069 81.8135 38.1658C81.8135 42.0784 80.1664 46.7934 77.5768 51.777C74.9918 56.7519 71.4891 61.9544 67.8245 66.8313C60.7368 76.2635 53.0668 84.4467 50.3214 87.3641C47.5128 84.4538 39.8402 76.2676 32.7688 66.8317C29.1142 61.955 25.6262 56.7524 23.0534 51.7777C20.4761 46.7941 18.8384 42.0788 18.8384 38.1658C18.8384 20.8069 32.97 6.67453 50.3251 6.67453Z" fill="#A161BC" stroke="#A161BC" stroke-width="0.731938"/>
</g>
</g>
</g>
<path id="Vector_5" d="M16.1915 17.8347L16.1913 17.8351L16.2032 17.841C16.5507 18.0146 16.9159 18.0662 17.2482 17.9712C17.5833 17.8754 17.8603 17.6372 18.0383 17.2798C18.2123 16.9319 18.2643 16.5667 18.1694 16.2342C18.0743 15.9007 17.8382 15.625 17.4841 15.4467L10.808 11.5649L10.8082 11.5646L10.7963 11.5586C10.0542 11.1879 9.32464 11.5688 8.97415 12.0975L8.96714 12.108L8.96146 12.1194C8.78723 12.4666 8.7352 12.8316 8.83005 13.1641C8.92517 13.4976 9.16116 13.7737 9.51521 13.9529L16.1915 17.8347Z" fill="#A161BC" stroke="#A161BC" stroke-width="0.420864"/>
<path id="Vector_6" d="M86.6371 55.3872L86.6373 55.3868L86.6252 55.3807C86.2771 55.2073 85.9119 55.1556 85.5796 55.2507C85.2444 55.3465 84.9675 55.5846 84.7888 55.9418C84.6147 56.2897 84.5626 56.6551 84.6575 56.9876C84.7526 57.3211 84.9887 57.5969 85.3428 57.7752L92.0189 61.6569L92.0187 61.6573L92.0306 61.6632C92.3781 61.8368 92.7433 61.8884 93.0758 61.7934C93.4075 61.6986 93.6826 61.4646 93.8615 61.1136C94.2306 60.5435 94.037 59.6369 93.3117 59.269L86.6371 55.3872Z" fill="#A161BC" stroke="#A161BC" stroke-width="0.420864"/>
<g id="Clip path group_2">
<mask id="mask1_435_353" style="mask-type:luminance" maskUnits="userSpaceOnUse" x="2" y="34" width="12" height="5">
<g id="39102faed3">
<path id="Vector_7" d="M2.59018 34.8091H2.37975V35.0195V38.073V38.2835H2.59018H12.8007H13.0112V38.073V35.0195V34.8091H12.8007H2.59018Z" fill="white" stroke="white" stroke-width="0.420864"/>
</g>
</mask>
<g mask="url(#mask1_435_353)">
<g id="Group_2">
<path id="Vector_8" d="M12.9329 36.6111C12.9329 36.2497 12.7984 35.8914 12.5734 35.6212C12.3474 35.35 12.0197 35.1568 11.6341 35.1568H3.86565C3.50017 35.1568 3.17011 35.2955 2.93301 35.5562C2.69697 35.8157 2.56682 36.1804 2.56682 36.6111C2.56682 36.9726 2.70187 37.331 2.92707 37.601C3.15314 37.8721 3.48081 38.0654 3.86565 38.0654H11.6341C11.951 38.0654 12.2752 37.8635 12.5089 37.6084C12.7469 37.3485 12.9329 36.9891 12.9329 36.6111Z" fill="#A161BC" stroke="#A161BC" stroke-width="0.420864"/>
</g>
</g>
</g>
<g id="Clip path group_3">
<mask id="mask2_435_353" style="mask-type:luminance" maskUnits="userSpaceOnUse" x="89" y="35" width="12" height="4">
<g id="59f0529372">
<path id="Vector_9" d="M89.8594 35.2451H89.649V35.4556V38.0728V38.2833H89.8594H100.546H100.757V38.0728V35.4556V35.2451H100.546H89.8594Z" fill="white" stroke="white" stroke-width="0.420864"/>
</g>
</mask>
<g mask="url(#mask2_435_353)">
<g id="Group_3">
<path id="Vector_10" d="M100.57 36.7656V36.7449L100.565 36.7245C100.398 35.8859 99.8721 35.313 99.1159 35.313H91.3475C90.6266 35.313 89.8939 35.8554 89.8939 36.7656C89.8939 37.486 90.4371 38.2199 91.3475 38.2199H99.1159C99.8372 38.2199 100.57 37.6755 100.57 36.7656Z" fill="#A161BC" stroke="#A161BC" stroke-width="0.420864"/>
</g>
</g>
</g>
<path id="Vector_11" d="M16.1863 55.3902L9.51516 59.269C8.79009 59.6368 8.59619 60.5434 8.96712 61.1137C9.33581 61.8369 10.2445 62.0272 10.8132 61.6539L17.4841 57.7751C18.21 57.4088 18.4029 56.5019 18.0324 55.9305C17.6638 55.2072 16.755 55.0169 16.1863 55.3902Z" fill="#A161BC" stroke="#A161BC" stroke-width="0.420864"/>
<path id="Vector_12" d="M93.8543 12.0972L93.8542 12.097C93.5021 11.5689 92.7728 11.1879 92.0306 11.5586L92.0304 11.5582L92.0189 11.5649L85.3428 15.4467C84.6169 15.8131 84.424 16.7202 84.7946 17.2916C85.1649 18.0146 86.0718 18.205 86.6422 17.8318L93.3117 13.9528C94.0417 13.5826 94.2331 12.6665 93.8543 12.0972Z" fill="#A161BC" stroke="#A161BC" stroke-width="0.420864"/>
</g>
</svg>
