<svg width="73" height="91" viewBox="0 0 73 91" fill="none" xmlns="http://www.w3.org/2000/svg">
<g id="resultados 1" clip-path="url(#clip0_435_242)">
<g id="Clip path group">
<mask id="mask0_435_242" style="mask-type:luminance" maskUnits="userSpaceOnUse" x="6" y="61" width="25" height="30">
<g id="6d0064e6f7">
<path id="Vector" d="M6.81378 61.5342H30.8138V90.2112H6.81378V61.5342Z" fill="white"/>
</g>
</mask>
<g mask="url(#mask0_435_242)">
<g id="Group">
<path id="Vector_2" d="M26.9225 69.2432C26.66 69.2432 26.3946 69.2651 26.1335 69.3075C25.5883 69.3965 25.0331 69.4418 24.4821 69.4418C20.396 69.4418 16.6879 66.9973 15.0364 63.2152C14.7682 62.6019 14.3831 62.0557 13.91 61.603L13.8033 61.9593L7.02008 84.7163L17.81 81.5037L25.046 90.2158L30.6523 71.4059L30.8008 70.9109C30.5239 70.7298 30.2557 70.5356 29.996 70.3282C29.1263 69.6287 28.0345 69.2432 26.9225 69.2432Z" fill="#A161BC"/>
</g>
</g>
</g>
<g id="Clip path group_2">
<mask id="mask1_435_242" style="mask-type:luminance" maskUnits="userSpaceOnUse" x="41" y="62" width="25" height="29">
<g id="d7e0910e59">
<path id="Vector_3" d="M41.1522 62.6553H65.1522V90.2108H41.1522V62.6553Z" fill="white"/>
</g>
</mask>
<g mask="url(#mask1_435_242)">
<g id="Group_2">
<path id="Vector_4" d="M53.9296 68.178C52.2811 69.2235 50.3844 69.777 48.4431 69.777C47.7984 69.777 47.1479 69.7142 46.5104 69.5915C46.2075 69.5331 45.896 69.5039 45.5873 69.5039C44.5258 69.5039 43.4714 69.8587 42.6219 70.5042C42.2022 70.8225 41.7623 71.1058 41.308 71.3541L41.4363 71.7834L46.9301 90.2151L54.1662 81.503L64.9561 84.7156L58.5695 63.2875L58.4195 62.7822C58.1642 63.0947 57.9464 63.4408 57.7719 63.8117C56.9253 65.6108 55.5969 67.1207 53.9296 68.178Z" fill="#A161BC"/>
</g>
</g>
</g>
<g id="Clip path group_3">
<mask id="mask2_435_242" style="mask-type:luminance" maskUnits="userSpaceOnUse" x="3" y="2" width="67" height="69">
<g id="deb3360d77">
<path id="Vector_5" d="M3.50513 2.84229H69.9667V70.132H3.50513V2.84229Z" fill="white"/>
</g>
</mask>
<g mask="url(#mask2_435_242)">
<g id="Group_3">
<path id="Vector_6" d="M53.4479 53.3113C48.984 57.8279 43.0489 60.3148 36.7359 60.3148C30.4215 60.3148 24.4864 57.8279 20.0224 53.3113C15.5585 48.7946 13.1008 42.7899 13.1008 36.4027C13.1008 30.0154 15.5585 24.0107 20.0224 19.4941C24.4864 14.9774 30.4215 12.4906 36.7359 12.4906C43.0489 12.4906 48.984 14.9774 53.4479 19.4941C57.9118 24.0107 60.371 30.0154 60.371 36.4027C60.371 42.7899 57.9118 48.7946 53.4479 53.3113ZM69.958 39.5656C69.958 38.2456 69.6234 36.9152 68.9383 35.7105C67.8667 33.8267 67.6272 31.575 68.2806 29.5043C68.5243 28.7318 68.6412 27.9404 68.6412 27.1591C68.6412 24.5656 67.346 22.0759 65.0917 20.6302C64.1844 20.0505 63.4186 19.2882 62.833 18.4047C62.2489 17.5227 61.8436 16.5166 61.6561 15.4462C61.3546 13.7158 60.495 12.1971 59.2792 11.077C58.0618 9.95408 56.4883 9.22978 54.7575 9.08814C53.6859 8.99906 52.659 8.6851 51.7359 8.17838C50.8128 7.6702 49.9921 6.97219 49.3359 6.11209C47.8546 4.17283 45.6017 3.10975 43.2897 3.10975C42.2859 3.10975 41.2719 3.30981 40.3056 3.72599C39.3508 4.13633 38.334 4.34223 37.3186 4.34223C36.2325 4.34223 35.1465 4.10712 34.1368 3.63837H34.1354C30.9796 2.17517 27.2426 3.05134 25.0445 5.77184C24.3652 6.61296 23.5258 7.28907 22.5883 7.77096C21.6508 8.2514 20.6152 8.53615 19.5436 8.59456C17.8085 8.68948 16.2162 9.36997 14.9686 10.4564C13.7224 11.5443 12.821 13.0367 12.4734 14.7584C12.257 15.823 11.8258 16.8159 11.2157 17.6833C10.607 18.5508 9.82242 19.2882 8.89935 19.8446C6.54262 21.2654 5.1681 23.8136 5.1681 26.4845C5.1681 27.1956 5.26618 27.9155 5.4681 28.6267C5.67002 29.3291 5.7681 30.0519 5.7681 30.7689C5.7681 32.1825 5.38444 33.5843 4.64021 34.8124C3.883 36.061 3.51233 37.4614 3.51233 38.8516C3.51233 40.7952 4.23637 42.7213 5.63685 44.2006H5.63829C7.12387 45.7675 7.88829 47.8965 7.74406 50.0665C7.73252 50.2403 7.72675 50.4141 7.72675 50.5864C7.72675 53.8866 9.81089 56.8495 12.9407 57.9097C13.959 58.2543 14.882 58.8078 15.658 59.5233C16.4354 60.2403 17.0671 61.1179 17.5013 62.1124C18.7373 64.9424 21.4993 66.7152 24.4835 66.7152C24.8873 66.7152 25.2941 66.6831 25.7037 66.6159C26.1104 66.5502 26.5186 66.5166 26.9239 66.5166C28.6359 66.5166 30.3118 67.1007 31.6734 68.193C33.0609 69.3086 34.7412 69.8694 36.4215 69.8694C38.0325 69.8694 39.645 69.3554 41.0051 68.3244C42.3378 67.3124 43.9474 66.7765 45.5873 66.7765C46.0633 66.7765 46.5407 66.8232 47.0138 66.9138C47.4926 67.0058 47.9715 67.0496 48.4445 67.0496C51.3465 67.0496 54.0551 65.3703 55.3373 62.641C55.7989 61.6597 56.4537 60.7996 57.2498 60.106C58.046 59.4123 58.9835 58.8837 60.0104 58.5668C63.2368 57.5738 65.4248 54.5642 65.4248 51.1778C65.4248 51.0756 65.4219 50.9734 65.4191 50.8711C65.4147 50.7689 65.4133 50.6682 65.4133 50.5659C65.4133 48.504 66.2296 46.5224 67.6864 45.0665C69.1792 43.5756 69.958 41.5823 69.958 39.5656Z" fill="#A161BC"/>
</g>
</g>
</g>
<path id="Vector_7" d="M34.1253 48.504C33.3508 48.504 32.572 48.2441 31.9272 47.714L23.2099 40.5543C21.7143 39.3262 21.4864 37.1036 22.7008 35.5893C23.9152 34.075 26.1133 33.8443 27.609 35.0738L33.7734 40.1366L46.6921 25.8609C47.9946 24.4226 50.2013 24.3233 51.6234 25.6404C53.0441 26.9576 53.1407 29.1904 51.8397 30.6273L36.6998 47.3577C36.0147 48.1156 35.0729 48.504 34.1253 48.504Z" fill="#A161BC"/>
</g>
<defs>
<clipPath id="clip0_435_242">
<rect width="72" height="90" fill="white" transform="translate(0.167664 0.225586)"/>
</clipPath>
</defs>
</svg>
