<svg width="132" height="132" viewBox="0 0 132 132" fill="none" xmlns="http://www.w3.org/2000/svg">
<g id="autoconhecimento ">
<path id="Vector" d="M69.8014 16.8174C68.53 18.1658 68.037 20.5634 68.5355 21.0337C69.0558 21.5204 71.4691 20.9246 72.7405 19.5735C73.7029 18.5575 73.8257 17.1088 73.0167 16.3459C72.2049 15.5913 70.7665 15.7987 69.8014 16.8174ZM69.1629 24.0665C68.1751 24.0646 67.2533 23.7927 66.5532 23.1338C64.3877 21.1023 65.7818 16.8645 67.693 14.8379C69.7491 12.6642 73.0241 12.3947 74.999 14.2458C76.9711 16.0996 76.9049 19.3739 74.8461 21.553C73.5856 22.8878 71.2285 24.0703 69.1629 24.0665Z" fill="#A161BC"/>
<g id="Clip path group">
<mask id="mask0_236_226" style="mask-type:luminance" maskUnits="userSpaceOnUse" x="13" y="71" width="15" height="16">
<g id="8205721a1f">
<path id="Vector_2" d="M13.0695 71.452L27.9438 71.4799L27.9163 86.1495L13.042 86.1216L13.0695 71.452Z" fill="white"/>
</g>
</mask>
<g mask="url(#mask0_236_226)">
<g id="Group">
<path id="Vector_3" d="M24.1471 79.3097L21.94 80.5035C21.869 80.547 21.8116 80.607 21.7705 80.6778L20.5603 82.8695C20.4809 83.0194 20.3334 83.0901 20.186 83.0898C20.0414 83.0895 19.8942 83.0183 19.8099 82.8681L18.6106 80.6719C18.5726 80.6009 18.5154 80.5407 18.4391 80.4969L16.242 79.2949C15.9448 79.1334 15.9456 78.7104 16.2434 78.5472L18.445 77.3507C18.5214 77.3127 18.5789 77.2527 18.6172 77.1819L19.8247 74.9848C19.9095 74.8403 20.057 74.7642 20.2017 74.7645C20.349 74.7647 20.4962 74.8414 20.5751 74.9862L21.777 77.1878C21.8178 77.2588 21.875 77.319 21.9459 77.3573L24.1485 78.5621C24.4456 78.7263 24.4448 79.1493 24.1471 79.3097ZM25.5394 76.0324L23.9747 75.1754L23.1181 73.6048C22.5362 72.5449 21.4213 71.8825 20.2071 71.8802C18.9901 71.8779 17.8755 72.5362 17.2896 73.5938L16.4298 75.1612L14.8565 76.0124C13.7912 76.5889 13.1287 77.7037 13.1265 78.9152C13.1242 80.1268 13.7824 81.2413 14.8456 81.8218L16.4157 82.6816L17.2696 84.2495C17.8515 85.3093 18.9636 85.9718 20.1806 85.974C21.3949 85.9763 22.5149 85.3181 23.0981 84.2604L23.9606 82.6957L25.5285 81.8419C26.5965 81.2654 27.2617 80.1533 27.264 78.9417C27.2662 77.7302 26.6053 76.6129 25.5394 76.0324Z" fill="#A161BC"/>
</g>
</g>
</g>
<g id="Clip path group_2">
<mask id="mask1_236_226" style="mask-type:luminance" maskUnits="userSpaceOnUse" x="107" y="50" width="13" height="14">
<g id="3ffbc141ce">
<path id="Vector_4" d="M107.618 50.6727L119.463 50.6949L119.44 63.2689L107.595 63.2467L107.618 50.6727Z" fill="white"/>
</g>
</mask>
<g mask="url(#mask1_236_226)">
<g id="Group_2">
<path id="Vector_5" d="M116.332 57.3144L114.827 58.1357C114.778 58.1574 114.74 58.1983 114.71 58.2473L113.885 59.7439C113.833 59.842 113.73 59.8964 113.629 59.8962C113.53 59.896 113.429 59.8412 113.378 59.7429L112.559 58.2433C112.532 58.1941 112.491 58.1531 112.442 58.1312L110.94 57.3043C110.741 57.1948 110.742 56.9055 110.941 56.7995L112.446 55.9782C112.495 55.9565 112.536 55.9156 112.564 55.8666L113.388 54.3673C113.44 54.2719 113.541 54.2175 113.639 54.2177C113.74 54.2179 113.844 54.2727 113.895 54.3683L114.714 55.8706C114.744 55.9198 114.782 55.9608 114.831 55.9827L116.333 56.8096C116.532 56.9164 116.532 57.2056 116.332 57.3144ZM117.724 54.28L116.893 53.8227L116.438 52.9923C115.881 51.968 114.813 51.3356 113.645 51.3335C112.479 51.3313 111.409 51.9596 110.85 52.9818L110.393 53.8105L109.56 54.2646C108.533 54.8166 107.898 55.8824 107.895 57.0448C107.893 58.2045 108.524 59.2781 109.549 59.834L110.381 60.2912L110.835 61.1216C111.39 62.1459 112.458 62.7783 113.623 62.7804C114.791 62.7826 115.862 62.1543 116.423 61.1321L116.88 60.3034L117.714 59.8493C118.735 59.2973 119.373 58.2261 119.375 57.0664C119.377 55.9039 118.744 54.8358 117.724 54.28Z" fill="#A161BC"/>
</g>
</g>
</g>
<path id="Vector_6" d="M87.9656 40.5477C89.2748 40.853 90.0242 41.4138 90.9339 43.7513C91.3332 44.7672 92.2952 45.4184 93.3403 45.4204C93.3785 45.4205 93.4194 45.4205 93.4576 45.4206C94.56 45.4227 95.5217 44.775 95.9248 43.7607C96.8433 41.4294 97.5947 40.8714 98.8996 40.5737C99.5957 40.414 100.151 39.812 100.122 39.0997C100.086 38.1746 99.2327 37.5427 98.3701 37.7348C96.0279 38.2434 94.6613 39.4306 93.5131 42.0316C93.4802 42.0998 93.3847 42.0996 93.3576 42.0313C92.2136 39.426 90.8515 38.2337 88.5112 37.7163C87.6466 37.5155 86.794 38.1497 86.7541 39.0774C86.7228 39.7868 87.2701 40.3909 87.9656 40.5477Z" fill="#A161BC"/>
<path id="Vector_7" d="M93.4199 46.6349C92.5221 46.6332 91.7977 47.3549 91.796 48.2472C91.7943 49.1395 92.5161 49.8667 93.4138 49.8684C94.3116 49.8701 95.036 49.1456 95.0377 48.2533C95.0394 47.361 94.3176 46.6366 93.4199 46.6349Z" fill="#A161BC"/>
<g id="Clip path group_3">
<mask id="mask2_236_226" style="mask-type:luminance" maskUnits="userSpaceOnUse" x="27" y="5" width="87" height="122">
<g id="37aadf401c">
<path id="Vector_8" d="M27.3692 5.35352L113.291 5.51467L113.065 126.015L27.1432 125.854L27.3692 5.35352Z" fill="white"/>
</g>
</mask>
<g mask="url(#mask2_236_226)">
<g id="Group_3">
<path id="Vector_9" d="M100.27 59.189C98.4626 59.7095 96.6556 60.0145 94.8463 60.1229L94.8592 53.222C94.8607 52.4252 94.2125 51.7773 93.4157 51.7758C92.6162 51.7743 91.9655 52.4198 91.964 53.2166L91.9511 60.1175C90.1394 60.0022 88.3309 59.6905 86.5309 59.1632C86.3018 54.7095 84.468 50.4001 81.2601 46.9477C78.24 43.6976 76.6817 39.446 76.8701 34.9876C77.2496 26.1636 84.8025 19.034 93.6487 19.1761C102.7 19.2913 110.051 26.7245 110.034 35.7457C110.026 40.0161 108.397 44.0625 105.442 47.1377C102.306 50.4172 100.5 54.6679 100.27 59.189ZM86.8198 62.2554C91.1837 63.3496 95.5769 63.3633 99.9613 62.2801C99.1616 65.2747 96.5955 67.3465 93.381 67.3404C90.1639 67.3344 87.6055 65.253 86.8198 62.2554ZM101.211 75.263C100.085 80.6883 95.8618 84.6152 89.9137 85.7665C88.8027 85.9827 87.7701 86.5866 87.0017 87.4665C84.9808 89.7903 82.2134 92.9695 74.09 92.9543C69.0309 92.9448 64.9766 91.2099 62.6794 88.0649C60.7579 85.4389 60.2868 81.9862 61.2843 78.2797C64.1696 77.6985 66.6213 75.5501 67.4293 72.5364C67.9156 70.7172 67.7446 68.8286 66.9564 67.1435C67.5955 66.8364 68.2237 66.5074 68.8329 66.1347C69.5104 65.713 69.7195 64.8238 69.3005 64.1463C68.8788 63.4688 67.9869 63.2625 67.3067 63.6814C62.9766 66.3584 57.5861 67.0714 53.5805 65.4976C50.7883 64.3981 48.8877 62.2688 48.0882 59.3367C46.5245 53.5898 43.7073 46.9209 35.776 46.3303C34.9821 46.2715 34.2878 46.8678 34.2263 47.6617C34.1704 48.3711 34.644 48.9914 35.3123 49.1618C33.6501 55.192 34.5908 59.9172 35.1207 62.5459L35.2018 62.9663C35.3343 63.6214 34.9891 64.3275 34.4448 65.036C30.937 61.4002 29.522 56.404 30.5606 51.104C31.7177 45.2121 35.7874 40.278 40.9261 38.5331C41.808 38.2345 42.6004 37.6657 43.276 36.8429C49.9356 28.7729 63.0418 25.7795 74.4405 29.7385C74.5905 29.7879 74.7323 29.8509 74.8822 29.9085C74.3799 31.4902 74.0521 33.1459 73.9779 34.8649C73.758 40.1009 75.5905 45.087 79.1389 48.9057C82.0773 52.0711 83.7111 56.7785 83.7035 60.8388C83.9801 66.1358 88.1201 70.2148 93.3756 70.2247C96.1644 70.2299 98.6388 69.083 100.394 67.2171C101.462 69.6996 101.784 72.4917 101.211 75.263ZM78.7222 121.233C78.7649 121.746 78.5975 122.264 78.2693 122.623C78.0807 122.83 77.7528 123.075 77.267 123.075L52.6212 123.028C52.0346 123.027 51.5111 122.753 51.1873 122.281C50.8499 121.783 50.7855 121.175 51.0131 120.602C53.4862 114.298 57.4669 108.78 62.2246 105.056C65.2607 102.682 68.6301 101.548 70.9631 101.552C71.9182 101.554 72.6982 101.746 73.2132 102.127C75.3251 103.686 77.9494 112.794 78.7222 121.233ZM49.2478 91.3824C47.7848 91.6416 46.4036 91.8873 45.3502 91.9263C39.7094 92.2104 39.0677 89.5105 38.246 83.8741C38.079 82.725 37.8984 81.5567 37.6523 80.372C38.5883 80.3192 39.7402 80.144 40.9062 79.6987C41.6517 79.4108 42.0243 78.5765 41.7392 77.8338C41.4486 77.0883 40.6144 76.7183 39.8661 77.0035C38.7466 77.4325 37.6167 77.5177 36.8718 77.5136C35.9596 75.0233 34.7366 73.8258 33.8187 72.9318C32.9771 72.1116 32.7483 71.8874 32.8427 71.0171C32.9389 70.6462 33.9039 69.7229 34.5435 69.1129C35.4156 68.2823 36.386 67.3536 37.0947 66.2989C37.4493 66.376 37.804 66.4094 38.1451 66.41C40.1971 66.4139 41.9646 65.3311 42.0657 65.2686C42.7459 64.8496 42.9523 63.955 42.5306 63.2829C42.1061 62.6054 41.2142 62.3991 40.534 62.8235C40.5203 62.8316 39.2883 63.547 38.1205 63.5202C38.1403 63.1655 38.1191 62.7917 38.0434 62.4068L37.9597 61.9782C37.6811 60.616 37.3244 58.8008 37.2685 56.5931C38.2209 56.5403 39.5553 56.5292 40.9821 56.712C41.7705 56.8117 42.5028 56.2564 42.6053 55.468C42.7077 54.6796 42.1497 53.9527 41.3531 53.8502C39.8499 53.6591 38.4501 53.6538 37.3776 53.7036C37.5082 52.465 37.748 51.142 38.1518 49.7348C41.5141 50.9308 43.6692 54.1329 45.2953 60.0928C46.3468 63.9395 48.8438 66.7357 52.5222 68.1806C54.2455 68.8606 56.174 69.1944 58.1715 69.1981C60.1743 69.2019 62.2434 68.8592 64.2529 68.2217C64.7939 69.2897 64.9662 70.548 64.631 71.7916C63.911 74.4945 61.1219 76.1046 58.4109 75.3846C57.6445 75.1785 56.8469 75.6382 56.6435 76.4073C56.4374 77.1764 56.8971 77.9659 57.6689 78.172C57.8762 78.227 58.0835 78.2574 58.2908 78.2932C57.325 82.5782 58.0242 86.599 60.3404 89.7659C62.673 92.9602 66.383 94.9618 70.9361 95.598L71.8907 98.7433C69.217 98.4763 65.8126 99.3895 62.6437 101.28C62.4038 98.2807 61.7545 93.7962 59.9622 92.1283C57.5787 89.9081 53.1539 90.6939 49.2478 91.3824ZM60.3038 19.0726C59.6185 19.2978 58.5715 18.8374 57.4983 17.8585C56.3596 16.8195 55.3583 15.3141 54.9486 14.0226C54.5797 12.8677 54.6201 11.6698 55.0587 10.6474C55.4725 9.69855 56.1859 9.02043 57.0706 8.74103C57.3737 8.64337 57.6821 8.59756 57.9932 8.59814C58.6098 8.5993 59.2344 8.78056 59.8204 9.13913C60.7689 9.7194 61.4984 10.6731 61.8646 11.8253C62.2743 13.1031 62.3091 14.9069 61.9542 16.4288C61.6241 17.8444 60.9946 18.8556 60.3038 19.0726ZM107.536 49.1309C111.003 45.5218 112.919 40.7692 112.929 35.7511C112.949 25.1555 104.318 16.4237 93.6842 16.2919C86.0057 16.1765 79.1918 20.6989 75.9596 27.2309C75.766 27.1596 75.5861 27.0801 75.3898 27.0115C71.6402 25.7111 67.7174 25.117 63.8644 25.1425C63.7664 23.5733 63.338 22.0717 62.8383 20.8183C63.7295 19.9659 64.3949 18.6983 64.7718 17.0781C65.2504 15.0325 65.1947 12.7402 64.6223 10.9518C64.0445 9.13613 62.8712 7.61676 61.3285 6.67791C59.715 5.69527 57.8899 5.44626 56.1944 5.98883C54.4988 6.52593 53.1512 7.77862 52.4003 9.5045C51.685 11.165 51.6104 13.0749 52.1883 14.8906C52.7606 16.6872 54.015 18.5915 55.5432 19.9833C57.0033 21.3176 58.5192 22.0108 59.9327 22.0135C60.0227 22.0137 60.1128 22.0002 60.2029 21.9949C60.5966 22.9998 60.9083 24.1383 60.9881 25.2681C53.0516 25.9818 45.6694 29.4034 41.0419 35.0132C40.7109 35.411 40.3584 35.6805 39.9925 35.8053C33.7998 37.9085 29.0931 43.5563 27.7211 50.5447C26.5033 56.7476 28.2711 62.8278 32.4434 67.1197C31.186 68.3234 30.1116 69.3774 29.97 70.6842C29.7201 72.9732 30.8232 74.0449 31.7956 74.9936C32.6917 75.863 33.7022 76.85 34.418 79.3045C34.8898 80.9208 35.1403 82.6321 35.3801 84.2917C36.1291 89.4204 36.9695 95.2178 45.4785 94.8135C46.7147 94.7612 48.1914 94.502 49.7555 94.2239C52.668 93.7055 56.6615 93.0008 57.9881 94.2394C59.0014 95.1772 59.7191 99.5118 59.8621 103.272C54.9647 107.296 50.8772 113.032 48.3164 119.549C47.7461 121 47.9231 122.627 48.7966 123.903C49.6511 125.159 51.0795 125.91 52.6158 125.913L77.2616 125.959C78.465 125.961 79.5847 125.467 80.4023 124.57C81.2855 123.611 81.7218 122.297 81.6015 120.971C81.1015 115.493 78.9355 103.535 75.3399 100.15L74.0327 95.8357C74.0464 95.8358 74.0655 95.8385 74.0846 95.8386C83.5341 95.8563 87.0728 91.7889 89.1866 89.3589C89.5312 88.9639 89.9874 88.6946 90.4678 88.6C97.5979 87.2162 102.674 82.4477 104.043 75.8495C104.871 71.8616 104.164 67.8382 102.233 64.4537C102.759 63.2622 103.067 61.9421 103.1 60.5368C103.108 56.4001 104.696 52.1026 107.536 49.1309Z" fill="#A161BC"/>
</g>
</g>
</g>
</g>
</svg>
