<svg xmlns="http://www.w3.org/2000/svg" xmlns:xlink="http://www.w3.org/1999/xlink" zoomAndPan="magnify" viewBox="0 0 375 374.999991" preserveAspectRatio="xMidYMid meet" version="1.0"><path fill="#d5c2dd" d="M 167.203125 264.417969 C 185.75 246.6875 214.796875 235.890625 233.269531 221.277344 C 248.492188 209.230469 262.324219 194.054688 269.964844 176.007812 C 277.429688 158.371094 277.214844 139.1875 275.902344 120.410156 C 282.886719 130.246094 289.5 141.609375 286.816406 153.941406 C 284.4375 164.851562 276.554688 173.914062 275.867188 185.296875 C 275.195312 196.367188 281.597656 206.078125 285.085938 216.15625 C 286.769531 221.03125 288.296875 227.324219 285.484375 232.113281 C 282.460938 237.261719 275.816406 235.527344 271.347656 238.371094 C 267.757812 240.65625 267.390625 243.609375 268.375 247.417969 C 268.785156 249.023438 269.308594 251.253906 268.675781 252.925781 C 267.898438 254.988281 265.519531 255.171875 263.792969 255.503906 C 262.453125 255.757812 260.882812 255.886719 259.679688 256.625 C 256.992188 258.28125 257.339844 260.71875 258.296875 263.335938 C 259.039062 265.363281 260.957031 266.121094 259.261719 269.132812 C 257.507812 272.257812 254.851562 270.832031 252.421875 271.269531 C 251.257812 271.476562 250.296875 271.863281 249.332031 272.5625 C 246.058594 274.9375 245.25 279.125 244.757812 282.871094 C 243.757812 290.433594 240.742188 295.664062 233.105469 298.097656 C 221.117188 301.925781 206.695312 298.839844 196.214844 292.386719 C 184.746094 285.328125 175.785156 274.820312 167.203125 264.417969 Z M 161.601562 266.664062 C 149.179688 280.859375 144.050781 298.644531 148.671875 317.136719 C 153.6875 337.203125 167.625 353.039062 181.09375 368.058594 C 182.300781 369.398438 184.273438 367.417969 183.074219 366.078125 C 167.089844 348.261719 149.488281 328.015625 149.640625 302.597656 C 149.726562 287.496094 155.929688 275.941406 165.21875 266.390625 C 176.101562 279.617188 187.886719 293.390625 204.097656 299.367188 C 214.269531 303.117188 229.230469 304.488281 238.902344 298.5625 C 242.824219 296.160156 245.671875 292.523438 246.789062 288.054688 C 247.546875 285.035156 247.332031 281.808594 248.347656 278.847656 C 249.351562 275.925781 250.648438 274.550781 253.941406 273.96875 C 255.054688 273.777344 256.226562 274.144531 257.371094 273.878906 C 260.605469 273.128906 262.882812 269.78125 262.566406 266.492188 C 262.375 264.464844 259.339844 260.875 261.09375 259.042969 C 262.277344 257.808594 265.914062 258.148438 267.507812 257.484375 C 270.675781 256.167969 272.402344 252.886719 271.953125 249.535156 C 271.644531 247.226562 269.675781 245 270.988281 242.492188 C 272.109375 240.34375 274.789062 239.796875 276.863281 239.304688 C 279.398438 238.703125 282.023438 238.601562 284.308594 237.214844 C 292.246094 232.414062 289.894531 221.054688 287.253906 213.957031 C 282.722656 201.761719 275.816406 190.707031 280.378906 177.34375 C 284.027344 166.664062 291.195312 157.332031 290.101562 145.480469 C 289.035156 133.929688 282.027344 123.980469 275.351562 114.921875 C 274.621094 113.925781 272.628906 114.097656 272.746094 115.628906 C 273.75 128.5625 274.605469 141.652344 272.855469 154.5625 C 271.210938 166.707031 266.878906 178.050781 260.230469 188.335938 C 248.21875 206.894531 230.628906 221.445312 211.648438 232.433594 C 195.792969 241.609375 178.757812 249.539062 165.601562 262.46875 C 164.445312 261.066406 163.292969 259.664062 162.140625 258.28125 C 160.988281 256.894531 159.019531 258.882812 160.164062 260.261719 C 161.3125 261.640625 162.46875 263.046875 163.628906 264.464844 C 162.945312 265.183594 162.265625 265.910156 161.601562 266.664062 Z M 77.515625 110.308594 C 91.242188 100.566406 107.15625 93.941406 123.636719 91.121094 C 136.394531 88.933594 149.246094 88.996094 161.84375 91.308594 C 162.671875 92.957031 163.527344 94.585938 164.410156 96.199219 C 164.476562 96.324219 164.546875 96.4375 164.617188 96.5625 C 165.492188 98.160156 166.394531 99.734375 167.320312 101.300781 C 167.660156 101.867188 168.011719 102.425781 168.355469 102.992188 C 169.03125 104.097656 169.707031 105.199219 170.40625 106.285156 C 170.820312 106.925781 171.246094 107.558594 171.664062 108.191406 C 172.324219 109.183594 172.988281 110.171875 173.667969 111.152344 C 174.121094 111.804688 174.578125 112.449219 175.042969 113.09375 C 175.722656 114.042969 176.410156 114.980469 177.105469 115.910156 C 177.582031 116.546875 178.0625 117.179688 178.546875 117.804688 C 179.265625 118.738281 180 119.660156 180.738281 120.570312 C 181.222656 121.167969 181.699219 121.769531 182.195312 122.359375 C 182.988281 123.3125 183.800781 124.246094 184.609375 125.179688 C 185.070312 125.707031 185.519531 126.234375 185.984375 126.757812 C 186.964844 127.847656 187.960938 128.921875 188.96875 129.984375 C 189.289062 130.324219 189.601562 130.671875 189.921875 131.003906 C 191.269531 132.402344 192.636719 133.773438 194.03125 135.121094 C 194.324219 135.40625 194.636719 135.683594 194.933594 135.964844 C 196.035156 137.011719 197.144531 138.054688 198.273438 139.070312 C 198.777344 139.527344 199.296875 139.964844 199.8125 140.414062 C 200.753906 141.242188 201.703125 142.066406 202.667969 142.875 C 203.25 143.359375 203.839844 143.832031 204.425781 144.3125 C 205.347656 145.058594 206.273438 145.800781 207.210938 146.53125 C 207.835938 147.007812 208.457031 147.488281 209.085938 147.957031 C 210.023438 148.664062 210.964844 149.355469 211.917969 150.042969 C 212.554688 150.503906 213.195312 150.957031 213.84375 151.410156 C 214.820312 152.09375 215.816406 152.761719 216.8125 153.421875 C 217.441406 153.84375 218.070312 154.269531 218.710938 154.679688 C 218.945312 154.832031 219.175781 154.996094 219.414062 155.148438 C 218.425781 154.910156 217.433594 154.699219 216.441406 154.480469 C 215.886719 154.359375 215.339844 154.222656 214.785156 154.109375 C 213.136719 153.765625 211.484375 153.453125 209.824219 153.171875 C 208.753906 152.988281 207.675781 152.820312 206.589844 152.664062 C 206.242188 152.613281 205.890625 152.566406 205.542969 152.515625 C 204.796875 152.414062 204.050781 152.316406 203.300781 152.21875 C 202.898438 152.167969 202.492188 152.125 202.085938 152.078125 C 201.378906 152 200.671875 151.921875 199.964844 151.851562 C 199.542969 151.804688 199.117188 151.769531 198.695312 151.730469 C 197.996094 151.667969 197.292969 151.609375 196.589844 151.554688 C 196.15625 151.519531 195.730469 151.492188 195.296875 151.460938 C 194.589844 151.410156 193.878906 151.371094 193.164062 151.332031 C 192.738281 151.3125 192.316406 151.285156 191.890625 151.265625 C 191.15625 151.234375 190.421875 151.210938 189.683594 151.183594 C 189.273438 151.171875 188.867188 151.15625 188.457031 151.148438 C 187.6875 151.128906 186.910156 151.117188 186.136719 151.113281 C 185.753906 151.105469 185.378906 151.101562 185 151.101562 C 184.882812 151.101562 184.769531 151.097656 184.65625 151.097656 C 183.648438 151.097656 182.636719 151.105469 181.621094 151.125 C 180.683594 151.144531 179.746094 151.171875 178.808594 151.214844 C 178.507812 151.226562 178.210938 151.25 177.910156 151.265625 C 177.273438 151.300781 176.640625 151.332031 176.007812 151.375 C 175.648438 151.402344 175.285156 151.4375 174.925781 151.464844 C 174.359375 151.507812 173.789062 151.554688 173.226562 151.609375 C 172.832031 151.644531 172.445312 151.691406 172.054688 151.734375 C 171.519531 151.789062 170.984375 151.84375 170.453125 151.910156 C 170.046875 151.953125 169.640625 152.015625 169.238281 152.070312 C 168.722656 152.136719 168.210938 152.203125 167.695312 152.277344 C 167.28125 152.339844 166.867188 152.414062 166.453125 152.476562 C 165.953125 152.558594 165.453125 152.632812 164.953125 152.71875 C 164.535156 152.792969 164.121094 152.875 163.703125 152.953125 C 163.210938 153.042969 162.71875 153.128906 162.230469 153.230469 C 161.808594 153.3125 161.386719 153.410156 160.96875 153.5 C 160.484375 153.601562 160 153.703125 159.519531 153.8125 C 159.097656 153.90625 158.679688 154.011719 158.257812 154.113281 C 157.78125 154.226562 157.300781 154.339844 156.824219 154.460938 C 156.40625 154.566406 155.984375 154.683594 155.566406 154.796875 C 155.09375 154.921875 154.621094 155.046875 154.152344 155.179688 C 153.730469 155.300781 153.308594 155.425781 152.886719 155.550781 C 152.421875 155.6875 151.957031 155.824219 151.492188 155.96875 C 151.074219 156.097656 150.65625 156.234375 150.238281 156.375 C 149.777344 156.523438 149.3125 156.671875 148.855469 156.828125 C 148.4375 156.96875 148.023438 157.117188 147.613281 157.261719 C 147.152344 157.421875 146.691406 157.582031 146.234375 157.753906 C 145.820312 157.90625 145.410156 158.066406 145.003906 158.222656 C 144.542969 158.394531 144.085938 158.570312 143.632812 158.75 C 143.222656 158.914062 142.816406 159.078125 142.410156 159.25 C 141.957031 159.433594 141.503906 159.621094 141.050781 159.816406 C 140.648438 159.984375 140.246094 160.167969 139.84375 160.34375 C 139.492188 160.496094 139.144531 160.644531 138.796875 160.804688 C 114.425781 149.429688 93.277344 131.996094 77.515625 110.308594 Z M 138.792969 163.886719 C 139.925781 164.402344 141.066406 164.910156 142.207031 165.402344 C 142.386719 165.476562 142.5625 165.546875 142.742188 165.621094 C 143.820312 166.082031 144.90625 166.53125 145.996094 166.96875 C 146.402344 167.132812 146.8125 167.289062 147.21875 167.449219 C 148.097656 167.792969 148.980469 168.128906 149.863281 168.460938 C 150.300781 168.621094 150.742188 168.785156 151.179688 168.941406 C 152.085938 169.269531 152.996094 169.589844 153.90625 169.902344 C 154.292969 170.03125 154.671875 170.164062 155.058594 170.296875 C 156.34375 170.726562 157.628906 171.140625 158.921875 171.535156 C 160.234375 171.9375 161.550781 172.320312 162.871094 172.6875 C 163.222656 172.785156 163.578125 172.882812 163.9375 172.972656 C 164.898438 173.238281 165.863281 173.492188 166.828125 173.734375 C 167.253906 173.84375 167.679688 173.949219 168.105469 174.050781 C 169.042969 174.28125 169.980469 174.496094 170.917969 174.710938 C 171.316406 174.800781 171.71875 174.894531 172.121094 174.980469 C 173.25 175.222656 174.378906 175.453125 175.511719 175.675781 C 175.703125 175.710938 175.894531 175.753906 176.089844 175.789062 C 177.433594 176.046875 178.777344 176.289062 180.125 176.507812 C 180.414062 176.554688 180.703125 176.597656 180.988281 176.640625 C 182.035156 176.808594 183.085938 176.96875 184.140625 177.113281 C 184.554688 177.171875 184.976562 177.230469 185.398438 177.285156 C 186.34375 177.40625 187.289062 177.523438 188.234375 177.628906 C 188.660156 177.679688 189.082031 177.726562 189.511719 177.773438 C 190.546875 177.882812 191.585938 177.976562 192.625 178.066406 C 192.933594 178.09375 193.238281 178.125 193.542969 178.148438 C 194.902344 178.257812 196.257812 178.351562 197.617188 178.425781 C 197.800781 178.4375 197.988281 178.441406 198.171875 178.449219 C 199.328125 178.507812 200.484375 178.554688 201.644531 178.59375 C 202.058594 178.601562 202.472656 178.609375 202.890625 178.617188 C 203.835938 178.640625 204.78125 178.652344 205.734375 178.65625 C 205.96875 178.65625 206.207031 178.667969 206.445312 178.667969 C 206.742188 178.667969 207.035156 178.660156 207.332031 178.660156 C 207.789062 178.65625 208.25 178.652344 208.707031 178.648438 C 209.382812 178.636719 210.054688 178.621094 210.726562 178.601562 C 211.15625 178.59375 211.585938 178.582031 212.011719 178.566406 C 212.800781 178.539062 213.585938 178.503906 214.371094 178.464844 C 214.683594 178.449219 214.996094 178.441406 215.3125 178.421875 C 216.394531 178.363281 217.480469 178.292969 218.566406 178.210938 C 218.871094 178.1875 219.175781 178.15625 219.480469 178.136719 C 220.277344 178.070312 221.074219 178 221.871094 177.925781 C 222.273438 177.886719 222.675781 177.839844 223.078125 177.800781 C 223.785156 177.730469 224.488281 177.652344 225.191406 177.570312 C 225.609375 177.519531 226.035156 177.46875 226.457031 177.417969 C 227.15625 177.328125 227.863281 177.238281 228.5625 177.140625 C 228.960938 177.085938 229.367188 177.027344 229.769531 176.96875 C 230.542969 176.855469 231.316406 176.734375 232.085938 176.609375 C 232.410156 176.558594 232.734375 176.511719 233.050781 176.457031 C 234.148438 176.273438 235.246094 176.082031 236.34375 175.875 C 236.414062 175.859375 236.484375 175.84375 236.550781 175.832031 C 237.574219 175.640625 238.59375 175.433594 239.609375 175.21875 C 239.949219 175.148438 240.285156 175.074219 240.625 175 C 241.378906 174.835938 242.128906 174.667969 242.878906 174.492188 C 243.269531 174.402344 243.664062 174.3125 244.050781 174.21875 C 244.761719 174.046875 245.472656 173.875 246.179688 173.691406 C 246.570312 173.59375 246.960938 173.492188 247.351562 173.386719 C 248.085938 173.199219 248.820312 173 249.546875 172.796875 C 249.804688 172.726562 250.058594 172.660156 250.316406 172.589844 C 213.496094 228.828125 143.386719 256.292969 78.074219 239.796875 C 82.234375 221.707031 90.796875 204.859375 102.890625 191 C 113.011719 179.390625 125.089844 170.273438 138.792969 163.886719 Z M 260.085938 124.261719 C 260.121094 138.621094 257.878906 152.710938 253.410156 166.199219 C 253.355469 166.066406 253.292969 165.941406 253.238281 165.8125 C 252.601562 164.300781 251.941406 162.804688 251.25 161.324219 C 251.199219 161.210938 251.144531 161.097656 251.089844 160.988281 C 250.375 159.464844 249.636719 157.957031 248.867188 156.46875 C 248.84375 156.417969 248.816406 156.363281 248.789062 156.3125 C 248.019531 154.824219 247.222656 153.363281 246.398438 151.910156 C 246.300781 151.742188 246.210938 151.574219 246.117188 151.410156 C 245.324219 150.019531 244.5 148.640625 243.652344 147.28125 C 243.523438 147.070312 243.390625 146.855469 243.257812 146.640625 C 242.421875 145.308594 241.558594 143.988281 240.671875 142.683594 C 240.519531 142.464844 240.371094 142.242188 240.21875 142.019531 C 239.324219 140.71875 238.410156 139.425781 237.464844 138.15625 C 237.320312 137.960938 237.171875 137.761719 237.027344 137.570312 C 236.054688 136.269531 235.0625 134.984375 234.042969 133.71875 C 233.9375 133.585938 233.828125 133.457031 233.722656 133.328125 C 232.644531 131.996094 231.542969 130.683594 230.414062 129.386719 C 224.398438 122.5 217.480469 115.972656 209.851562 109.980469 C 208.996094 109.308594 208.128906 108.652344 207.25 108.007812 C 206.976562 107.800781 206.691406 107.609375 206.414062 107.40625 C 205.816406 106.96875 205.214844 106.535156 204.609375 106.109375 C 204.269531 105.875 203.921875 105.652344 203.578125 105.417969 C 203.023438 105.046875 202.476562 104.667969 201.921875 104.304688 C 201.546875 104.0625 201.167969 103.832031 200.792969 103.597656 C 200.257812 103.253906 199.726562 102.914062 199.191406 102.585938 C 198.796875 102.34375 198.402344 102.121094 198 101.886719 C 197.476562 101.574219 196.949219 101.253906 196.421875 100.953125 C 196.011719 100.71875 195.59375 100.496094 195.179688 100.269531 C 194.65625 99.980469 194.136719 99.683594 193.609375 99.40625 C 193.183594 99.183594 192.753906 98.96875 192.324219 98.746094 C 191.804688 98.480469 191.285156 98.207031 190.761719 97.945312 C 190.324219 97.734375 189.878906 97.527344 189.4375 97.320312 C 188.914062 97.070312 188.394531 96.816406 187.863281 96.570312 C 187.421875 96.371094 186.96875 96.175781 186.523438 95.980469 C 185.996094 95.75 185.46875 95.515625 184.9375 95.289062 C 184.480469 95.097656 184.015625 94.914062 183.554688 94.726562 C 183.027344 94.515625 182.5 94.296875 181.96875 94.09375 C 181.503906 93.914062 181.03125 93.742188 180.558594 93.566406 C 180.027344 93.371094 179.5 93.171875 178.964844 92.984375 C 178.484375 92.816406 178.003906 92.660156 177.523438 92.496094 C 176.988281 92.316406 176.457031 92.132812 175.921875 91.960938 C 175.433594 91.808594 174.9375 91.664062 174.445312 91.515625 C 173.914062 91.351562 173.378906 91.183594 172.84375 91.03125 C 172.339844 90.886719 171.835938 90.757812 171.332031 90.617188 C 170.800781 90.472656 170.269531 90.324219 169.734375 90.191406 C 169.21875 90.058594 168.703125 89.9375 168.1875 89.8125 C 167.652344 89.6875 167.121094 89.554688 166.582031 89.4375 C 166.0625 89.316406 165.539062 89.210938 165.011719 89.101562 C 164.585938 89.011719 164.167969 88.914062 163.742188 88.832031 C 151.507812 64.054688 145.945312 36.464844 147.628906 8.902344 C 148.023438 8.898438 148.417969 8.894531 148.8125 8.894531 C 169.644531 8.894531 189.886719 14.539062 207.511719 25.277344 C 233.542969 41.121094 251.71875 67.136719 257.378906 96.644531 C 259.175781 106.039062 260.085938 115.332031 260.085938 124.261719 Z M 226.179688 159.925781 C 227.105469 160.207031 228.035156 160.480469 228.953125 160.78125 C 228.988281 160.796875 229.019531 160.8125 229.058594 160.824219 C 230.023438 161.144531 230.980469 161.476562 231.941406 161.816406 C 232.253906 161.929688 232.5625 162.042969 232.875 162.160156 C 233.523438 162.398438 234.171875 162.636719 234.816406 162.886719 C 235.179688 163.023438 235.542969 163.167969 235.90625 163.3125 C 236.5 163.546875 237.089844 163.78125 237.675781 164.023438 C 238.054688 164.179688 238.429688 164.335938 238.804688 164.496094 C 239.386719 164.742188 239.957031 164.988281 240.535156 165.242188 C 240.90625 165.402344 241.273438 165.566406 241.644531 165.730469 C 242.238281 166 242.828125 166.269531 243.417969 166.550781 C 243.757812 166.707031 244.097656 166.863281 244.4375 167.027344 C 245.097656 167.34375 245.753906 167.664062 246.40625 167.992188 C 246.671875 168.125 246.933594 168.253906 247.199219 168.386719 C 248.105469 168.84375 249.003906 169.316406 249.898438 169.792969 C 249.839844 169.8125 249.78125 169.828125 249.71875 169.847656 C 249.316406 169.964844 248.90625 170.066406 248.5 170.179688 C 247.757812 170.382812 247.011719 170.589844 246.265625 170.785156 C 245.828125 170.898438 245.386719 171.003906 244.945312 171.117188 C 244.226562 171.292969 243.515625 171.472656 242.796875 171.640625 C 242.335938 171.75 241.878906 171.851562 241.417969 171.957031 C 240.71875 172.113281 240.015625 172.273438 239.316406 172.421875 C 238.847656 172.519531 238.375 172.613281 237.90625 172.707031 C 237.210938 172.847656 236.515625 172.988281 235.820312 173.121094 C 235.347656 173.210938 234.871094 173.292969 234.394531 173.375 C 233.699219 173.503906 233.003906 173.625 232.308594 173.738281 C 231.832031 173.820312 231.359375 173.890625 230.882812 173.96875 C 230.183594 174.078125 229.488281 174.183594 228.789062 174.28125 C 228.316406 174.347656 227.839844 174.414062 227.363281 174.476562 C 226.664062 174.570312 225.957031 174.660156 225.253906 174.742188 C 224.789062 174.796875 224.316406 174.851562 223.847656 174.90625 C 223.136719 174.984375 222.425781 175.054688 221.714844 175.125 C 221.246094 175.171875 220.78125 175.214844 220.320312 175.253906 C 219.597656 175.320312 218.878906 175.375 218.160156 175.429688 C 217.703125 175.460938 217.25 175.496094 216.792969 175.527344 C 216.058594 175.574219 215.324219 175.613281 214.589844 175.652344 C 214.148438 175.675781 213.707031 175.699219 213.261719 175.71875 C 212.503906 175.75 211.753906 175.773438 210.996094 175.792969 C 210.574219 175.808594 210.152344 175.824219 209.734375 175.832031 C 208.945312 175.847656 208.164062 175.851562 207.378906 175.859375 C 206.988281 175.859375 206.589844 175.867188 206.199219 175.867188 C 205.363281 175.863281 204.527344 175.851562 203.695312 175.839844 C 203.355469 175.832031 203.011719 175.832031 202.671875 175.824219 C 201.726562 175.796875 200.785156 175.765625 199.84375 175.726562 C 199.609375 175.714844 199.378906 175.710938 199.148438 175.699219 C 195.582031 175.535156 192.019531 175.25 188.472656 174.847656 C 188.234375 174.820312 188 174.785156 187.761719 174.761719 C 186.832031 174.648438 185.898438 174.539062 184.972656 174.410156 C 184.617188 174.359375 184.265625 174.304688 183.910156 174.253906 C 183.097656 174.136719 182.292969 174.023438 181.480469 173.890625 C 181.070312 173.828125 180.660156 173.753906 180.25 173.683594 C 179.5 173.5625 178.746094 173.433594 177.996094 173.296875 C 177.554688 173.21875 177.117188 173.128906 176.671875 173.046875 C 175.957031 172.910156 175.242188 172.773438 174.527344 172.628906 C 174.0625 172.53125 173.601562 172.429688 173.136719 172.332031 C 172.445312 172.183594 171.757812 172.035156 171.066406 171.878906 C 170.589844 171.769531 170.113281 171.65625 169.636719 171.542969 C 168.964844 171.382812 168.292969 171.21875 167.621094 171.050781 C 167.132812 170.925781 166.648438 170.804688 166.160156 170.675781 C 165.503906 170.503906 164.847656 170.332031 164.191406 170.148438 C 163.699219 170.011719 163.203125 169.871094 162.710938 169.730469 C 162.0625 169.546875 161.417969 169.359375 160.773438 169.167969 C 160.277344 169.019531 159.777344 168.863281 159.28125 168.714844 C 158.644531 168.519531 158.007812 168.3125 157.375 168.109375 C 156.875 167.945312 156.375 167.78125 155.875 167.613281 C 155.246094 167.40625 154.617188 167.191406 153.988281 166.96875 C 153.488281 166.796875 152.992188 166.621094 152.492188 166.445312 C 151.867188 166.21875 151.246094 165.988281 150.625 165.757812 C 150.125 165.570312 149.625 165.386719 149.132812 165.195312 C 148.507812 164.953125 147.890625 164.707031 147.269531 164.460938 C 146.78125 164.265625 146.285156 164.070312 145.796875 163.871094 C 145.171875 163.613281 144.546875 163.34375 143.925781 163.082031 C 143.445312 162.878906 142.964844 162.679688 142.484375 162.46875 C 142.398438 162.433594 142.316406 162.394531 142.230469 162.351562 C 142.726562 162.140625 143.226562 161.9375 143.722656 161.734375 C 143.980469 161.628906 144.234375 161.519531 144.488281 161.417969 C 145.308594 161.089844 146.128906 160.773438 146.953125 160.46875 C 147.035156 160.4375 147.121094 160.40625 147.203125 160.378906 C 147.945312 160.105469 148.6875 159.835938 149.433594 159.585938 C 149.71875 159.484375 150 159.394531 150.285156 159.300781 C 150.835938 159.121094 151.382812 158.9375 151.933594 158.761719 C 152.265625 158.65625 152.605469 158.558594 152.9375 158.457031 C 153.445312 158.304688 153.945312 158.148438 154.453125 158.003906 C 154.808594 157.902344 155.167969 157.804688 155.523438 157.707031 C 156.011719 157.574219 156.5 157.4375 156.988281 157.3125 C 157.355469 157.214844 157.726562 157.125 158.09375 157.03125 C 158.578125 156.914062 159.058594 156.792969 159.539062 156.683594 C 159.917969 156.589844 160.296875 156.507812 160.675781 156.425781 C 161.152344 156.320312 161.632812 156.214844 162.113281 156.113281 C 162.492188 156.035156 162.875 155.957031 163.261719 155.882812 C 163.738281 155.789062 164.21875 155.699219 164.699219 155.613281 C 165.085938 155.542969 165.46875 155.472656 165.855469 155.410156 C 166.339844 155.324219 166.824219 155.25 167.3125 155.175781 C 167.695312 155.113281 168.078125 155.054688 168.460938 155 C 168.953125 154.929688 169.449219 154.863281 169.945312 154.796875 C 170.324219 154.75 170.699219 154.699219 171.082031 154.652344 C 171.589844 154.59375 172.097656 154.539062 172.609375 154.488281 C 172.976562 154.449219 173.34375 154.410156 173.710938 154.371094 C 174.246094 154.320312 174.785156 154.28125 175.320312 154.238281 C 175.664062 154.214844 176.007812 154.179688 176.351562 154.160156 C 176.945312 154.121094 177.542969 154.085938 178.136719 154.054688 C 178.429688 154.039062 178.71875 154.023438 179.007812 154.007812 C 179.894531 153.972656 180.785156 153.9375 181.675781 153.921875 C 191.199219 153.746094 200.515625 154.417969 209.355469 155.929688 C 211.019531 156.214844 212.683594 156.523438 214.339844 156.871094 C 214.847656 156.976562 215.351562 157.105469 215.859375 157.21875 C 217.003906 157.46875 218.148438 157.71875 219.285156 157.996094 C 219.898438 158.148438 220.503906 158.328125 221.117188 158.484375 C 222.136719 158.753906 223.160156 159.015625 224.171875 159.304688 C 224.847656 159.5 225.511719 159.722656 226.179688 159.925781 Z M 166.15625 93.5 C 165.898438 93.015625 165.648438 92.523438 165.390625 92.035156 C 165.433594 92.046875 165.472656 92.054688 165.515625 92.066406 C 165.886719 92.144531 166.253906 92.234375 166.625 92.324219 C 167.261719 92.46875 167.894531 92.609375 168.527344 92.769531 C 168.933594 92.875 169.335938 92.980469 169.742188 93.089844 C 170.332031 93.242188 170.917969 93.398438 171.503906 93.5625 C 171.929688 93.679688 172.347656 93.808594 172.769531 93.929688 C 173.332031 94.097656 173.890625 94.261719 174.449219 94.433594 C 174.878906 94.570312 175.304688 94.710938 175.734375 94.851562 C 176.277344 95.027344 176.824219 95.207031 177.363281 95.390625 C 177.792969 95.539062 178.222656 95.695312 178.652344 95.851562 C 179.183594 96.039062 179.710938 96.230469 180.238281 96.433594 C 180.671875 96.59375 181.101562 96.761719 181.53125 96.933594 C 182.050781 97.132812 182.566406 97.339844 183.085938 97.554688 C 183.511719 97.734375 183.9375 97.910156 184.367188 98.09375 C 184.878906 98.3125 185.386719 98.53125 185.894531 98.761719 C 186.316406 98.949219 186.742188 99.140625 187.160156 99.339844 C 187.667969 99.570312 188.167969 99.808594 188.671875 100.050781 C 189.089844 100.25 189.503906 100.453125 189.917969 100.660156 C 190.421875 100.910156 190.914062 101.164062 191.414062 101.425781 C 191.820312 101.636719 192.230469 101.851562 192.636719 102.066406 C 193.136719 102.332031 193.632812 102.605469 194.128906 102.882812 C 194.523438 103.105469 194.921875 103.324219 195.316406 103.550781 C 195.816406 103.839844 196.3125 104.132812 196.804688 104.429688 C 197.191406 104.660156 197.578125 104.882812 197.957031 105.117188 C 198.464844 105.425781 198.964844 105.75 199.46875 106.066406 C 199.832031 106.300781 200.199219 106.527344 200.558594 106.761719 C 201.085938 107.105469 201.605469 107.460938 202.125 107.816406 C 202.460938 108.039062 202.792969 108.257812 203.117188 108.488281 C 203.703125 108.894531 204.277344 109.308594 204.851562 109.726562 C 205.113281 109.917969 205.378906 110.101562 205.640625 110.292969 C 206.476562 110.914062 207.304688 111.539062 208.128906 112.183594 C 213.742188 116.59375 218.964844 121.300781 223.714844 126.230469 C 225.300781 127.875 226.832031 129.542969 228.308594 131.230469 C 229.40625 132.488281 230.476562 133.765625 231.523438 135.054688 C 231.632812 135.191406 231.742188 135.320312 231.847656 135.457031 C 232.84375 136.683594 233.804688 137.933594 234.746094 139.195312 C 234.894531 139.390625 235.039062 139.585938 235.1875 139.78125 C 236.105469 141.023438 237 142.277344 237.867188 143.539062 C 238.015625 143.757812 238.164062 143.976562 238.3125 144.191406 C 239.179688 145.464844 240.019531 146.753906 240.839844 148.054688 C 240.964844 148.257812 241.089844 148.457031 241.21875 148.65625 C 242.046875 149.996094 242.855469 151.347656 243.636719 152.710938 C 243.71875 152.847656 243.792969 152.984375 243.871094 153.121094 C 244.6875 154.558594 245.476562 156.003906 246.234375 157.46875 L 246.246094 157.484375 C 247.003906 158.949219 247.734375 160.429688 248.4375 161.917969 C 248.507812 162.074219 248.585938 162.226562 248.652344 162.378906 C 249.320312 163.800781 249.953125 165.238281 250.566406 166.683594 C 250.621094 166.8125 250.675781 166.9375 250.730469 167.0625 C 250.097656 166.730469 249.464844 166.40625 248.832031 166.082031 C 248.648438 165.988281 248.472656 165.894531 248.292969 165.804688 C 247.378906 165.339844 246.457031 164.890625 245.53125 164.445312 C 245.257812 164.316406 244.984375 164.191406 244.710938 164.0625 C 244.046875 163.75 243.382812 163.445312 242.71875 163.144531 C 242.371094 162.992188 242.027344 162.839844 241.679688 162.6875 C 241.074219 162.421875 240.46875 162.15625 239.859375 161.898438 C 239.496094 161.746094 239.128906 161.59375 238.765625 161.445312 C 238.15625 161.195312 237.550781 160.949219 236.9375 160.710938 C 236.582031 160.570312 236.230469 160.433594 235.875 160.292969 C 235.207031 160.035156 234.539062 159.789062 233.875 159.542969 C 233.574219 159.433594 233.277344 159.324219 232.976562 159.214844 C 232.019531 158.875 231.054688 158.535156 230.089844 158.21875 C 228.335938 157.257812 226.605469 156.265625 224.894531 155.242188 C 224.507812 155.015625 224.136719 154.765625 223.75 154.53125 C 222.429688 153.726562 221.105469 152.917969 219.8125 152.070312 C 219.210938 151.679688 218.625 151.265625 218.023438 150.867188 C 216.96875 150.160156 215.90625 149.457031 214.867188 148.726562 C 214.210938 148.261719 213.570312 147.777344 212.921875 147.304688 C 211.964844 146.609375 211 145.921875 210.058594 145.203125 C 209.390625 144.691406 208.730469 144.15625 208.070312 143.636719 C 207.175781 142.933594 206.277344 142.230469 205.402344 141.511719 C 204.730469 140.960938 204.074219 140.386719 203.414062 139.824219 C 202.570312 139.105469 201.71875 138.390625 200.890625 137.65625 C 200.226562 137.0625 199.582031 136.460938 198.929688 135.859375 C 198.125 135.121094 197.320312 134.386719 196.53125 133.632812 C 195.882812 133.011719 195.25 132.375 194.613281 131.742188 C 193.84375 130.984375 193.074219 130.226562 192.324219 129.453125 C 191.695312 128.800781 191.078125 128.132812 190.460938 127.476562 C 189.726562 126.691406 188.996094 125.914062 188.28125 125.121094 C 187.667969 124.4375 187.070312 123.742188 186.472656 123.050781 C 185.777344 122.25 185.078125 121.449219 184.402344 120.632812 C 183.804688 119.921875 183.230469 119.195312 182.648438 118.476562 C 181.988281 117.65625 181.328125 116.835938 180.683594 115.996094 C 180.113281 115.257812 179.558594 114.511719 179 113.761719 C 178.375 112.921875 177.746094 112.078125 177.136719 111.21875 C 176.589844 110.453125 176.054688 109.675781 175.523438 108.902344 C 174.929688 108.039062 174.339844 107.175781 173.761719 106.300781 C 173.242188 105.507812 172.730469 104.703125 172.21875 103.902344 C 171.664062 103.023438 171.109375 102.140625 170.566406 101.25 C 170.070312 100.425781 169.582031 99.597656 169.097656 98.769531 C 168.574219 97.871094 168.054688 96.96875 167.550781 96.058594 C 167.078125 95.214844 166.613281 94.359375 166.15625 93.5 Z M 135.550781 162.339844 C 122.335938 168.828125 110.652344 177.839844 100.78125 189.160156 C 88.085938 203.710938 79.1875 221.46875 75.042969 240.515625 C 74.886719 241.25 75.332031 241.976562 76.058594 242.167969 C 89.601562 245.714844 103.351562 247.480469 117.058594 247.480469 C 137.515625 247.480469 157.871094 243.550781 177.332031 235.746094 C 209.667969 222.769531 236.417969 200.355469 254.695312 170.925781 L 254.695312 170.921875 L 254.734375 170.832031 C 254.761719 170.785156 254.785156 170.746094 254.804688 170.699219 L 254.820312 170.667969 C 260.210938 155.808594 262.921875 140.195312 262.882812 124.257812 C 262.882812 115.15625 261.957031 105.6875 260.128906 96.117188 C 254.316406 65.832031 235.671875 39.140625 208.964844 22.886719 C 190.191406 11.449219 168.519531 5.652344 146.285156 6.125 C 145.5625 6.140625 144.96875 6.707031 144.917969 7.429688 C 142.996094 35.222656 148.34375 63.085938 160.351562 88.210938 C 148.070312 86.1875 135.574219 86.234375 123.164062 88.363281 C 105.808594 91.332031 89.0625 98.421875 74.738281 108.859375 C 74.121094 109.3125 73.980469 110.179688 74.425781 110.800781 C 90.101562 132.789062 111.199219 150.546875 135.550781 162.339844 " fill-opacity="1" fill-rule="nonzero"/></svg>