<svg xmlns="http://www.w3.org/2000/svg" xmlns:xlink="http://www.w3.org/1999/xlink" width="240" zoomAndPan="magnify" viewBox="0 0 180 177.750001" height="237" preserveAspectRatio="xMidYMid meet" version="1.0"><defs><g/><clipPath id="60bd59015b"><path d="M 17.492188 16.210938 L 162.507812 16.210938 L 162.507812 161.230469 L 17.492188 161.230469 Z M 17.492188 16.210938 " clip-rule="nonzero"/></clipPath><clipPath id="06ae2d7c16"><path d="M 90 16.210938 C 49.953125 16.210938 17.492188 48.671875 17.492188 88.71875 C 17.492188 128.765625 49.953125 161.230469 90 161.230469 C 130.046875 161.230469 162.507812 128.765625 162.507812 88.71875 C 162.507812 48.671875 130.046875 16.210938 90 16.210938 " clip-rule="nonzero"/></clipPath><clipPath id="bfff31eb6f"><path d="M 52.164062 19.257812 L 135 19.257812 L 135 157.8125 L 52.164062 157.8125 Z M 52.164062 19.257812 " clip-rule="nonzero"/></clipPath><clipPath id="12573d84dd"><path d="M 0.125 58 L 21 58 L 21 90 L 0.125 90 Z M 0.125 58 " clip-rule="nonzero"/></clipPath></defs><g clip-path="url(#60bd59015b)"><g clip-path="url(#06ae2d7c16)"><path fill="#d5c2dd" d="M 17.492188 16.210938 L 162.507812 16.210938 L 162.507812 161.230469 L 17.492188 161.230469 Z M 17.492188 16.210938 " fill-opacity="1" fill-rule="nonzero"/></g></g><g clip-path="url(#bfff31eb6f)"><path fill="#000000" d="M 87.675781 117.757812 C 94.742188 111.019531 105.804688 106.914062 112.839844 101.359375 C 118.640625 96.78125 123.910156 91.015625 126.820312 84.152344 C 129.664062 77.449219 129.578125 70.160156 129.082031 63.023438 C 131.742188 66.761719 134.257812 71.078125 133.238281 75.765625 C 132.332031 79.914062 129.328125 83.359375 129.066406 87.683594 C 128.8125 91.894531 131.25 95.582031 132.578125 99.414062 C 133.21875 101.269531 133.800781 103.660156 132.730469 105.480469 C 131.578125 107.4375 129.046875 106.777344 127.347656 107.859375 C 125.976562 108.726562 125.839844 109.847656 126.214844 111.296875 C 126.371094 111.90625 126.570312 112.753906 126.328125 113.390625 C 126.03125 114.171875 125.125 114.242188 124.46875 114.371094 C 123.957031 114.464844 123.359375 114.515625 122.902344 114.796875 C 121.878906 115.425781 122.007812 116.351562 122.375 117.347656 C 122.65625 118.117188 123.386719 118.40625 122.742188 119.550781 C 122.074219 120.738281 121.0625 120.195312 120.136719 120.363281 C 119.691406 120.441406 119.328125 120.589844 118.960938 120.855469 C 117.714844 121.757812 117.40625 123.347656 117.21875 124.773438 C 116.835938 127.644531 115.6875 129.632812 112.777344 130.558594 C 108.210938 132.015625 102.71875 130.839844 98.726562 128.386719 C 94.359375 125.707031 90.945312 121.710938 87.675781 117.757812 Z M 85.542969 118.609375 C 80.808594 124.007812 78.859375 130.765625 80.617188 137.796875 C 82.527344 145.421875 87.835938 151.441406 92.96875 157.148438 C 93.425781 157.660156 94.179688 156.90625 93.722656 156.398438 C 87.632812 149.625 80.929688 141.929688 80.984375 132.269531 C 81.019531 126.527344 83.382812 122.136719 86.921875 118.507812 C 91.066406 123.535156 95.554688 128.769531 101.730469 131.042969 C 105.605469 132.46875 111.304688 132.988281 114.988281 130.734375 C 116.480469 129.824219 117.566406 128.441406 117.992188 126.742188 C 118.28125 125.59375 118.199219 124.367188 118.585938 123.242188 C 118.96875 122.132812 119.460938 121.609375 120.714844 121.386719 C 121.140625 121.316406 121.585938 121.453125 122.023438 121.355469 C 123.253906 121.070312 124.121094 119.796875 124 118.546875 C 123.929688 117.777344 122.769531 116.410156 123.441406 115.714844 C 123.890625 115.246094 125.277344 115.375 125.882812 115.121094 C 127.089844 114.621094 127.75 113.375 127.578125 112.101562 C 127.460938 111.222656 126.707031 110.378906 127.207031 109.421875 C 127.636719 108.605469 128.65625 108.398438 129.449219 108.214844 C 130.410156 107.984375 131.410156 107.945312 132.28125 107.417969 C 135.304688 105.59375 134.410156 101.277344 133.40625 98.578125 C 131.679688 93.941406 129.046875 89.742188 130.785156 84.660156 C 132.175781 80.601562 134.90625 77.054688 134.488281 72.550781 C 134.082031 68.160156 131.414062 64.378906 128.871094 60.9375 C 128.59375 60.558594 127.832031 60.625 127.878906 61.203125 C 128.261719 66.121094 128.585938 71.097656 127.921875 76.003906 C 127.292969 80.621094 125.644531 84.929688 123.109375 88.839844 C 118.535156 95.894531 111.835938 101.425781 104.605469 105.601562 C 98.566406 109.089844 92.078125 112.101562 87.066406 117.015625 C 86.625 116.484375 86.1875 115.953125 85.75 115.425781 C 85.308594 114.898438 84.558594 115.652344 84.996094 116.175781 C 85.433594 116.703125 85.871094 117.238281 86.316406 117.777344 C 86.054688 118.050781 85.796875 118.324219 85.542969 118.609375 Z M 53.515625 59.183594 C 58.742188 55.480469 64.804688 52.960938 71.082031 51.890625 C 75.941406 51.058594 80.835938 51.082031 85.632812 51.960938 C 85.949219 52.585938 86.277344 53.207031 86.613281 53.820312 C 86.636719 53.867188 86.664062 53.910156 86.691406 53.957031 C 87.023438 54.566406 87.367188 55.164062 87.722656 55.757812 C 87.851562 55.972656 87.984375 56.1875 88.117188 56.402344 C 88.371094 56.820312 88.628906 57.238281 88.898438 57.652344 C 89.054688 57.898438 89.214844 58.136719 89.375 58.378906 C 89.625 58.753906 89.878906 59.132812 90.136719 59.503906 C 90.3125 59.75 90.484375 59.996094 90.660156 60.242188 C 90.921875 60.601562 91.183594 60.957031 91.449219 61.3125 C 91.628906 61.554688 91.8125 61.792969 91.996094 62.03125 C 92.269531 62.386719 92.550781 62.734375 92.832031 63.082031 C 93.015625 63.308594 93.199219 63.539062 93.386719 63.761719 C 93.6875 64.125 93.996094 64.480469 94.308594 64.835938 C 94.480469 65.035156 94.652344 65.234375 94.828125 65.433594 C 95.203125 65.847656 95.582031 66.257812 95.96875 66.660156 C 96.089844 66.789062 96.207031 66.921875 96.332031 67.050781 C 96.84375 67.582031 97.363281 68.101562 97.894531 68.613281 C 98.007812 68.722656 98.125 68.828125 98.238281 68.933594 C 98.65625 69.332031 99.082031 69.726562 99.511719 70.113281 C 99.703125 70.289062 99.902344 70.453125 100.097656 70.625 C 100.457031 70.941406 100.816406 71.253906 101.183594 71.558594 C 101.40625 71.746094 101.632812 71.925781 101.855469 72.105469 C 102.207031 72.390625 102.558594 72.671875 102.914062 72.949219 C 103.152344 73.132812 103.390625 73.3125 103.628906 73.492188 C 103.988281 73.761719 104.34375 74.023438 104.710938 74.285156 C 104.953125 74.460938 105.195312 74.632812 105.441406 74.804688 C 105.816406 75.066406 106.191406 75.320312 106.574219 75.570312 C 106.8125 75.730469 107.050781 75.890625 107.296875 76.046875 C 107.386719 76.105469 107.472656 76.167969 107.5625 76.226562 C 107.1875 76.136719 106.808594 76.054688 106.433594 75.972656 C 106.21875 75.925781 106.011719 75.875 105.800781 75.832031 C 105.171875 75.699219 104.542969 75.582031 103.910156 75.472656 C 103.503906 75.40625 103.09375 75.339844 102.679688 75.28125 C 102.546875 75.261719 102.414062 75.246094 102.28125 75.226562 C 101.996094 75.1875 101.710938 75.148438 101.425781 75.113281 C 101.273438 75.09375 101.117188 75.078125 100.964844 75.058594 C 100.695312 75.027344 100.425781 75 100.15625 74.972656 C 99.996094 74.957031 99.832031 74.941406 99.671875 74.925781 C 99.40625 74.902344 99.136719 74.878906 98.871094 74.859375 C 98.703125 74.847656 98.542969 74.835938 98.378906 74.824219 C 98.109375 74.804688 97.835938 74.789062 97.566406 74.773438 C 97.402344 74.765625 97.242188 74.757812 97.082031 74.75 C 96.800781 74.738281 96.519531 74.726562 96.238281 74.71875 C 96.082031 74.714844 95.929688 74.707031 95.773438 74.703125 C 95.480469 74.699219 95.183594 74.695312 94.886719 74.691406 C 94.742188 74.691406 94.601562 74.6875 94.453125 74.6875 C 94.410156 74.6875 94.367188 74.6875 94.324219 74.6875 C 93.941406 74.6875 93.554688 74.691406 93.167969 74.695312 C 92.8125 74.703125 92.453125 74.714844 92.097656 74.730469 C 91.984375 74.734375 91.867188 74.742188 91.753906 74.75 C 91.511719 74.761719 91.269531 74.773438 91.03125 74.792969 C 90.894531 74.800781 90.753906 74.816406 90.617188 74.828125 C 90.402344 74.84375 90.183594 74.859375 89.96875 74.878906 C 89.820312 74.894531 89.671875 74.910156 89.523438 74.929688 C 89.320312 74.949219 89.117188 74.96875 88.914062 74.992188 C 88.757812 75.011719 88.605469 75.035156 88.449219 75.054688 C 88.253906 75.082031 88.058594 75.105469 87.863281 75.132812 C 87.707031 75.15625 87.550781 75.1875 87.390625 75.210938 C 87.199219 75.242188 87.007812 75.269531 86.820312 75.300781 C 86.660156 75.332031 86.503906 75.363281 86.34375 75.390625 C 86.15625 75.425781 85.96875 75.457031 85.78125 75.496094 C 85.621094 75.527344 85.460938 75.5625 85.300781 75.597656 C 85.117188 75.636719 84.933594 75.675781 84.75 75.71875 C 84.589844 75.753906 84.429688 75.792969 84.269531 75.832031 C 84.085938 75.875 83.90625 75.917969 83.722656 75.964844 C 83.5625 76.003906 83.402344 76.050781 83.246094 76.089844 C 83.066406 76.140625 82.882812 76.1875 82.703125 76.238281 C 82.542969 76.285156 82.382812 76.332031 82.222656 76.378906 C 82.046875 76.429688 81.871094 76.480469 81.691406 76.535156 C 81.53125 76.585938 81.375 76.640625 81.214844 76.691406 C 81.039062 76.746094 80.863281 76.804688 80.6875 76.863281 C 80.527344 76.917969 80.371094 76.972656 80.214844 77.027344 C 80.039062 77.089844 79.863281 77.152344 79.6875 77.214844 C 79.53125 77.273438 79.375 77.335938 79.21875 77.394531 C 79.046875 77.460938 78.871094 77.527344 78.699219 77.59375 C 78.542969 77.65625 78.386719 77.71875 78.234375 77.785156 C 78.058594 77.855469 77.886719 77.925781 77.714844 78 C 77.5625 78.0625 77.410156 78.132812 77.253906 78.199219 C 77.121094 78.257812 76.988281 78.316406 76.855469 78.375 C 67.574219 74.050781 59.515625 67.425781 53.515625 59.183594 Z M 76.855469 79.546875 C 77.285156 79.742188 77.71875 79.933594 78.15625 80.121094 C 78.222656 80.152344 78.292969 80.175781 78.359375 80.207031 C 78.769531 80.382812 79.183594 80.550781 79.597656 80.71875 C 79.753906 80.78125 79.910156 80.839844 80.0625 80.902344 C 80.398438 81.03125 80.734375 81.160156 81.070312 81.285156 C 81.238281 81.347656 81.40625 81.410156 81.574219 81.46875 C 81.917969 81.59375 82.265625 81.714844 82.613281 81.832031 C 82.757812 81.882812 82.902344 81.933594 83.050781 81.984375 C 83.539062 82.144531 84.03125 82.304688 84.523438 82.453125 C 85.023438 82.605469 85.523438 82.753906 86.027344 82.890625 C 86.160156 82.929688 86.296875 82.964844 86.433594 83 C 86.796875 83.101562 87.164062 83.199219 87.535156 83.289062 C 87.695312 83.332031 87.859375 83.371094 88.019531 83.410156 C 88.378906 83.496094 88.734375 83.582031 89.089844 83.660156 C 89.242188 83.695312 89.394531 83.730469 89.550781 83.761719 C 89.980469 83.855469 90.410156 83.941406 90.839844 84.027344 C 90.914062 84.042969 90.988281 84.058594 91.0625 84.070312 C 91.574219 84.167969 92.085938 84.261719 92.597656 84.34375 C 92.707031 84.363281 92.816406 84.378906 92.925781 84.394531 C 93.328125 84.457031 93.726562 84.519531 94.128906 84.574219 C 94.285156 84.597656 94.445312 84.617188 94.605469 84.640625 C 94.96875 84.6875 95.328125 84.730469 95.6875 84.769531 C 95.847656 84.789062 96.011719 84.808594 96.171875 84.824219 C 96.566406 84.867188 96.964844 84.902344 97.359375 84.9375 C 97.476562 84.945312 97.59375 84.957031 97.710938 84.96875 C 98.226562 85.011719 98.742188 85.042969 99.261719 85.074219 C 99.332031 85.078125 99.402344 85.078125 99.472656 85.082031 C 99.914062 85.105469 100.355469 85.121094 100.796875 85.136719 C 100.953125 85.140625 101.109375 85.144531 101.269531 85.144531 C 101.628906 85.15625 101.992188 85.160156 102.351562 85.160156 C 102.441406 85.160156 102.535156 85.164062 102.625 85.164062 C 102.738281 85.164062 102.847656 85.164062 102.960938 85.164062 C 103.136719 85.160156 103.3125 85.160156 103.484375 85.15625 C 103.742188 85.152344 104 85.148438 104.253906 85.140625 C 104.417969 85.136719 104.582031 85.132812 104.746094 85.125 C 105.042969 85.117188 105.34375 85.101562 105.644531 85.089844 C 105.761719 85.082031 105.882812 85.078125 106 85.070312 C 106.414062 85.050781 106.828125 85.023438 107.242188 84.992188 C 107.355469 84.980469 107.472656 84.972656 107.589844 84.964844 C 107.890625 84.9375 108.195312 84.910156 108.5 84.882812 C 108.652344 84.867188 108.804688 84.851562 108.960938 84.835938 C 109.230469 84.808594 109.496094 84.78125 109.765625 84.746094 C 109.925781 84.730469 110.085938 84.710938 110.246094 84.691406 C 110.511719 84.65625 110.78125 84.621094 111.046875 84.585938 C 111.203125 84.5625 111.355469 84.542969 111.507812 84.519531 C 111.804688 84.476562 112.097656 84.429688 112.390625 84.382812 C 112.515625 84.363281 112.636719 84.347656 112.757812 84.324219 C 113.175781 84.253906 113.59375 84.183594 114.011719 84.101562 C 114.039062 84.097656 114.066406 84.09375 114.09375 84.085938 C 114.480469 84.015625 114.871094 83.933594 115.253906 83.855469 C 115.386719 83.828125 115.515625 83.800781 115.644531 83.769531 C 115.929688 83.707031 116.214844 83.644531 116.503906 83.578125 C 116.652344 83.542969 116.800781 83.507812 116.949219 83.472656 C 117.21875 83.410156 117.488281 83.34375 117.757812 83.273438 C 117.90625 83.234375 118.058594 83.199219 118.207031 83.160156 C 118.484375 83.085938 118.765625 83.011719 119.042969 82.933594 C 119.140625 82.90625 119.238281 82.882812 119.335938 82.855469 C 105.308594 104.230469 78.605469 114.667969 53.726562 108.398438 C 55.3125 101.523438 58.574219 95.121094 63.179688 89.851562 C 67.035156 85.441406 71.636719 81.972656 76.855469 79.546875 Z M 123.054688 64.484375 C 123.070312 69.945312 122.214844 75.296875 120.511719 80.425781 C 120.492188 80.375 120.46875 80.328125 120.449219 80.28125 C 120.207031 79.703125 119.953125 79.136719 119.691406 78.574219 C 119.671875 78.53125 119.648438 78.488281 119.628906 78.445312 C 119.355469 77.867188 119.074219 77.292969 118.78125 76.726562 C 118.773438 76.707031 118.765625 76.6875 118.753906 76.667969 C 118.460938 76.101562 118.15625 75.546875 117.84375 74.992188 C 117.804688 74.929688 117.769531 74.867188 117.734375 74.804688 C 117.433594 74.277344 117.121094 73.753906 116.796875 73.234375 C 116.746094 73.15625 116.695312 73.074219 116.644531 72.992188 C 116.328125 72.484375 116 71.984375 115.660156 71.488281 C 115.605469 71.40625 115.546875 71.320312 115.488281 71.234375 C 115.148438 70.742188 114.800781 70.25 114.441406 69.765625 C 114.386719 69.691406 114.328125 69.617188 114.273438 69.546875 C 113.902344 69.050781 113.523438 68.5625 113.136719 68.082031 C 113.097656 68.03125 113.054688 67.980469 113.015625 67.933594 C 112.605469 67.425781 112.183594 66.925781 111.753906 66.433594 C 109.460938 63.816406 106.828125 61.335938 103.921875 59.058594 C 103.59375 58.800781 103.265625 58.554688 102.929688 58.308594 C 102.824219 58.230469 102.71875 58.15625 102.613281 58.078125 C 102.382812 57.914062 102.15625 57.75 101.925781 57.585938 C 101.796875 57.496094 101.664062 57.410156 101.53125 57.324219 C 101.320312 57.183594 101.113281 57.039062 100.898438 56.902344 C 100.757812 56.808594 100.613281 56.71875 100.46875 56.632812 C 100.269531 56.5 100.066406 56.371094 99.859375 56.246094 C 99.710938 56.15625 99.558594 56.070312 99.40625 55.980469 C 99.207031 55.863281 99.007812 55.742188 98.804688 55.625 C 98.648438 55.539062 98.488281 55.453125 98.332031 55.367188 C 98.132812 55.257812 97.933594 55.144531 97.734375 55.039062 C 97.574219 54.953125 97.410156 54.871094 97.246094 54.789062 C 97.046875 54.6875 96.851562 54.582031 96.648438 54.484375 C 96.484375 54.402344 96.3125 54.324219 96.144531 54.246094 C 95.945312 54.148438 95.75 54.054688 95.546875 53.960938 C 95.378906 53.882812 95.207031 53.8125 95.035156 53.738281 C 94.835938 53.648438 94.632812 53.558594 94.429688 53.472656 C 94.257812 53.402344 94.082031 53.332031 93.90625 53.261719 C 93.703125 53.179688 93.503906 53.097656 93.300781 53.019531 C 93.125 52.949219 92.941406 52.886719 92.765625 52.820312 C 92.5625 52.746094 92.359375 52.667969 92.15625 52.597656 C 91.972656 52.535156 91.789062 52.472656 91.605469 52.410156 C 91.402344 52.34375 91.203125 52.273438 91 52.210938 C 90.8125 52.148438 90.621094 52.09375 90.4375 52.039062 C 90.230469 51.976562 90.03125 51.914062 89.824219 51.855469 C 89.632812 51.800781 89.441406 51.75 89.25 51.699219 C 89.046875 51.644531 88.84375 51.585938 88.640625 51.535156 C 88.445312 51.484375 88.246094 51.4375 88.050781 51.394531 C 87.847656 51.34375 87.644531 51.292969 87.441406 51.25 C 87.242188 51.203125 87.042969 51.164062 86.84375 51.121094 C 86.679688 51.089844 86.519531 51.050781 86.359375 51.019531 C 81.699219 41.601562 79.578125 31.113281 80.21875 20.640625 C 80.371094 20.636719 80.519531 20.636719 80.671875 20.636719 C 88.605469 20.636719 96.316406 22.78125 103.03125 26.863281 C 112.945312 32.886719 119.871094 42.773438 122.027344 53.988281 C 122.710938 57.558594 123.054688 61.089844 123.054688 64.484375 Z M 110.140625 78.042969 C 110.492188 78.148438 110.847656 78.25 111.199219 78.367188 C 111.210938 78.375 111.222656 78.378906 111.238281 78.382812 C 111.605469 78.503906 111.96875 78.628906 112.335938 78.761719 C 112.453125 78.800781 112.570312 78.847656 112.691406 78.890625 C 112.9375 78.980469 113.183594 79.070312 113.429688 79.167969 C 113.570312 79.21875 113.707031 79.273438 113.847656 79.328125 C 114.070312 79.417969 114.296875 79.507812 114.519531 79.597656 C 114.664062 79.65625 114.808594 79.71875 114.949219 79.777344 C 115.171875 79.871094 115.390625 79.964844 115.609375 80.0625 C 115.75 80.125 115.890625 80.1875 116.03125 80.246094 C 116.257812 80.347656 116.484375 80.453125 116.707031 80.558594 C 116.835938 80.617188 116.964844 80.679688 117.097656 80.742188 C 117.347656 80.859375 117.597656 80.984375 117.847656 81.105469 C 117.945312 81.160156 118.046875 81.207031 118.148438 81.257812 C 118.492188 81.429688 118.835938 81.609375 119.175781 81.792969 C 119.152344 81.796875 119.132812 81.804688 119.105469 81.8125 C 118.953125 81.855469 118.796875 81.894531 118.644531 81.941406 C 118.359375 82.015625 118.074219 82.09375 117.792969 82.167969 C 117.625 82.210938 117.457031 82.253906 117.289062 82.292969 C 117.015625 82.363281 116.746094 82.429688 116.472656 82.496094 C 116.296875 82.535156 116.121094 82.574219 115.945312 82.613281 C 115.679688 82.671875 115.410156 82.734375 115.144531 82.789062 C 114.964844 82.828125 114.785156 82.863281 114.605469 82.898438 C 114.34375 82.953125 114.078125 83.007812 113.8125 83.054688 C 113.632812 83.089844 113.453125 83.121094 113.269531 83.152344 C 113.003906 83.203125 112.742188 83.25 112.476562 83.292969 C 112.292969 83.324219 112.113281 83.351562 111.933594 83.378906 C 111.667969 83.421875 111.402344 83.460938 111.136719 83.496094 C 110.953125 83.523438 110.773438 83.546875 110.59375 83.570312 C 110.324219 83.609375 110.058594 83.640625 109.789062 83.671875 C 109.609375 83.695312 109.429688 83.714844 109.253906 83.734375 C 108.980469 83.765625 108.710938 83.792969 108.441406 83.816406 C 108.261719 83.835938 108.085938 83.851562 107.910156 83.867188 C 107.632812 83.894531 107.359375 83.914062 107.085938 83.933594 C 106.910156 83.945312 106.738281 83.960938 106.566406 83.972656 C 106.285156 83.988281 106.007812 84.003906 105.726562 84.019531 C 105.558594 84.027344 105.390625 84.035156 105.21875 84.042969 C 104.933594 84.054688 104.644531 84.066406 104.359375 84.074219 C 104.195312 84.078125 104.035156 84.082031 103.875 84.085938 C 103.578125 84.09375 103.277344 84.09375 102.980469 84.097656 C 102.832031 84.097656 102.679688 84.101562 102.53125 84.101562 C 102.210938 84.097656 101.894531 84.09375 101.578125 84.089844 C 101.445312 84.085938 101.316406 84.085938 101.1875 84.082031 C 100.828125 84.074219 100.46875 84.0625 100.109375 84.046875 C 100.019531 84.042969 99.933594 84.042969 99.84375 84.035156 C 98.484375 83.976562 97.128906 83.867188 95.777344 83.714844 C 95.6875 83.703125 95.597656 83.691406 95.507812 83.679688 C 95.152344 83.636719 94.796875 83.59375 94.445312 83.546875 C 94.308594 83.527344 94.175781 83.507812 94.039062 83.488281 C 93.730469 83.445312 93.421875 83.398438 93.113281 83.351562 C 92.957031 83.324219 92.800781 83.296875 92.644531 83.269531 C 92.359375 83.222656 92.074219 83.175781 91.789062 83.125 C 91.621094 83.09375 91.453125 83.058594 91.285156 83.027344 C 91.011719 82.976562 90.738281 82.925781 90.464844 82.871094 C 90.289062 82.832031 90.113281 82.792969 89.9375 82.757812 C 89.671875 82.699219 89.410156 82.644531 89.148438 82.585938 C 88.964844 82.542969 88.785156 82.5 88.601562 82.457031 C 88.347656 82.394531 88.089844 82.335938 87.835938 82.269531 C 87.648438 82.222656 87.464844 82.175781 87.28125 82.125 C 87.027344 82.0625 86.777344 81.996094 86.527344 81.925781 C 86.339844 81.875 86.152344 81.820312 85.964844 81.769531 C 85.71875 81.699219 85.472656 81.625 85.226562 81.554688 C 85.039062 81.496094 84.847656 81.4375 84.660156 81.382812 C 84.417969 81.308594 84.175781 81.230469 83.933594 81.152344 C 83.742188 81.089844 83.550781 81.027344 83.363281 80.964844 C 83.121094 80.882812 82.882812 80.804688 82.644531 80.71875 C 82.453125 80.652344 82.261719 80.585938 82.074219 80.519531 C 81.835938 80.433594 81.597656 80.347656 81.359375 80.257812 C 81.171875 80.1875 80.980469 80.117188 80.792969 80.042969 C 80.554688 79.953125 80.320312 79.859375 80.085938 79.765625 C 79.898438 79.691406 79.710938 79.617188 79.523438 79.542969 C 79.285156 79.445312 79.046875 79.339844 78.808594 79.242188 C 78.628906 79.164062 78.445312 79.085938 78.261719 79.007812 C 78.230469 78.992188 78.195312 78.980469 78.164062 78.964844 C 78.351562 78.882812 78.542969 78.804688 78.734375 78.726562 C 78.832031 78.6875 78.925781 78.648438 79.023438 78.609375 C 79.335938 78.484375 79.648438 78.363281 79.960938 78.246094 C 79.996094 78.234375 80.027344 78.222656 80.058594 78.214844 C 80.339844 78.109375 80.625 78.007812 80.90625 77.910156 C 81.015625 77.875 81.125 77.839844 81.234375 77.804688 C 81.441406 77.734375 81.648438 77.664062 81.859375 77.597656 C 81.988281 77.558594 82.117188 77.523438 82.242188 77.484375 C 82.433594 77.425781 82.625 77.367188 82.820312 77.3125 C 82.957031 77.273438 83.089844 77.234375 83.226562 77.199219 C 83.414062 77.148438 83.597656 77.097656 83.785156 77.046875 C 83.925781 77.011719 84.066406 76.976562 84.207031 76.941406 C 84.390625 76.894531 84.574219 76.851562 84.757812 76.808594 C 84.902344 76.773438 85.046875 76.742188 85.191406 76.710938 C 85.371094 76.671875 85.554688 76.628906 85.738281 76.59375 C 85.882812 76.5625 86.027344 76.53125 86.175781 76.503906 C 86.355469 76.46875 86.539062 76.433594 86.722656 76.402344 C 86.871094 76.375 87.015625 76.347656 87.164062 76.324219 C 87.347656 76.292969 87.53125 76.265625 87.71875 76.234375 C 87.863281 76.210938 88.007812 76.191406 88.15625 76.167969 C 88.34375 76.140625 88.53125 76.117188 88.722656 76.089844 C 88.863281 76.074219 89.007812 76.054688 89.152344 76.035156 C 89.347656 76.015625 89.539062 75.996094 89.734375 75.976562 C 89.875 75.960938 90.015625 75.945312 90.15625 75.929688 C 90.359375 75.910156 90.5625 75.894531 90.769531 75.878906 C 90.898438 75.871094 91.03125 75.859375 91.160156 75.851562 C 91.386719 75.835938 91.613281 75.820312 91.839844 75.808594 C 91.953125 75.804688 92.0625 75.796875 92.171875 75.792969 C 92.511719 75.777344 92.847656 75.765625 93.1875 75.761719 C 96.816406 75.691406 100.367188 75.949219 103.734375 76.523438 C 104.367188 76.628906 105 76.75 105.632812 76.878906 C 105.824219 76.921875 106.015625 76.96875 106.210938 77.011719 C 106.644531 77.105469 107.082031 77.203125 107.515625 77.308594 C 107.75 77.367188 107.980469 77.433594 108.210938 77.492188 C 108.601562 77.597656 108.992188 77.695312 109.375 77.804688 C 109.632812 77.878906 109.886719 77.964844 110.140625 78.042969 Z M 87.277344 52.792969 C 87.179688 52.609375 87.082031 52.421875 86.988281 52.238281 C 87.003906 52.242188 87.019531 52.242188 87.035156 52.25 C 87.175781 52.277344 87.316406 52.3125 87.457031 52.347656 C 87.699219 52.402344 87.941406 52.457031 88.179688 52.515625 C 88.335938 52.554688 88.488281 52.597656 88.644531 52.636719 C 88.867188 52.695312 89.089844 52.753906 89.316406 52.816406 C 89.476562 52.863281 89.636719 52.910156 89.796875 52.957031 C 90.011719 53.019531 90.222656 53.082031 90.4375 53.148438 C 90.601562 53.199219 90.761719 53.253906 90.925781 53.308594 C 91.132812 53.375 91.339844 53.441406 91.546875 53.511719 C 91.710938 53.570312 91.875 53.628906 92.039062 53.6875 C 92.238281 53.757812 92.441406 53.832031 92.640625 53.90625 C 92.808594 53.96875 92.96875 54.035156 93.132812 54.097656 C 93.332031 54.175781 93.527344 54.253906 93.726562 54.335938 C 93.886719 54.402344 94.050781 54.46875 94.214844 54.539062 C 94.410156 54.621094 94.601562 54.707031 94.796875 54.792969 C 94.957031 54.867188 95.117188 54.9375 95.277344 55.011719 C 95.472656 55.101562 95.664062 55.191406 95.855469 55.285156 C 96.011719 55.359375 96.171875 55.4375 96.328125 55.515625 C 96.519531 55.609375 96.707031 55.707031 96.898438 55.804688 C 97.054688 55.886719 97.210938 55.96875 97.363281 56.050781 C 97.554688 56.148438 97.742188 56.253906 97.933594 56.359375 C 98.082031 56.445312 98.234375 56.527344 98.382812 56.613281 C 98.574219 56.722656 98.765625 56.835938 98.953125 56.949219 C 99.101562 57.035156 99.246094 57.121094 99.390625 57.210938 C 99.585938 57.328125 99.773438 57.449219 99.96875 57.570312 C 100.105469 57.660156 100.246094 57.746094 100.382812 57.835938 C 100.582031 57.964844 100.78125 58.101562 100.980469 58.234375 C 101.105469 58.320312 101.234375 58.402344 101.355469 58.492188 C 101.578125 58.644531 101.796875 58.800781 102.015625 58.960938 C 102.117188 59.035156 102.21875 59.105469 102.316406 59.175781 C 102.636719 59.410156 102.953125 59.652344 103.265625 59.894531 C 105.402344 61.570312 107.390625 63.359375 109.203125 65.234375 C 109.804688 65.859375 110.390625 66.492188 110.953125 67.132812 C 111.371094 67.613281 111.777344 68.097656 112.175781 68.589844 C 112.21875 68.640625 112.261719 68.691406 112.300781 68.742188 C 112.679688 69.207031 113.046875 69.683594 113.40625 70.164062 C 113.460938 70.238281 113.515625 70.3125 113.570312 70.386719 C 113.921875 70.855469 114.261719 71.332031 114.59375 71.8125 C 114.648438 71.894531 114.707031 71.980469 114.761719 72.0625 C 115.09375 72.542969 115.414062 73.035156 115.726562 73.53125 C 115.773438 73.605469 115.820312 73.683594 115.867188 73.757812 C 116.183594 74.265625 116.492188 74.78125 116.792969 75.296875 C 116.820312 75.351562 116.851562 75.402344 116.878906 75.457031 C 117.191406 76 117.492188 76.550781 117.78125 77.105469 L 117.785156 77.113281 C 118.074219 77.671875 118.351562 78.234375 118.617188 78.796875 C 118.644531 78.859375 118.675781 78.914062 118.703125 78.972656 C 118.957031 79.515625 119.195312 80.0625 119.429688 80.609375 C 119.453125 80.660156 119.472656 80.707031 119.492188 80.753906 C 119.253906 80.628906 119.011719 80.503906 118.769531 80.382812 C 118.699219 80.347656 118.632812 80.308594 118.566406 80.273438 C 118.214844 80.097656 117.863281 79.929688 117.511719 79.757812 C 117.40625 79.710938 117.304688 79.664062 117.199219 79.613281 C 116.945312 79.496094 116.695312 79.378906 116.441406 79.265625 C 116.308594 79.207031 116.175781 79.148438 116.046875 79.089844 C 115.816406 78.992188 115.582031 78.890625 115.351562 78.792969 C 115.214844 78.734375 115.074219 78.675781 114.933594 78.621094 C 114.703125 78.523438 114.472656 78.429688 114.238281 78.339844 C 114.101562 78.285156 113.96875 78.234375 113.832031 78.179688 C 113.578125 78.082031 113.324219 77.988281 113.070312 77.894531 C 112.957031 77.855469 112.84375 77.8125 112.730469 77.769531 C 112.363281 77.640625 111.996094 77.511719 111.632812 77.390625 C 110.960938 77.027344 110.304688 76.648438 109.652344 76.261719 C 109.503906 76.175781 109.363281 76.078125 109.214844 75.992188 C 108.710938 75.683594 108.207031 75.378906 107.714844 75.054688 C 107.484375 74.90625 107.261719 74.75 107.035156 74.597656 C 106.632812 74.332031 106.226562 74.0625 105.832031 73.785156 C 105.582031 73.609375 105.339844 73.425781 105.089844 73.246094 C 104.726562 72.980469 104.359375 72.71875 104 72.445312 C 103.746094 72.25 103.496094 72.046875 103.242188 71.847656 C 102.902344 71.582031 102.5625 71.316406 102.226562 71.042969 C 101.96875 70.832031 101.722656 70.617188 101.46875 70.402344 C 101.148438 70.128906 100.824219 69.855469 100.507812 69.578125 C 100.253906 69.351562 100.007812 69.121094 99.761719 68.894531 C 99.453125 68.613281 99.148438 68.332031 98.847656 68.046875 C 98.601562 67.8125 98.359375 67.570312 98.117188 67.328125 C 97.824219 67.039062 97.53125 66.753906 97.246094 66.460938 C 97.007812 66.210938 96.769531 65.957031 96.535156 65.707031 C 96.257812 65.410156 95.976562 65.113281 95.707031 64.8125 C 95.472656 64.554688 95.242188 64.289062 95.015625 64.027344 C 94.75 63.722656 94.484375 63.417969 94.226562 63.105469 C 94 62.835938 93.78125 62.5625 93.558594 62.285156 C 93.308594 61.976562 93.058594 61.664062 92.8125 61.34375 C 92.59375 61.0625 92.382812 60.78125 92.171875 60.496094 C 91.929688 60.175781 91.691406 59.855469 91.460938 59.527344 C 91.253906 59.238281 91.046875 58.941406 90.84375 58.648438 C 90.621094 58.320312 90.394531 57.992188 90.175781 57.660156 C 89.976562 57.359375 89.78125 57.050781 89.585938 56.75 C 89.375 56.414062 89.164062 56.078125 88.957031 55.738281 C 88.769531 55.425781 88.582031 55.113281 88.398438 54.796875 C 88.199219 54.453125 88 54.113281 87.808594 53.765625 C 87.628906 53.445312 87.453125 53.121094 87.277344 52.792969 Z M 75.621094 78.957031 C 70.585938 81.425781 66.136719 84.851562 62.375 89.152344 C 57.539062 94.683594 54.152344 101.433594 52.574219 108.671875 C 52.511719 108.953125 52.683594 109.226562 52.957031 109.300781 C 58.117188 110.648438 63.355469 111.320312 68.578125 111.320312 C 76.367188 111.320312 84.121094 109.828125 91.535156 106.859375 C 103.851562 101.929688 114.039062 93.40625 121.003906 82.222656 L 121.019531 82.1875 C 121.027344 82.167969 121.039062 82.152344 121.042969 82.136719 L 121.050781 82.125 C 123.105469 76.476562 124.136719 70.542969 124.121094 64.484375 C 124.121094 61.023438 123.769531 57.425781 123.074219 53.789062 C 120.859375 42.277344 113.757812 32.132812 103.582031 25.953125 C 96.433594 21.605469 88.179688 19.402344 79.707031 19.582031 C 79.433594 19.589844 79.207031 19.804688 79.1875 20.078125 C 78.457031 30.640625 80.492188 41.234375 85.066406 50.785156 C 80.386719 50.011719 75.628906 50.03125 70.902344 50.839844 C 64.289062 51.96875 57.914062 54.664062 52.457031 58.632812 C 52.21875 58.804688 52.167969 59.132812 52.335938 59.371094 C 58.308594 67.726562 66.34375 74.476562 75.621094 78.957031 " fill-opacity="1" fill-rule="nonzero"/></g><g clip-path="url(#12573d84dd)"><g fill="#000000" fill-opacity="1"><g transform="translate(14.951692, 90.297942)"><g><path d="M 1.160156 -6.382812 C -0.421875 -12.640625 -7.839844 -17.566406 -12.65625 -20.519531 C -12.742188 -20.550781 -12.761719 -20.644531 -12.730469 -20.730469 C -12.695312 -20.8125 -12.601562 -20.851562 -12.511719 -20.835938 C -7.308594 -19.300781 -0.605469 -16.855469 1.007812 -16.257812 C 1.195312 -16.1875 1.421875 -16.257812 1.542969 -16.4375 C 1.664062 -16.613281 1.648438 -16.851562 1.511719 -17 C -0.757812 -19.640625 -6.484375 -24.660156 -10.457031 -28.023438 C -10.515625 -28.085938 -10.535156 -28.199219 -10.488281 -28.261719 C -10.4375 -28.34375 -10.34375 -28.363281 -10.257812 -28.332031 C -2.824219 -24.863281 3.496094 -22.394531 4.738281 -24.816406 C 4.851562 -25.050781 4.757812 -25.335938 4.523438 -25.449219 C 4.289062 -25.5625 4.023438 -25.480469 3.894531 -25.25 C 2.824219 -23.105469 -8.03125 -28.292969 -12.648438 -30.507812 C -13.351562 -30.824219 -13.984375 -31.132812 -14.566406 -31.410156 C -14.785156 -31.503906 -15.035156 -31.417969 -15.15625 -31.222656 C -15.285156 -31.011719 -15.238281 -30.75 -15.046875 -30.609375 C -13.992188 -29.816406 -6.015625 -23.191406 -1.4375 -18.730469 C -1.328125 -18.640625 -1.320312 -18.476562 -1.394531 -18.363281 C -1.464844 -18.246094 -1.601562 -18.199219 -1.738281 -18.238281 C -5.851562 -19.71875 -12.683594 -22.054688 -16.367188 -22.773438 C -16.574219 -22.828125 -16.789062 -22.71875 -16.878906 -22.519531 C -16.964844 -22.316406 -16.898438 -22.089844 -16.722656 -21.953125 C -16.257812 -21.601562 -15.441406 -21.101562 -14.394531 -20.472656 C -9.851562 -17.730469 -1.367188 -12.605469 0.257812 -6.160156 C 0.730469 -4.277344 0.15625 -3.039062 -0.53125 -2.488281 C -1.054688 -2.074219 -1.765625 -2.015625 -2.34375 -2.328125 C -3.515625 -2.960938 -4.082031 -4.828125 -3.875 -7.296875 C -3.855469 -7.421875 -3.890625 -7.535156 -3.980469 -7.640625 C -4.054688 -7.726562 -4.167969 -7.796875 -4.296875 -7.800781 C -4.542969 -7.828125 -4.773438 -7.632812 -4.800781 -7.382812 C -5.144531 -3.257812 -3.515625 -1.898438 -2.808594 -1.507812 C -1.882812 -1.007812 -0.765625 -1.105469 0.046875 -1.757812 C 0.71875 -2.3125 1.179688 -3.097656 1.292969 -3.980469 C 1.410156 -4.773438 1.371094 -5.609375 1.160156 -6.382812 Z M 1.160156 -6.382812 "/></g></g></g></g><g fill="#000000" fill-opacity="1"><g transform="translate(19.7419, 65.518309)"><g><path d="M 2.171875 -15.316406 C 1.921875 -15.234375 1.78125 -14.96875 1.863281 -14.714844 C 1.890625 -14.644531 4.050781 -7.882812 0.75 -5.785156 C -0.5625 -4.949219 -2.574219 -5.503906 -2.589844 -5.511719 C -2.792969 -5.582031 -3.003906 -5.503906 -3.121094 -5.320312 C -3.21875 -5.152344 -3.210938 -4.914062 -3.082031 -4.757812 C -1.742188 -3.238281 -0.207031 -0.929688 -0.617188 -0.667969 C -0.628906 -0.632812 -0.726562 -0.597656 -0.859375 -0.601562 C -1.484375 -0.648438 -2.039062 -0.972656 -2.414062 -1.476562 C -3.402344 -2.660156 -3.800781 -4.203125 -3.527344 -5.71875 C -3.496094 -5.878906 -3.558594 -6.042969 -3.683594 -6.160156 C -3.804688 -6.273438 -3.992188 -6.296875 -4.148438 -6.25 C -4.296875 -6.179688 -4.410156 -6.058594 -4.441406 -5.894531 C -4.785156 -4.101562 -4.285156 -2.257812 -3.121094 -0.859375 C -2.566406 -0.140625 -1.714844 0.300781 -0.8125 0.335938 C -0.375 0.359375 0.0429688 0.117188 0.226562 -0.289062 L 0.234375 -0.304688 C 0.574219 -1.105469 0.03125 -2.539062 -0.734375 -3.703125 C -0.824219 -3.839844 -0.824219 -4.015625 -0.742188 -4.15625 C -0.679688 -4.300781 -0.539062 -4.394531 -0.378906 -4.398438 C 0.199219 -4.472656 0.753906 -4.667969 1.234375 -5 C 5.175781 -7.476562 2.847656 -14.703125 2.757812 -15.015625 C 2.710938 -15.132812 2.621094 -15.234375 2.523438 -15.277344 C 2.417969 -15.34375 2.28125 -15.347656 2.171875 -15.316406 Z M 2.171875 -15.316406 "/></g></g></g><g fill="#000000" fill-opacity="1"><g transform="translate(24.737041, 54.004093)"><g><path d="M 4.699219 -15.316406 C 4.574219 -15.292969 4.472656 -15.234375 4.402344 -15.128906 C 4.332031 -15.027344 4.304688 -14.894531 4.332031 -14.769531 C 5.097656 -10.542969 2.578125 -5.660156 1.34375 -5.074219 C 0.515625 -4.671875 0.109375 -5.054688 -0.488281 -6.140625 C -0.78125 -6.660156 -1.125 -7.257812 -1.722656 -7.039062 C -2.289062 -6.84375 -2.355469 -6.328125 -2.40625 -5.871094 C -2.453125 -5.195312 -2.675781 -4.550781 -3.0625 -3.976562 C -3.152344 -3.84375 -3.46875 -3.886719 -3.535156 -3.972656 C -4.792969 -6.023438 -5.378906 -5.882812 -5.601562 -5.839844 C -5.972656 -5.769531 -6.1875 -5.417969 -6.214844 -4.839844 C -6.183594 -3.832031 -5.515625 -2.949219 -4.546875 -2.640625 C -4.285156 -2.550781 -4.007812 -2.511719 -3.734375 -2.539062 C -3.582031 -2.417969 -3.382812 -2.390625 -3.210938 -2.488281 C -3.105469 -2.546875 -3.035156 -2.648438 -2.996094 -2.773438 C -2.710938 -2.945312 -2.460938 -3.183594 -2.273438 -3.464844 C -1.851562 -4.058594 -1.585938 -4.738281 -1.523438 -5.464844 C -1.484375 -5.742188 -1.347656 -5.757812 -1.308594 -5.6875 C -0.855469 -4.867188 -0.015625 -3.378906 1.765625 -4.234375 C 2.339844 -4.578125 2.820312 -5.066406 3.152344 -5.65625 C 4.546875 -7.71875 5.851562 -11.558594 5.234375 -14.933594 C 5.222656 -15.046875 5.152344 -15.160156 5.046875 -15.230469 C 4.953125 -15.316406 4.820312 -15.339844 4.699219 -15.316406 Z M -4.398438 -3.589844 C -4.882812 -3.789062 -5.226562 -4.234375 -5.277344 -4.761719 C -4.949219 -4.390625 -4.65625 -4 -4.382812 -3.578125 Z M -4.398438 -3.589844 "/></g></g></g><g fill="#000000" fill-opacity="1"><g transform="translate(31.919089, 43.371452)"><g><path d="M 4.253906 -11.730469 C 3.992188 -11.707031 3.800781 -11.496094 3.824219 -11.234375 C 3.816406 -11.144531 4.242188 -2.9375 -0.398438 -2.007812 C -1.820312 -1.722656 -2.691406 -4.0625 -2.691406 -4.085938 C -2.789062 -4.324219 -3.046875 -4.4375 -3.292969 -4.351562 C -3.527344 -4.253906 -3.65625 -4.007812 -3.570312 -3.761719 C -3.539062 -3.636719 -2.429688 -0.664062 -0.222656 -1.097656 C 0.800781 -1.292969 1.746094 -1.824219 2.441406 -2.609375 C 5.039062 -5.4375 4.753906 -10.984375 4.738281 -11.285156 C 4.734375 -11.410156 4.691406 -11.523438 4.601562 -11.609375 C 4.496094 -11.679688 4.382812 -11.738281 4.253906 -11.730469 Z M -4.460938 -4.3125 C -4.414062 -4.367188 -4.378906 -4.429688 -4.355469 -4.507812 C -4.226562 -4.964844 -4.183594 -5.433594 -4.203125 -5.910156 C -4.226562 -6.171875 -4.449219 -6.351562 -4.699219 -6.34375 C -4.960938 -6.316406 -5.15625 -6.109375 -5.128906 -5.84375 C -5.113281 -5.46875 -5.160156 -5.101562 -5.257812 -4.734375 C -5.3125 -4.542969 -5.214844 -4.308594 -5.035156 -4.214844 C -4.84375 -4.109375 -4.605469 -4.15625 -4.460938 -4.3125 Z M -4.460938 -4.3125 "/></g></g></g><g fill="#000000" fill-opacity="1"><g transform="translate(37.950668, 36.430405)"><g><path d="M 8.847656 -12.691406 C 8.585938 -12.734375 8.339844 -12.558594 8.300781 -12.296875 C 8.289062 -12.21875 7.171875 -5.210938 3.277344 -4.824219 C 1.730469 -4.671875 0.183594 -6.074219 0.175781 -6.085938 C 0.0273438 -6.242188 -0.199219 -6.265625 -0.386719 -6.160156 C -0.550781 -6.050781 -0.648438 -5.832031 -0.605469 -5.636719 C -0.09375 -3.675781 0.238281 -0.921875 -0.25 -0.875 C -0.277344 -0.851562 -0.375 -0.859375 -0.496094 -0.925781 C -1.03125 -1.246094 -1.378906 -1.789062 -1.492188 -2.40625 C -1.835938 -3.910156 -1.496094 -5.464844 -0.570312 -6.695312 C -0.46875 -6.824219 -0.449219 -7 -0.507812 -7.15625 C -0.570312 -7.316406 -0.722656 -7.417969 -0.882812 -7.449219 C -1.046875 -7.453125 -1.203125 -7.394531 -1.308594 -7.265625 C -2.421875 -5.816406 -2.808594 -3.949219 -2.398438 -2.175781 C -2.226562 -1.285156 -1.664062 -0.503906 -0.878906 -0.0664062 C -0.496094 0.148438 -0.0117188 0.125 0.332031 -0.15625 L 0.347656 -0.164062 C 1.011719 -0.726562 1.171875 -2.253906 1.015625 -3.632812 C 0.996094 -3.800781 1.074219 -3.957031 1.210938 -4.042969 C 1.335938 -4.144531 1.5 -4.164062 1.644531 -4.097656 C 2.195312 -3.902344 2.78125 -3.828125 3.355469 -3.90625 C 7.992188 -4.339844 9.171875 -11.835938 9.234375 -12.160156 C 9.246094 -12.285156 9.207031 -12.414062 9.140625 -12.496094 C 9.078125 -12.605469 8.957031 -12.667969 8.847656 -12.691406 Z M 8.847656 -12.691406 "/></g></g></g><g fill="#000000" fill-opacity="1"><g transform="translate(47.590841, 28.400796)"><g><path d="M 11.425781 -11.421875 C 11.296875 -11.433594 11.179688 -11.425781 11.070312 -11.367188 C 10.96875 -11.289062 10.886719 -11.183594 10.867188 -11.070312 C 10.839844 -11.011719 9.453125 -5.460938 5.820312 -5.007812 C 4.992188 -4.996094 4.195312 -5.222656 3.484375 -5.660156 C 3.246094 -5.792969 2.976562 -5.910156 2.6875 -5.992188 C 2.347656 -6.128906 1.960938 -6.09375 1.625 -5.929688 C 0.796875 -5.550781 0.128906 -4.484375 -0.417969 -2.757812 C -0.429688 -2.710938 -0.46875 -2.667969 -0.53125 -2.675781 C -0.585938 -2.664062 -0.652344 -2.707031 -0.664062 -2.765625 L -1.167969 -4.476562 C -1.226562 -4.726562 -1.496094 -4.882812 -1.738281 -4.808594 C -1.984375 -4.734375 -2.121094 -4.472656 -2.0625 -4.222656 L -0.949219 -0.386719 C -0.890625 -0.175781 -0.695312 -0.0429688 -0.480469 -0.0585938 C -0.257812 -0.0585938 -0.0820312 -0.21875 -0.0351562 -0.429688 C 0.691406 -4.023438 1.617188 -4.847656 1.980469 -5.070312 C 2.34375 -5.292969 2.847656 -4.941406 3.074219 -4.824219 C 3.933594 -4.304688 4.929688 -4.046875 5.921875 -4.089844 C 10.191406 -4.609375 11.699219 -10.597656 11.761719 -10.855469 C 11.828125 -11.097656 11.667969 -11.351562 11.425781 -11.421875 Z M 11.425781 -11.421875 "/></g></g></g><g fill="#000000" fill-opacity="1"><g transform="translate(58.87125, 21.966931)"><g><path d="M 12.621094 -8.949219 C 12.386719 -9.074219 12.097656 -8.992188 11.972656 -8.761719 C 11.9375 -8.691406 8.511719 -2.472656 4.714844 -3.429688 C 3.210938 -3.808594 2.230469 -5.652344 2.222656 -5.667969 C 2.136719 -5.863281 1.933594 -5.960938 1.71875 -5.925781 C 1.53125 -5.878906 1.363281 -5.707031 1.339844 -5.511719 C 1.15625 -3.488281 0.535156 -0.789062 0.0625 -0.90625 C 0.0273438 -0.894531 -0.0625 -0.9375 -0.15625 -1.039062 C -0.546875 -1.523438 -0.691406 -2.148438 -0.585938 -2.769531 C -0.40625 -4.300781 0.441406 -5.648438 1.730469 -6.492188 C 1.867188 -6.578125 1.945312 -6.738281 1.945312 -6.90625 C 1.941406 -7.074219 1.832031 -7.226562 1.691406 -7.308594 C 1.539062 -7.367188 1.371094 -7.367188 1.230469 -7.28125 C -0.308594 -6.292969 -1.304688 -4.664062 -1.523438 -2.859375 C -1.660156 -1.960938 -1.398438 -1.039062 -0.804688 -0.359375 C -0.515625 -0.0273438 -0.0546875 0.113281 0.363281 -0.03125 L 0.382812 -0.0390625 C 1.199219 -0.34375 1.867188 -1.722656 2.183594 -3.074219 C 2.222656 -3.238281 2.351562 -3.359375 2.507812 -3.394531 C 2.660156 -3.449219 2.820312 -3.410156 2.9375 -3.300781 C 3.386719 -2.929688 3.910156 -2.660156 4.480469 -2.539062 C 8.988281 -1.378906 12.636719 -8.03125 12.804688 -8.316406 C 12.859375 -8.429688 12.867188 -8.566406 12.832031 -8.664062 C 12.808594 -8.789062 12.71875 -8.886719 12.621094 -8.949219 Z M 12.621094 -8.949219 "/></g></g></g><g fill="#000000" fill-opacity="1"><g transform="translate(70.928389, 17.910169)"><g/></g></g><g fill="#000000" fill-opacity="1"><g transform="translate(75.71922, 16.485996)"><g><path d="M 12.613281 -3.636719 C 13.355469 -6.863281 10.304688 -9.425781 7.367188 -11.925781 C 4.566406 -14.296875 1.898438 -16.554688 2.871094 -19.035156 C 3.59375 -20.921875 6.300781 -20.96875 7.851562 -20.824219 C 12.011719 -20.414062 16.769531 -17.914062 17.125 -15.964844 C 17.238281 -15.261719 16.742188 -14.628906 15.617188 -14.082031 C 14.027344 -13.492188 12.335938 -13.25 10.648438 -13.328125 C 10.398438 -13.34375 10.183594 -13.144531 10.171875 -12.894531 C 10.160156 -12.640625 10.355469 -12.429688 10.609375 -12.398438 C 12.457031 -12.296875 14.285156 -12.585938 16.03125 -13.242188 C 17.945312 -14.164062 18.179688 -15.328125 18.039062 -16.121094 C 17.566406 -18.789062 12.214844 -21.324219 7.945312 -21.742188 C 4.8125 -22.046875 2.710938 -21.199219 2 -19.367188 C 0.78125 -16.277344 3.835938 -13.695312 6.769531 -11.210938 C 9.496094 -8.90625 12.316406 -6.519531 11.71875 -3.839844 C 11.335938 -2.148438 8.609375 -1.3125 6.257812 -1.261719 C 3.835938 -1.203125 1.863281 -1.898438 1.574219 -2.910156 C 1.421875 -3.449219 1.570312 -4.960938 6.101562 -7.546875 C 6.238281 -7.628906 6.332031 -7.78125 6.332031 -7.960938 C 6.335938 -8.121094 6.25 -8.292969 6.097656 -8.367188 C 5.949219 -8.445312 5.769531 -8.445312 5.636719 -8.363281 C 1.882812 -6.21875 0.21875 -4.304688 0.667969 -2.667969 C 1.171875 -0.855469 4.007812 -0.273438 6.289062 -0.335938 C 6.554688 -0.339844 6.824219 -0.347656 7.089844 -0.371094 C 9.496094 -0.589844 12.140625 -1.539062 12.613281 -3.636719 Z M 12.613281 -3.636719 "/></g></g></g><g fill="#000000" fill-opacity="1"><g transform="translate(88.968556, 15.164633)"><g><path d="M 15.136719 -2.816406 C 14.976562 -3.023438 14.675781 -3.070312 14.484375 -2.90625 C 14.425781 -2.859375 8.761719 1.441406 5.667969 -1 C 4.464844 -1.957031 4.320312 -4.039062 4.324219 -4.054688 C 4.304688 -4.273438 4.160156 -4.445312 3.949219 -4.5 C 3.757812 -4.53125 3.554688 -4.441406 3.449219 -4.273438 C 2.441406 -2.503906 0.941406 -0.5625 0.390625 -0.589844 C 0.355469 -0.59375 0.289062 -0.671875 0.246094 -0.800781 C 0.0703125 -1.226562 0.195312 -1.875 0.574219 -2.554688 C 1.140625 -3.558594 2.382812 -4.738281 4.191406 -5.011719 C 4.445312 -5.046875 4.625 -5.28125 4.574219 -5.535156 C 4.542969 -5.804688 4.308594 -5.96875 4.054688 -5.933594 C 1.921875 -5.597656 0.429688 -4.210938 -0.246094 -3 C -0.769531 -2.082031 -0.902344 -1.148438 -0.621094 -0.445312 C -0.371094 0.148438 0.0117188 0.304688 0.3125 0.328125 C 0.3125 0.328125 0.328125 0.332031 0.328125 0.332031 C 1.128906 0.382812 2.085938 -0.625 2.890625 -1.679688 C 3.191406 -2.082031 3.8125 -2.046875 4.042969 -1.601562 C 4.289062 -1.117188 4.621094 -0.640625 5.089844 -0.28125 C 8.734375 2.617188 14.796875 -1.96875 15.046875 -2.164062 C 15.253906 -2.324219 15.296875 -2.621094 15.136719 -2.816406 Z M 3.394531 -6.757812 C 3.484375 -6.75 3.554688 -6.761719 3.628906 -6.792969 C 5.023438 -7.441406 5.363281 -8.320312 5.441406 -8.796875 C 5.523438 -9.359375 5.355469 -9.910156 4.976562 -10.261719 C 4.777344 -10.441406 4.492188 -10.429688 4.316406 -10.25 C 4.140625 -10.066406 4.148438 -9.761719 4.332031 -9.585938 C 4.464844 -9.46875 4.570312 -9.246094 4.527344 -8.945312 C 4.484375 -8.664062 4.242188 -8.113281 3.238281 -7.644531 C 3.015625 -7.539062 2.902344 -7.265625 3.007812 -7.023438 C 3.082031 -6.875 3.234375 -6.773438 3.394531 -6.757812 Z M 3.394531 -6.757812 "/></g></g></g><g fill="#000000" fill-opacity="1"><g transform="translate(101.631829, 16.377136)"><g/></g></g><g fill="#000000" fill-opacity="1"><g transform="translate(106.577888, 16.971383)"><g><path d="M 17.21875 1.710938 C 17.164062 1.597656 17.074219 1.53125 16.960938 1.472656 C 16.84375 1.429688 16.710938 1.441406 16.597656 1.496094 C 13.195312 3.089844 9.203125 2.65625 7.828125 1.628906 C 6.667969 0.75 6.480469 -0.652344 6.652344 -2.003906 C 6.703125 -2.304688 6.847656 -2.558594 7.078125 -2.738281 C 10.289062 -5.457031 14.148438 -9.644531 13.828125 -11.09375 C 13.753906 -11.421875 13.496094 -11.660156 13.160156 -11.722656 C 11.21875 -12.140625 8.273438 -8.839844 6.75 -5.511719 C 6.425781 -4.796875 6.171875 -4.074219 5.96875 -3.335938 C 5.902344 -3.09375 5.773438 -2.875 5.566406 -2.722656 C 5.40625 -2.589844 5.226562 -2.445312 5.050781 -2.320312 C 2.808594 -0.65625 1.554688 -0.304688 1.15625 -0.5 C 0.941406 -0.59375 0.808594 -0.808594 0.832031 -1.027344 C 0.960938 -1.941406 1.46875 -2.746094 2.203125 -3.277344 C 2.703125 -3.574219 3.386719 -3.863281 3.855469 -3.585938 C 4.109375 -3.402344 4.269531 -3.101562 4.292969 -2.792969 C 4.261719 -2.539062 4.417969 -2.296875 4.667969 -2.246094 C 4.914062 -2.199219 5.15625 -2.359375 5.210938 -2.621094 C 5.253906 -3.285156 4.964844 -3.914062 4.425781 -4.308594 C 3.964844 -4.65625 3.101562 -4.882812 1.730469 -4.085938 C 0.976562 -3.652344 -0.136719 -2.195312 -0.101562 -0.996094 C -0.113281 -0.433594 0.21875 0.078125 0.714844 0.324219 C 0.765625 0.34375 0.832031 0.367188 0.882812 0.382812 C 1.773438 0.695312 3.230469 0.132812 5.21875 -1.300781 C 5.292969 -1.347656 5.410156 -1.363281 5.507812 -1.3125 C 5.605469 -1.277344 5.667969 -1.179688 5.671875 -1.085938 C 5.613281 0.269531 6.21875 1.554688 7.269531 2.375 C 9.03125 3.6875 13.445312 3.988281 17 2.332031 C 17.226562 2.222656 17.320312 1.957031 17.21875 1.710938 Z M 7.609375 -5.117188 C 8.953125 -8.09375 11.121094 -10.363281 12.433594 -10.773438 C 12.535156 -10.792969 12.65625 -10.769531 12.734375 -10.667969 C 12.800781 -10.585938 12.816406 -10.46875 12.78125 -10.367188 C 12.183594 -9.144531 10.472656 -7.164062 7.75 -4.765625 C 7.328125 -4.421875 7.46875 -4.824219 7.609375 -5.117188 Z M 7.609375 -5.117188 "/></g></g></g><g fill="#000000" fill-opacity="1"><g transform="translate(120.120717, 21.627111)"><g><path d="M 15.222656 3.40625 C 15.1875 3.285156 15.132812 3.167969 15.023438 3.105469 C 14.925781 3.03125 14.796875 3 14.6875 3.015625 C 14.597656 3.027344 5.960938 4.371094 2.160156 -0.488281 C 1.394531 -1.476562 1.652344 -2.042969 1.851562 -2.320312 C 1.878906 -2.367188 1.921875 -2.40625 1.984375 -2.410156 C 2.03125 -2.421875 2.09375 -2.386719 2.132812 -2.34375 C 3.101562 -1.710938 4.253906 -1.402344 5.429688 -1.453125 C 6.441406 -1.507812 6.863281 -1.964844 7.011719 -2.332031 C 7.296875 -2.90625 7.105469 -3.605469 6.542969 -3.949219 C 5.355469 -4.703125 2.488281 -4.414062 1.269531 -3.0625 C 0.804688 -2.566406 0.207031 -1.476562 1.429688 0.078125 C 2.171875 1.03125 3.089844 1.796875 4.125 2.386719 C 8.558594 4.910156 14.523438 3.988281 14.835938 3.941406 C 14.949219 3.921875 15.070312 3.851562 15.125 3.757812 C 15.199219 3.65625 15.230469 3.53125 15.222656 3.40625 Z M 3.023438 -3.085938 C 4.101562 -3.578125 5.421875 -3.5625 6.027344 -3.15625 C 6.199219 -3.058594 6.257812 -2.945312 6.15625 -2.695312 C 6.082031 -2.53125 5.789062 -2.410156 5.367188 -2.386719 C 4.496094 -2.332031 2.207031 -2.730469 3.023438 -3.085938 Z M 3.023438 -3.085938 "/></g></g></g><g fill="#000000" fill-opacity="1"><g transform="translate(131.007902, 27.969764)"><g/></g></g><g fill="#000000" fill-opacity="1"><g transform="translate(135.773355, 29.563176)"><g><path d="M 7.839844 8.191406 C 8.15625 8.367188 8.441406 8.613281 8.617188 8.929688 C 11.351562 13.496094 15.140625 18.398438 21.429688 19.601562 C 21.6875 19.660156 21.917969 19.488281 21.972656 19.226562 C 22.019531 18.976562 21.859375 18.738281 21.609375 18.695312 C 16.355469 17.679688 13 14.023438 10.421875 10.074219 C 10.34375 9.957031 10.355469 9.78125 10.441406 9.660156 C 10.539062 9.527344 10.707031 9.480469 10.855469 9.539062 C 13.78125 10.515625 17.203125 10.761719 20.632812 10.769531 C 21.074219 10.761719 21.511719 10.949219 21.855469 11.238281 L 22.082031 11.445312 C 27.8125 16.527344 36.410156 15.835938 38.511719 14.195312 C 39.300781 13.585938 39.097656 12.964844 38.976562 12.714844 C 37.257812 9.410156 31.75 9.574219 25.382812 9.75 C 24.410156 9.792969 23.402344 9.816406 22.402344 9.828125 C 21.960938 9.835938 21.535156 9.664062 21.242188 9.351562 C 18.164062 6.183594 17.148438 3.308594 18.417969 1.296875 C 19.722656 -0.757812 23.367188 -1.480469 26.175781 -0.261719 C 26.40625 -0.15625 26.691406 -0.257812 26.796875 -0.492188 C 26.894531 -0.734375 26.785156 -0.996094 26.554688 -1.101562 C 23.285156 -2.535156 19.210938 -1.65625 17.636719 0.796875 C 16.753906 2.167969 16.050781 4.953125 19.851562 9.234375 C 19.945312 9.34375 19.957031 9.496094 19.898438 9.617188 C 19.851562 9.75 19.71875 9.816406 19.582031 9.820312 C 16.019531 9.765625 12.515625 9.375 9.753906 8.097656 L 9.507812 7.976562 C 9.167969 7.824219 8.910156 7.578125 8.730469 7.261719 C 8.363281 6.617188 8.007812 5.984375 7.675781 5.378906 C 5.734375 1.867188 4.191406 -0.90625 2.066406 -1.003906 C 1.554688 -1.054688 1.101562 -0.710938 0.988281 -0.214844 C 0.742188 0.535156 0.890625 2.261719 2.640625 4.296875 C 4.117188 5.90625 5.886719 7.226562 7.839844 8.191406 Z M 3.933594 1.140625 C 5.074219 2.601562 6.050781 4.175781 6.859375 5.824219 C 7.265625 6.621094 6.953125 6.613281 6.808594 6.523438 C 2.386719 3.785156 1.9375 1.21875 1.828125 0.65625 C 1.75 0.207031 1.875 0.0273438 1.996094 -0.078125 C 2.347656 -0.378906 3.296875 0.398438 3.933594 1.140625 Z M 37.742188 12.558594 C 37.890625 12.734375 38.039062 12.933594 38.152344 13.144531 C 38.191406 13.25 38.058594 13.363281 37.9375 13.46875 C 36.449219 14.628906 29.003906 15.59375 23.507812 11.414062 C 23.375 11.316406 23.324219 11.148438 23.375 10.988281 C 23.410156 10.839844 23.558594 10.734375 23.722656 10.734375 C 24.292969 10.714844 24.859375 10.695312 25.414062 10.6875 C 31 10.527344 35.875 10.390625 37.742188 12.558594 Z M 37.742188 12.558594 "/></g></g></g><g fill="#000000" fill-opacity="1"><g transform="translate(153.517859, 51.671693)"><g><path d="M 9.402344 8.203125 C 9.476562 7.949219 9.351562 7.695312 9.097656 7.621094 C 9.015625 7.582031 1.207031 5.015625 2.015625 0.351562 C 2.261719 -1.078125 4.757812 -1.042969 4.78125 -1.035156 C 5.039062 -1.039062 5.238281 -1.238281 5.246094 -1.5 C 5.238281 -1.753906 5.058594 -1.960938 4.796875 -1.972656 C 4.667969 -1.988281 1.496094 -2.027344 1.105469 0.1875 C 0.917969 1.214844 1.070312 2.285156 1.550781 3.21875 C 3.25 6.664062 8.527344 8.398438 8.8125 8.496094 C 8.933594 8.535156 9.050781 8.535156 9.164062 8.480469 C 9.265625 8.410156 9.363281 8.324219 9.402344 8.203125 Z M 5.632812 -2.601562 C 5.664062 -2.539062 5.710938 -2.484375 5.777344 -2.4375 C 6.15625 -2.148438 6.578125 -1.9375 7.027344 -1.785156 C 7.28125 -1.710938 7.53125 -1.855469 7.609375 -2.09375 C 7.683594 -2.347656 7.558594 -2.601562 7.304688 -2.675781 C 6.945312 -2.796875 6.621094 -2.972656 6.3125 -3.195312 C 6.152344 -3.316406 5.898438 -3.308594 5.746094 -3.175781 C 5.582031 -3.03125 5.539062 -2.792969 5.632812 -2.601562 Z M 5.632812 -2.601562 "/></g></g></g><g fill="#000000" fill-opacity="1"><g transform="translate(158.005833, 59.619577)"><g><path d="M 9.78125 17.464844 C 9.878906 17.230469 9.761719 16.953125 9.53125 16.851562 C 9.46875 16.832031 3.71875 14.378906 4.730469 10.285156 C 4.921875 9.730469 5.261719 9.246094 5.71875 8.90625 C 6.273438 8.394531 6.945312 7.773438 6.457031 6.730469 C 6.207031 6.191406 5.238281 5.53125 4.203125 5.035156 C 4.144531 5.015625 4.105469 4.953125 4.109375 4.894531 C 4.109375 4.839844 4.128906 4.777344 4.199219 4.757812 C 4.925781 4.398438 5.425781 3.699219 5.523438 2.890625 C 5.507812 2.265625 5.40625 1.277344 2.890625 -0.117188 C 2.777344 -0.195312 2.769531 -0.34375 2.910156 -0.367188 C 2.980469 -0.386719 4.460938 -0.445312 4.460938 -0.445312 C 4.714844 -0.464844 4.910156 -0.6875 4.910156 -0.945312 C 4.890625 -1.199219 4.667969 -1.394531 4.410156 -1.394531 L 0.566406 -1.164062 C 0.347656 -1.15625 0.171875 -0.996094 0.125 -0.777344 C 0.101562 -0.546875 0.214844 -0.339844 0.421875 -0.269531 C 3.953125 1.183594 4.554688 2.230469 4.621094 2.710938 C 4.667969 3.195312 3.925781 4.078125 2.421875 4.441406 C 2.214844 4.503906 2.0625 4.675781 2.070312 4.894531 C 2.0625 5.121094 2.207031 5.300781 2.410156 5.351562 C 3.808594 5.707031 5.414062 6.71875 5.609375 7.125 C 5.796875 7.515625 5.675781 7.679688 5.09375 8.21875 C 4.484375 8.675781 4.042969 9.320312 3.828125 10.050781 C 3.613281 10.890625 3.609375 11.78125 3.855469 12.617188 C 4.800781 15.875 8.941406 17.632812 9.167969 17.714844 C 9.402344 17.816406 9.683594 17.695312 9.78125 17.464844 Z M 9.78125 17.464844 "/></g></g></g><g fill="#000000" fill-opacity="1"><g transform="translate(162.672328, 75.748765)"><g><path d="M 5.550781 14.441406 C 5.730469 14.246094 5.722656 13.945312 5.53125 13.765625 C 5.472656 13.714844 0.292969 8.859375 2.15625 5.417969 C 2.898438 4.050781 4.925781 3.558594 4.941406 3.554688 C 5.152344 3.519531 5.300781 3.347656 5.316406 3.132812 C 5.316406 2.933594 5.195312 2.730469 5.007812 2.660156 C 3.09375 1.984375 0.632812 0.714844 0.863281 0.28125 C 0.859375 0.246094 0.925781 0.171875 1.042969 0.105469 C 1.609375 -0.15625 2.253906 -0.140625 2.828125 0.113281 C 4.269531 0.671875 5.367188 1.824219 5.863281 3.28125 C 5.914062 3.4375 6.046875 3.550781 6.210938 3.589844 C 6.375 3.628906 6.550781 3.5625 6.664062 3.445312 C 6.757812 3.3125 6.800781 3.148438 6.75 2.992188 C 6.171875 1.257812 4.84375 -0.109375 3.144531 -0.769531 C 2.3125 -1.125 1.351562 -1.097656 0.546875 -0.6875 C 0.152344 -0.496094 -0.0976562 -0.0820312 -0.0585938 0.363281 L -0.0585938 0.378906 C 0.0351562 1.246094 1.207031 2.234375 2.441406 2.878906 C 2.589844 2.953125 2.675781 3.109375 2.671875 3.269531 C 2.683594 3.429688 2.605469 3.578125 2.472656 3.660156 C 2 4.003906 1.609375 4.449219 1.351562 4.96875 C -0.886719 9.050781 4.660156 14.230469 4.894531 14.460938 C 4.988281 14.542969 5.117188 14.585938 5.222656 14.574219 C 5.351562 14.582031 5.46875 14.519531 5.550781 14.441406 Z M 5.550781 14.441406 "/></g></g></g><g fill="#000000" fill-opacity="1"><g transform="translate(9.097201, 125.114887)"><g><path d="M 1.234375 1.96875 L 0.640625 1.015625 L 9.53125 -4.53125 L 11.328125 -1.640625 C 11.960938 -0.609375 12.238281 0.328125 12.15625 1.171875 C 12.082031 2.023438 11.617188 2.71875 10.765625 3.25 C 9.921875 3.769531 9.078125 3.882812 8.234375 3.59375 C 7.390625 3.3125 6.582031 2.554688 5.8125 1.328125 L 4.828125 -0.265625 Z M 10.46875 -1.234375 L 9.328125 -3.078125 L 5.65625 -0.78125 L 6.671875 0.875 C 7.253906 1.800781 7.828125 2.363281 8.390625 2.5625 C 8.953125 2.769531 9.546875 2.679688 10.171875 2.296875 C 10.785156 1.910156 11.113281 1.425781 11.15625 0.84375 C 11.207031 0.269531 10.976562 -0.421875 10.46875 -1.234375 Z M 10.46875 -1.234375 "/></g></g></g><g fill="#000000" fill-opacity="1"><g transform="translate(15.895126, 135.544367)"><g><path d="M 2.625 3.375 C 1.144531 1.582031 1.160156 -0.0820312 2.671875 -1.625 L 3.453125 -0.90625 C 2.921875 -0.25 2.648438 0.363281 2.640625 0.9375 C 2.640625 1.519531 2.914062 2.140625 3.46875 2.796875 C 3.925781 3.359375 4.410156 3.691406 4.921875 3.796875 C 5.441406 3.898438 5.925781 3.765625 6.375 3.390625 C 6.664062 3.148438 6.84375 2.894531 6.90625 2.625 C 6.96875 2.351562 6.941406 2.035156 6.828125 1.671875 C 6.710938 1.304688 6.535156 0.882812 6.296875 0.40625 C 5.992188 -0.1875 5.765625 -0.734375 5.609375 -1.234375 C 5.460938 -1.742188 5.453125 -2.222656 5.578125 -2.671875 C 5.710938 -3.117188 6.046875 -3.5625 6.578125 -4 C 7.015625 -4.363281 7.5 -4.578125 8.03125 -4.640625 C 8.570312 -4.710938 9.101562 -4.632812 9.625 -4.40625 C 10.144531 -4.1875 10.609375 -3.828125 11.015625 -3.328125 C 11.597656 -2.628906 11.882812 -1.898438 11.875 -1.140625 C 11.863281 -0.378906 11.554688 0.3125 10.953125 0.9375 L 10.1875 0.3125 C 10.625 -0.226562 10.84375 -0.738281 10.84375 -1.21875 C 10.851562 -1.707031 10.65625 -2.203125 10.25 -2.703125 C 9.8125 -3.222656 9.328125 -3.519531 8.796875 -3.59375 C 8.273438 -3.675781 7.785156 -3.53125 7.328125 -3.15625 C 6.828125 -2.738281 6.597656 -2.28125 6.640625 -1.78125 C 6.679688 -1.28125 6.90625 -0.648438 7.3125 0.109375 C 7.625 0.703125 7.84375 1.238281 7.96875 1.71875 C 8.101562 2.207031 8.109375 2.65625 7.984375 3.0625 C 7.859375 3.476562 7.566406 3.878906 7.109375 4.265625 C 6.660156 4.628906 6.171875 4.832031 5.640625 4.875 C 5.117188 4.914062 4.59375 4.804688 4.0625 4.546875 C 3.539062 4.296875 3.0625 3.90625 2.625 3.375 Z M 2.625 3.375 "/></g></g></g><g fill="#000000" fill-opacity="1"><g transform="translate(23.653858, 144.468359)"><g><path d="M 0.859375 0.84375 L 8.21875 -6.625 L 9.03125 -5.828125 L 1.671875 1.640625 Z M 0.859375 0.84375 "/></g></g></g><g fill="#000000" fill-opacity="1"><g transform="translate(28.708364, 149.419864)"><g><path d="M 8.71875 4.328125 C 7.988281 4.640625 7.242188 4.726562 6.484375 4.59375 C 5.734375 4.457031 5.019531 4.125 4.34375 3.59375 C 3.570312 2.976562 3.035156 2.285156 2.734375 1.515625 C 2.429688 0.753906 2.363281 -0.046875 2.53125 -0.890625 C 2.707031 -1.742188 3.128906 -2.585938 3.796875 -3.421875 C 4.484375 -4.285156 5.253906 -4.914062 6.109375 -5.3125 C 6.960938 -5.71875 7.832031 -5.863281 8.71875 -5.75 C 9.601562 -5.644531 10.4375 -5.285156 11.21875 -4.671875 C 11.851562 -4.171875 12.3125 -3.59375 12.59375 -2.9375 C 12.882812 -2.289062 12.972656 -1.601562 12.859375 -0.875 L 11.75 -0.890625 C 11.945312 -2.085938 11.539062 -3.082031 10.53125 -3.875 C 9.9375 -4.351562 9.296875 -4.617188 8.609375 -4.671875 C 7.929688 -4.734375 7.25 -4.597656 6.5625 -4.265625 C 5.882812 -3.929688 5.265625 -3.410156 4.703125 -2.703125 C 3.898438 -1.679688 3.523438 -0.691406 3.578125 0.265625 C 3.628906 1.222656 4.101562 2.054688 5 2.765625 C 6.09375 3.628906 7.242188 3.800781 8.453125 3.28125 Z M 8.71875 4.328125 "/></g></g></g><g fill="#000000" fill-opacity="1"><g transform="translate(39.270181, 157.494491)"><g><path d="M 4.8125 2.875 C 3.96875 2.394531 3.335938 1.800781 2.921875 1.09375 C 2.503906 0.382812 2.316406 -0.394531 2.359375 -1.25 C 2.398438 -2.113281 2.691406 -3.019531 3.234375 -3.96875 C 3.773438 -4.914062 4.4375 -5.648438 5.21875 -6.171875 C 6.007812 -6.691406 6.847656 -6.972656 7.734375 -7.015625 C 8.617188 -7.054688 9.492188 -6.832031 10.359375 -6.34375 C 11.160156 -5.894531 11.753906 -5.304688 12.140625 -4.578125 C 12.523438 -3.859375 12.695312 -3.070312 12.65625 -2.21875 C 12.613281 -1.363281 12.335938 -0.484375 11.828125 0.421875 C 11.265625 1.410156 10.59375 2.160156 9.8125 2.671875 C 9.03125 3.191406 8.207031 3.472656 7.34375 3.515625 C 6.488281 3.554688 5.644531 3.34375 4.8125 2.875 Z M 5.34375 1.953125 C 5.988281 2.316406 6.640625 2.476562 7.296875 2.4375 C 7.960938 2.40625 8.597656 2.171875 9.203125 1.734375 C 9.804688 1.296875 10.34375 0.660156 10.8125 -0.171875 C 11.21875 -0.898438 11.453125 -1.597656 11.515625 -2.265625 C 11.578125 -2.941406 11.46875 -3.550781 11.1875 -4.09375 C 10.90625 -4.632812 10.460938 -5.078125 9.859375 -5.421875 C 9.191406 -5.796875 8.515625 -5.960938 7.828125 -5.921875 C 7.140625 -5.890625 6.476562 -5.65625 5.84375 -5.21875 C 5.21875 -4.789062 4.679688 -4.179688 4.234375 -3.390625 C 3.585938 -2.242188 3.367188 -1.203125 3.578125 -0.265625 C 3.785156 0.660156 4.375 1.398438 5.34375 1.953125 Z M 10.171875 -7.578125 L 12.921875 -9.03125 L 13.765625 -8.171875 L 11.03125 -7.09375 Z M 10.171875 -7.578125 "/></g></g></g><g fill="#000000" fill-opacity="1"><g transform="translate(52.517533, 164.534122)"><g><path d="M 1.125 0.4375 L 4.96875 -9.3125 L 6.03125 -8.890625 L 2.546875 -0.0625 L 7.109375 1.734375 L 6.640625 2.609375 Z M 1.125 0.4375 "/></g></g></g><g fill="#000000" fill-opacity="1"><g transform="translate(62.615267, 168.393834)"><g><path d="M 5.421875 1.4375 C 4.484375 1.207031 3.710938 0.804688 3.109375 0.234375 C 2.515625 -0.328125 2.117188 -1.023438 1.921875 -1.859375 C 1.722656 -2.691406 1.75 -3.640625 2 -4.703125 C 2.257812 -5.765625 2.691406 -6.65625 3.296875 -7.375 C 3.910156 -8.101562 4.640625 -8.601562 5.484375 -8.875 C 6.328125 -9.15625 7.234375 -9.179688 8.203125 -8.953125 C 9.085938 -8.742188 9.816406 -8.347656 10.390625 -7.765625 C 10.972656 -7.191406 11.359375 -6.484375 11.546875 -5.640625 C 11.742188 -4.796875 11.71875 -3.863281 11.46875 -2.84375 C 11.207031 -1.738281 10.773438 -0.832031 10.171875 -0.125 C 9.578125 0.582031 8.867188 1.070312 8.046875 1.34375 C 7.222656 1.625 6.347656 1.65625 5.421875 1.4375 Z M 5.671875 0.40625 C 6.390625 0.570312 7.0625 0.546875 7.6875 0.328125 C 8.3125 0.109375 8.851562 -0.289062 9.3125 -0.875 C 9.78125 -1.46875 10.128906 -2.226562 10.359375 -3.15625 C 10.546875 -3.96875 10.570312 -4.703125 10.4375 -5.359375 C 10.3125 -6.023438 10.039062 -6.578125 9.625 -7.015625 C 9.207031 -7.460938 8.660156 -7.769531 7.984375 -7.9375 C 7.242188 -8.113281 6.546875 -8.085938 5.890625 -7.859375 C 5.234375 -7.628906 4.660156 -7.222656 4.171875 -6.640625 C 3.691406 -6.054688 3.34375 -5.320312 3.125 -4.4375 C 2.820312 -3.164062 2.898438 -2.101562 3.359375 -1.25 C 3.816406 -0.40625 4.585938 0.144531 5.671875 0.40625 Z M 5.671875 0.40625 "/></g></g></g><g fill="#000000" fill-opacity="1"><g transform="translate(77.380322, 171.596015)"><g><path d="M 6.53125 -4.609375 L 10.15625 -4.328125 L 9.78125 0.734375 L 8.921875 0.671875 L 8.875 -0.75 C 8.125 0.21875 6.992188 0.644531 5.484375 0.53125 C 4.546875 0.46875 3.742188 0.203125 3.078125 -0.265625 C 2.421875 -0.734375 1.925781 -1.363281 1.59375 -2.15625 C 1.269531 -2.945312 1.148438 -3.882812 1.234375 -4.96875 C 1.316406 -6.070312 1.601562 -7.023438 2.09375 -7.828125 C 2.59375 -8.628906 3.242188 -9.234375 4.046875 -9.640625 C 4.847656 -10.054688 5.773438 -10.222656 6.828125 -10.140625 C 8.515625 -10.015625 9.6875 -9.269531 10.34375 -7.90625 L 9.40625 -7.3125 C 8.914062 -8.394531 8.007812 -8.984375 6.6875 -9.078125 C 5.894531 -9.140625 5.1875 -9.003906 4.5625 -8.671875 C 3.945312 -8.347656 3.445312 -7.859375 3.0625 -7.203125 C 2.6875 -6.546875 2.46875 -5.769531 2.40625 -4.875 C 2.3125 -3.5625 2.546875 -2.523438 3.109375 -1.765625 C 3.679688 -1.015625 4.53125 -0.597656 5.65625 -0.515625 C 6.613281 -0.441406 7.390625 -0.625 7.984375 -1.0625 C 8.578125 -1.507812 8.90625 -2.144531 8.96875 -2.96875 L 9.015625 -3.484375 L 6.46875 -3.6875 Z M 6.53125 -4.609375 "/></g></g></g><g fill="#000000" fill-opacity="1"><g transform="translate(91.808117, 172.360307)"><g><path d="M 0.171875 -0.015625 L 3.703125 -10.8125 L 4.6875 -10.875 L 9.671875 -0.75 L 8.515625 -0.671875 L 7.21875 -3.375 L 2.265625 -2.984375 L 1.34375 -0.109375 Z M 2.546875 -3.96875 L 6.78125 -4.296875 L 4.296875 -9.4375 Z M 2.546875 -3.96875 "/></g></g></g><g fill="#000000" fill-opacity="1"><g transform="translate(105.175154, 170.94345)"><g/></g></g><g fill="#000000" fill-opacity="1"><g transform="translate(111.926631, 169.634523)"><g><path d="M 8.515625 -4.703125 C 8.367188 -3.929688 8.023438 -3.269531 7.484375 -2.71875 C 6.941406 -2.175781 6.253906 -1.773438 5.421875 -1.515625 C 4.472656 -1.234375 3.597656 -1.1875 2.796875 -1.375 C 1.992188 -1.570312 1.296875 -1.976562 0.703125 -2.59375 C 0.117188 -3.21875 -0.328125 -4.046875 -0.640625 -5.078125 C -0.960938 -6.128906 -1.046875 -7.117188 -0.890625 -8.046875 C -0.734375 -8.972656 -0.363281 -9.769531 0.21875 -10.4375 C 0.8125 -11.101562 1.582031 -11.582031 2.53125 -11.875 C 3.300781 -12.113281 4.035156 -12.164062 4.734375 -12.03125 C 5.441406 -11.894531 6.0625 -11.570312 6.59375 -11.0625 L 5.96875 -10.171875 C 5.082031 -11.003906 4.03125 -11.238281 2.8125 -10.875 C 2.082031 -10.644531 1.5 -10.265625 1.0625 -9.734375 C 0.625 -9.203125 0.347656 -8.5625 0.234375 -7.8125 C 0.117188 -7.070312 0.191406 -6.273438 0.453125 -5.421875 C 0.828125 -4.171875 1.421875 -3.289062 2.234375 -2.78125 C 3.054688 -2.28125 4.015625 -2.195312 5.109375 -2.53125 C 6.441406 -2.945312 7.242188 -3.800781 7.515625 -5.09375 Z M 8.515625 -4.703125 "/></g></g></g><g fill="#000000" fill-opacity="1"><g transform="translate(124.427192, 165.490428)"><g><path d="M 1.09375 -0.5 L -3.234375 -10.046875 L -2.1875 -10.515625 L 1.734375 -1.859375 L 6.1875 -3.890625 L 6.5 -2.953125 Z M 1.09375 -0.5 "/></g></g></g><g fill="#000000" fill-opacity="1"><g transform="translate(133.960529, 160.891082)"><g><path d="M 1.046875 -0.59375 L -4.171875 -9.6875 L -3.1875 -10.265625 L 2.03125 -1.171875 Z M -4.71875 -10.671875 L -4.5625 -13.78125 L -3.40625 -14.078125 L -3.859375 -11.171875 Z M -4.71875 -10.671875 "/></g></g></g><g fill="#000000" fill-opacity="1"><g transform="translate(140.118443, 157.346585)"><g><path d="M 0.421875 -13.34375 L 1.296875 -14 L 7.53125 -5.578125 L 6.765625 -5 L -3.25 -8.25 L 1.84375 -1.359375 L 0.96875 -0.71875 L -5.265625 -9.140625 L -4.46875 -9.71875 L 5.515625 -6.46875 Z M 0.421875 -13.34375 "/></g></g></g><g fill="#000000" fill-opacity="1"><g transform="translate(151.221241, 148.635651)"><g><path d="M 0.875 -0.828125 L -6.28125 -8.484375 L -5.4375 -9.25 L 1.71875 -1.59375 Z M 0.875 -0.828125 "/></g></g></g><g fill="#000000" fill-opacity="1"><g transform="translate(156.367348, 143.779525)"><g><path d="M 4.671875 -8.546875 C 4.960938 -7.796875 5.023438 -7.046875 4.859375 -6.296875 C 4.691406 -5.554688 4.328125 -4.859375 3.765625 -4.203125 C 3.117188 -3.453125 2.40625 -2.941406 1.625 -2.671875 C 0.84375 -2.398438 0.0351562 -2.367188 -0.796875 -2.578125 C -1.628906 -2.785156 -2.453125 -3.238281 -3.265625 -3.9375 C -4.097656 -4.65625 -4.695312 -5.445312 -5.0625 -6.3125 C -5.425781 -7.175781 -5.535156 -8.050781 -5.390625 -8.9375 C -5.253906 -9.820312 -4.863281 -10.640625 -4.21875 -11.390625 C -3.695312 -12.003906 -3.101562 -12.441406 -2.4375 -12.703125 C -1.769531 -12.960938 -1.070312 -13.023438 -0.34375 -12.890625 L -0.40625 -11.78125 C -1.601562 -12.019531 -2.617188 -11.65625 -3.453125 -10.6875 C -3.941406 -10.101562 -4.226562 -9.472656 -4.3125 -8.796875 C -4.40625 -8.117188 -4.296875 -7.429688 -3.984375 -6.734375 C -3.679688 -6.035156 -3.191406 -5.394531 -2.515625 -4.8125 C -1.523438 -3.96875 -0.550781 -3.550781 0.40625 -3.5625 C 1.363281 -3.570312 2.210938 -4.015625 2.953125 -4.890625 C 3.859375 -5.953125 4.082031 -7.09375 3.625 -8.3125 Z M 4.671875 -8.546875 "/></g></g></g><g fill="#000000" fill-opacity="1"><g transform="translate(164.80438, 133.559886)"><g><path d="M 0.09375 -0.140625 L -6.4375 -9.4375 L -5.90625 -10.265625 L 5.1875 -8.203125 L 4.5625 -7.21875 L 1.609375 -7.796875 L -1.046875 -3.59375 L 0.71875 -1.140625 Z M -1.65625 -4.4375 L 0.609375 -8.015625 L -4.984375 -9.078125 Z M -1.65625 -4.4375 "/></g></g></g></svg>