<svg xmlns="http://www.w3.org/2000/svg" xmlns:xlink="http://www.w3.org/1999/xlink" width="194" zoomAndPan="magnify" viewBox="0 0 145.5 146.249994" height="195" preserveAspectRatio="xMidYMid meet" version="1.0"><defs><clipPath id="a704a42288"><path d="M 0.261719 0.480469 L 144.878906 0.480469 L 144.878906 145.460938 L 0.261719 145.460938 Z M 0.261719 0.480469 " clip-rule="nonzero"/></clipPath><clipPath id="c9579d3b10"><path d="M 72.75 0.480469 C 32.714844 0.480469 0.261719 32.9375 0.261719 72.972656 C 0.261719 113.003906 32.714844 145.460938 72.75 145.460938 C 112.785156 145.460938 145.238281 113.003906 145.238281 72.972656 C 145.238281 32.9375 112.785156 0.480469 72.75 0.480469 " clip-rule="nonzero"/></clipPath><clipPath id="0bbfb6452a"><path d="M 34.925781 3.53125 L 118 3.53125 L 118 142 L 34.925781 142 Z M 34.925781 3.53125 " clip-rule="nonzero"/></clipPath></defs><g clip-path="url(#a704a42288)"><g clip-path="url(#c9579d3b10)"><path fill="#d5c2dd" d="M 0.261719 0.480469 L 145.238281 0.480469 L 145.238281 145.460938 L 0.261719 145.460938 Z M 0.261719 0.480469 " fill-opacity="1" fill-rule="nonzero"/></g></g><g clip-path="url(#0bbfb6452a)"><path fill="#000000" d="M 70.425781 102 C 77.488281 95.265625 88.550781 91.160156 95.585938 85.609375 C 101.382812 81.03125 106.648438 75.265625 109.558594 68.40625 C 112.402344 61.707031 112.320312 54.414062 111.820312 47.28125 C 114.480469 51.019531 116.996094 55.335938 115.976562 60.023438 C 115.070312 64.167969 112.070312 67.609375 111.808594 71.9375 C 111.550781 76.144531 113.988281 79.832031 115.316406 83.664062 C 115.957031 85.515625 116.539062 87.90625 115.46875 89.726562 C 114.316406 91.683594 111.789062 91.023438 110.085938 92.105469 C 108.71875 92.972656 108.578125 94.09375 108.953125 95.542969 C 109.109375 96.152344 109.308594 97 109.070312 97.632812 C 108.773438 98.417969 107.867188 98.488281 107.207031 98.613281 C 106.699219 98.710938 106.101562 98.757812 105.640625 99.039062 C 104.617188 99.667969 104.75 100.597656 105.117188 101.589844 C 105.398438 102.359375 106.128906 102.648438 105.484375 103.792969 C 104.816406 104.980469 103.804688 104.4375 102.878906 104.605469 C 102.433594 104.683594 102.070312 104.832031 101.703125 105.097656 C 100.457031 106 100.148438 107.589844 99.960938 109.011719 C 99.578125 111.886719 98.429688 113.875 95.523438 114.800781 C 90.957031 116.253906 85.464844 115.082031 81.476562 112.628906 C 77.109375 109.945312 73.695312 105.953125 70.425781 102 Z M 68.292969 102.855469 C 63.5625 108.25 61.609375 115.007812 63.371094 122.035156 C 65.28125 129.660156 70.589844 135.675781 75.714844 141.382812 C 76.175781 141.890625 76.925781 141.140625 76.472656 140.628906 C 70.382812 133.859375 63.679688 126.167969 63.738281 116.507812 C 63.773438 110.769531 66.132812 106.378906 69.671875 102.75 C 73.816406 107.777344 78.304688 113.011719 84.476562 115.28125 C 88.347656 116.707031 94.046875 117.226562 97.730469 114.976562 C 99.222656 114.0625 100.308594 112.679688 100.734375 110.984375 C 101.023438 109.835938 100.941406 108.609375 101.328125 107.484375 C 101.710938 106.375 102.203125 105.851562 103.457031 105.632812 C 103.882812 105.558594 104.328125 105.695312 104.761719 105.597656 C 105.996094 105.3125 106.863281 104.039062 106.742188 102.789062 C 106.667969 102.019531 105.511719 100.65625 106.179688 99.960938 C 106.632812 99.488281 108.015625 99.617188 108.621094 99.367188 C 109.828125 98.867188 110.488281 97.617188 110.316406 96.347656 C 110.199219 95.46875 109.449219 94.621094 109.949219 93.667969 C 110.375 92.851562 111.394531 92.644531 112.1875 92.460938 C 113.152344 92.230469 114.148438 92.191406 115.019531 91.664062 C 118.042969 89.839844 117.148438 85.523438 116.144531 82.828125 C 114.417969 78.191406 111.789062 73.992188 113.523438 68.914062 C 114.914062 64.855469 117.644531 61.308594 117.226562 56.808594 C 116.820312 52.417969 114.152344 48.636719 111.609375 45.195312 C 111.332031 44.816406 110.574219 44.882812 110.617188 45.464844 C 111 50.378906 111.328125 55.351562 110.660156 60.257812 C 110.03125 64.875 108.382812 69.183594 105.851562 73.09375 C 101.277344 80.144531 94.582031 85.671875 87.351562 89.847656 C 81.316406 93.335938 74.828125 96.347656 69.816406 101.261719 C 69.375 100.726562 68.9375 100.195312 68.5 99.667969 C 68.0625 99.140625 67.308594 99.898438 67.746094 100.421875 C 68.183594 100.945312 68.625 101.480469 69.066406 102.019531 C 68.804688 102.292969 68.546875 102.570312 68.292969 102.855469 Z M 36.273438 43.441406 C 41.5 39.742188 47.5625 37.222656 53.835938 36.152344 C 58.695312 35.320312 63.589844 35.34375 68.386719 36.222656 C 68.703125 36.847656 69.027344 37.46875 69.363281 38.082031 C 69.386719 38.128906 69.417969 38.171875 69.441406 38.21875 C 69.777344 38.828125 70.117188 39.425781 70.472656 40.019531 C 70.601562 40.234375 70.734375 40.445312 70.867188 40.660156 C 71.121094 41.082031 71.382812 41.5 71.648438 41.914062 C 71.804688 42.15625 71.964844 42.398438 72.125 42.636719 C 72.375 43.015625 72.628906 43.390625 72.886719 43.761719 C 73.0625 44.011719 73.234375 44.257812 73.410156 44.5 C 73.671875 44.859375 73.933594 45.21875 74.199219 45.570312 C 74.378906 45.8125 74.5625 46.054688 74.746094 46.292969 C 75.019531 46.644531 75.300781 46.996094 75.582031 47.34375 C 75.765625 47.570312 75.949219 47.796875 76.136719 48.019531 C 76.4375 48.382812 76.746094 48.738281 77.054688 49.09375 C 77.230469 49.292969 77.402344 49.496094 77.578125 49.691406 C 77.953125 50.105469 78.332031 50.515625 78.714844 50.917969 C 78.835938 51.046875 78.957031 51.179688 79.078125 51.308594 C 79.589844 51.839844 80.113281 52.359375 80.644531 52.871094 C 80.753906 52.980469 80.875 53.085938 80.984375 53.191406 C 81.40625 53.589844 81.828125 53.984375 82.257812 54.371094 C 82.449219 54.542969 82.648438 54.710938 82.84375 54.882812 C 83.203125 55.195312 83.5625 55.507812 83.929688 55.816406 C 84.152344 56 84.378906 56.179688 84.601562 56.363281 C 84.953125 56.648438 85.304688 56.929688 85.660156 57.207031 C 85.898438 57.386719 86.136719 57.570312 86.375 57.75 C 86.734375 58.015625 87.089844 58.28125 87.453125 58.539062 C 87.699219 58.714844 87.941406 58.890625 88.1875 59.058594 C 88.558594 59.320312 88.9375 59.574219 89.316406 59.824219 C 89.558594 59.984375 89.796875 60.148438 90.042969 60.304688 C 90.132812 60.359375 90.21875 60.421875 90.308594 60.480469 C 89.933594 60.390625 89.554688 60.308594 89.175781 60.226562 C 88.964844 60.179688 88.757812 60.128906 88.546875 60.085938 C 87.917969 59.957031 87.289062 59.835938 86.65625 59.730469 C 86.25 59.660156 85.839844 59.597656 85.425781 59.535156 C 85.292969 59.515625 85.160156 59.5 85.027344 59.480469 C 84.742188 59.441406 84.457031 59.402344 84.171875 59.367188 C 84.019531 59.347656 83.863281 59.332031 83.710938 59.3125 C 83.441406 59.285156 83.171875 59.253906 82.902344 59.226562 C 82.742188 59.210938 82.582031 59.199219 82.417969 59.183594 C 82.152344 59.160156 81.886719 59.136719 81.617188 59.113281 C 81.453125 59.101562 81.289062 59.089844 81.125 59.082031 C 80.855469 59.0625 80.585938 59.046875 80.3125 59.03125 C 80.152344 59.023438 79.988281 59.011719 79.828125 59.007812 C 79.546875 58.992188 79.269531 58.984375 78.988281 58.972656 C 78.832031 58.96875 78.675781 58.964844 78.519531 58.960938 C 78.226562 58.953125 77.933594 58.949219 77.636719 58.945312 C 77.492188 58.945312 77.347656 58.941406 77.203125 58.941406 C 77.160156 58.941406 77.117188 58.941406 77.074219 58.941406 C 76.691406 58.941406 76.304688 58.945312 75.917969 58.953125 C 75.558594 58.960938 75.203125 58.96875 74.847656 58.988281 C 74.730469 58.992188 74.617188 59 74.503906 59.007812 C 74.261719 59.019531 74.019531 59.03125 73.78125 59.046875 C 73.644531 59.058594 73.503906 59.070312 73.367188 59.082031 C 73.152344 59.097656 72.933594 59.113281 72.71875 59.136719 C 72.570312 59.148438 72.421875 59.167969 72.273438 59.183594 C 72.070312 59.203125 71.867188 59.226562 71.664062 59.25 C 71.507812 59.265625 71.355469 59.292969 71.203125 59.3125 C 71.007812 59.335938 70.808594 59.359375 70.613281 59.390625 C 70.457031 59.414062 70.300781 59.441406 70.140625 59.464844 C 69.953125 59.496094 69.761719 59.523438 69.570312 59.558594 C 69.410156 59.585938 69.253906 59.617188 69.09375 59.644531 C 68.90625 59.679688 68.71875 59.714844 68.53125 59.753906 C 68.371094 59.785156 68.210938 59.820312 68.050781 59.855469 C 67.867188 59.894531 67.683594 59.929688 67.5 59.972656 C 67.339844 60.007812 67.179688 60.046875 67.019531 60.085938 C 66.839844 60.128906 66.65625 60.171875 66.476562 60.21875 C 66.316406 60.261719 66.15625 60.304688 65.996094 60.347656 C 65.816406 60.394531 65.636719 60.441406 65.457031 60.492188 C 65.296875 60.539062 65.136719 60.585938 64.976562 60.632812 C 64.796875 60.6875 64.621094 60.738281 64.445312 60.792969 C 64.285156 60.839844 64.125 60.894531 63.96875 60.945312 C 63.792969 61.003906 63.613281 61.058594 63.441406 61.117188 C 63.28125 61.171875 63.125 61.230469 62.964844 61.285156 C 62.792969 61.34375 62.617188 61.40625 62.441406 61.472656 C 62.285156 61.527344 62.128906 61.589844 61.972656 61.648438 C 61.796875 61.714844 61.625 61.78125 61.449219 61.847656 C 61.296875 61.910156 61.140625 61.976562 60.984375 62.039062 C 60.8125 62.109375 60.640625 62.179688 60.46875 62.253906 C 60.316406 62.320312 60.160156 62.386719 60.007812 62.457031 C 59.875 62.511719 59.742188 62.570312 59.609375 62.628906 C 50.328125 58.308594 42.277344 51.683594 36.273438 43.441406 Z M 59.609375 63.800781 C 60.039062 63.996094 60.472656 64.1875 60.910156 64.375 C 60.976562 64.40625 61.042969 64.429688 61.113281 64.460938 C 61.523438 64.636719 61.9375 64.804688 62.351562 64.972656 C 62.507812 65.035156 62.664062 65.09375 62.816406 65.15625 C 63.152344 65.285156 63.488281 65.414062 63.824219 65.539062 C 63.992188 65.601562 64.15625 65.664062 64.324219 65.722656 C 64.671875 65.847656 65.015625 65.96875 65.363281 66.085938 C 65.511719 66.136719 65.65625 66.1875 65.800781 66.238281 C 66.292969 66.398438 66.78125 66.558594 67.273438 66.707031 C 67.773438 66.859375 68.273438 67.003906 68.777344 67.144531 C 68.910156 67.183594 69.046875 67.21875 69.183594 67.253906 C 69.550781 67.355469 69.917969 67.453125 70.285156 67.542969 C 70.445312 67.585938 70.609375 67.625 70.769531 67.664062 C 71.128906 67.75 71.484375 67.832031 71.839844 67.914062 C 71.992188 67.949219 72.148438 67.984375 72.300781 68.015625 C 72.730469 68.109375 73.160156 68.195312 73.589844 68.28125 C 73.664062 68.292969 73.738281 68.3125 73.8125 68.324219 C 74.324219 68.421875 74.835938 68.511719 75.347656 68.597656 C 75.457031 68.617188 75.566406 68.628906 75.675781 68.648438 C 76.074219 68.710938 76.472656 68.773438 76.875 68.828125 C 77.035156 68.847656 77.195312 68.871094 77.355469 68.890625 C 77.714844 68.9375 78.074219 68.984375 78.4375 69.023438 C 78.597656 69.042969 78.757812 69.058594 78.921875 69.078125 C 79.316406 69.121094 79.710938 69.15625 80.105469 69.1875 C 80.222656 69.199219 80.339844 69.210938 80.457031 69.222656 C 80.976562 69.261719 81.492188 69.296875 82.007812 69.324219 C 82.078125 69.328125 82.148438 69.332031 82.21875 69.335938 C 82.660156 69.355469 83.101562 69.375 83.542969 69.390625 C 83.699219 69.394531 83.859375 69.394531 84.015625 69.398438 C 84.378906 69.40625 84.738281 69.414062 85.097656 69.414062 C 85.1875 69.414062 85.28125 69.417969 85.371094 69.417969 C 85.484375 69.417969 85.59375 69.414062 85.707031 69.414062 C 85.882812 69.414062 86.058594 69.414062 86.230469 69.410156 C 86.488281 69.40625 86.746094 69.398438 87 69.394531 C 87.164062 69.390625 87.328125 69.386719 87.492188 69.378906 C 87.789062 69.371094 88.089844 69.355469 88.390625 69.339844 C 88.507812 69.335938 88.625 69.332031 88.746094 69.324219 C 89.160156 69.300781 89.570312 69.273438 89.984375 69.246094 C 90.101562 69.234375 90.21875 69.222656 90.332031 69.214844 C 90.636719 69.191406 90.941406 69.164062 91.246094 69.136719 C 91.398438 69.121094 91.550781 69.105469 91.703125 69.089844 C 91.972656 69.0625 92.242188 69.03125 92.507812 69 C 92.667969 68.980469 92.832031 68.960938 92.992188 68.941406 C 93.257812 68.910156 93.527344 68.875 93.792969 68.835938 C 93.945312 68.816406 94.097656 68.792969 94.253906 68.773438 C 94.546875 68.730469 94.839844 68.683594 95.136719 68.636719 C 95.257812 68.617188 95.382812 68.597656 95.503906 68.578125 C 95.921875 68.507812 96.339844 68.433594 96.753906 68.355469 C 96.78125 68.351562 96.808594 68.34375 96.835938 68.339844 C 97.226562 68.265625 97.613281 68.1875 98 68.105469 C 98.128906 68.082031 98.257812 68.050781 98.386719 68.023438 C 98.671875 67.960938 98.960938 67.898438 99.246094 67.832031 C 99.394531 67.796875 99.542969 67.761719 99.691406 67.726562 C 99.960938 67.664062 100.230469 67.597656 100.5 67.527344 C 100.648438 67.488281 100.800781 67.453125 100.949219 67.410156 C 101.226562 67.339844 101.507812 67.265625 101.785156 67.1875 C 101.882812 67.160156 101.980469 67.136719 102.078125 67.109375 C 88.054688 88.476562 61.355469 98.914062 36.488281 92.648438 C 38.070312 85.773438 41.332031 79.371094 45.9375 74.105469 C 49.792969 69.691406 54.390625 66.226562 59.609375 63.800781 Z M 105.796875 48.742188 C 105.808594 54.203125 104.957031 59.554688 103.253906 64.679688 C 103.234375 64.628906 103.210938 64.582031 103.1875 64.535156 C 102.945312 63.960938 102.695312 63.390625 102.433594 62.828125 C 102.414062 62.785156 102.390625 62.742188 102.371094 62.699219 C 102.097656 62.121094 101.816406 61.546875 101.523438 60.980469 C 101.515625 60.964844 101.503906 60.941406 101.496094 60.921875 C 101.203125 60.359375 100.898438 59.800781 100.585938 59.25 C 100.546875 59.1875 100.511719 59.125 100.476562 59.058594 C 100.175781 58.53125 99.863281 58.007812 99.539062 57.492188 C 99.488281 57.410156 99.441406 57.328125 99.386719 57.25 C 99.070312 56.742188 98.742188 56.242188 98.40625 55.746094 C 98.347656 55.660156 98.289062 55.578125 98.230469 55.492188 C 97.890625 54.996094 97.542969 54.507812 97.183594 54.023438 C 97.128906 53.949219 97.070312 53.875 97.015625 53.800781 C 96.644531 53.308594 96.269531 52.820312 95.878906 52.339844 C 95.839844 52.289062 95.796875 52.238281 95.757812 52.1875 C 95.347656 51.683594 94.929688 51.183594 94.496094 50.691406 C 92.207031 48.074219 89.570312 45.59375 86.667969 43.316406 C 86.339844 43.0625 86.011719 42.8125 85.675781 42.566406 C 85.574219 42.488281 85.464844 42.417969 85.359375 42.339844 C 85.132812 42.175781 84.902344 42.007812 84.671875 41.847656 C 84.542969 41.757812 84.410156 41.671875 84.277344 41.585938 C 84.066406 41.441406 83.859375 41.300781 83.648438 41.160156 C 83.503906 41.070312 83.363281 40.980469 83.21875 40.890625 C 83.015625 40.761719 82.8125 40.632812 82.609375 40.507812 C 82.457031 40.417969 82.308594 40.332031 82.15625 40.242188 C 81.953125 40.125 81.753906 40.003906 81.554688 39.886719 C 81.398438 39.796875 81.238281 39.714844 81.082031 39.628906 C 80.882812 39.519531 80.683594 39.40625 80.484375 39.300781 C 80.320312 39.214844 80.15625 39.132812 79.992188 39.050781 C 79.796875 38.949219 79.597656 38.84375 79.398438 38.746094 C 79.230469 38.664062 79.0625 38.585938 78.894531 38.507812 C 78.695312 38.410156 78.496094 38.316406 78.296875 38.222656 C 78.125 38.144531 77.953125 38.074219 77.785156 38 C 77.582031 37.910156 77.382812 37.820312 77.179688 37.734375 C 77.007812 37.664062 76.828125 37.59375 76.652344 37.523438 C 76.453125 37.441406 76.253906 37.359375 76.050781 37.28125 C 75.871094 37.210938 75.691406 37.148438 75.511719 37.082031 C 75.3125 37.007812 75.109375 36.929688 74.90625 36.859375 C 74.722656 36.796875 74.539062 36.734375 74.355469 36.671875 C 74.152344 36.605469 73.953125 36.535156 73.746094 36.472656 C 73.5625 36.414062 73.371094 36.355469 73.183594 36.300781 C 72.980469 36.238281 72.78125 36.175781 72.574219 36.117188 C 72.382812 36.0625 72.191406 36.011719 72 35.960938 C 71.796875 35.90625 71.59375 35.847656 71.390625 35.796875 C 71.195312 35.75 71 35.703125 70.800781 35.65625 C 70.597656 35.605469 70.394531 35.558594 70.191406 35.511719 C 69.992188 35.464844 69.792969 35.425781 69.59375 35.382812 C 69.429688 35.351562 69.269531 35.3125 69.109375 35.28125 C 64.449219 25.867188 62.332031 15.382812 62.972656 4.910156 C 63.125 4.910156 63.273438 4.90625 63.425781 4.90625 C 71.355469 4.90625 79.066406 7.050781 85.777344 11.132812 C 95.691406 17.152344 102.613281 27.039062 104.765625 38.25 C 105.449219 41.820312 105.796875 45.351562 105.796875 48.742188 Z M 92.886719 62.296875 C 93.238281 62.402344 93.59375 62.507812 93.941406 62.621094 C 93.953125 62.628906 93.96875 62.632812 93.980469 62.636719 C 94.347656 62.757812 94.714844 62.886719 95.078125 63.015625 C 95.199219 63.058594 95.316406 63.101562 95.433594 63.144531 C 95.683594 63.234375 95.929688 63.324219 96.175781 63.421875 C 96.3125 63.472656 96.449219 63.527344 96.589844 63.582031 C 96.816406 63.671875 97.039062 63.761719 97.261719 63.851562 C 97.40625 63.914062 97.550781 63.972656 97.695312 64.03125 C 97.914062 64.125 98.132812 64.21875 98.351562 64.316406 C 98.492188 64.378906 98.632812 64.441406 98.773438 64.5 C 99 64.605469 99.226562 64.707031 99.449219 64.8125 C 99.578125 64.871094 99.707031 64.933594 99.839844 64.996094 C 100.089844 65.113281 100.339844 65.238281 100.589844 65.359375 C 100.6875 65.410156 100.789062 65.460938 100.890625 65.511719 C 101.234375 65.683594 101.578125 65.863281 101.917969 66.046875 C 101.894531 66.050781 101.871094 66.058594 101.847656 66.066406 C 101.695312 66.109375 101.539062 66.148438 101.386719 66.191406 C 101.101562 66.269531 100.816406 66.347656 100.535156 66.421875 C 100.367188 66.464844 100.199219 66.503906 100.03125 66.546875 C 99.757812 66.617188 99.488281 66.683594 99.214844 66.746094 C 99.039062 66.789062 98.863281 66.828125 98.6875 66.867188 C 98.421875 66.925781 98.15625 66.988281 97.886719 67.042969 C 97.707031 67.082031 97.53125 67.117188 97.351562 67.152344 C 97.085938 67.207031 96.820312 67.261719 96.558594 67.308594 C 96.375 67.34375 96.195312 67.375 96.015625 67.40625 C 95.75 67.457031 95.484375 67.5 95.21875 67.546875 C 95.039062 67.574219 94.859375 67.601562 94.675781 67.632812 C 94.410156 67.671875 94.144531 67.714844 93.878906 67.75 C 93.699219 67.777344 93.519531 67.800781 93.335938 67.824219 C 93.070312 67.859375 92.800781 67.894531 92.535156 67.925781 C 92.355469 67.949219 92.175781 67.96875 91.996094 67.988281 C 91.726562 68.019531 91.457031 68.046875 91.183594 68.070312 C 91.007812 68.089844 90.832031 68.105469 90.652344 68.121094 C 90.378906 68.144531 90.105469 68.167969 89.832031 68.1875 C 89.65625 68.199219 89.484375 68.214844 89.3125 68.222656 C 89.03125 68.242188 88.753906 68.257812 88.472656 68.273438 C 88.304688 68.28125 88.136719 68.289062 87.964844 68.296875 C 87.679688 68.308594 87.390625 68.316406 87.105469 68.324219 C 86.941406 68.332031 86.78125 68.335938 86.621094 68.339844 C 86.324219 68.347656 86.023438 68.347656 85.726562 68.351562 C 85.578125 68.351562 85.425781 68.351562 85.277344 68.351562 C 84.957031 68.351562 84.640625 68.347656 84.324219 68.34375 C 84.195312 68.339844 84.0625 68.339844 83.933594 68.335938 C 83.574219 68.328125 83.214844 68.316406 82.855469 68.300781 C 82.769531 68.296875 82.679688 68.292969 82.589844 68.289062 C 81.234375 68.226562 79.878906 68.121094 78.527344 67.964844 C 78.4375 67.957031 78.347656 67.941406 78.257812 67.933594 C 77.902344 67.890625 77.546875 67.847656 77.195312 67.800781 C 77.058594 67.78125 76.925781 67.761719 76.789062 67.742188 C 76.480469 67.695312 76.171875 67.652344 75.863281 67.601562 C 75.707031 67.578125 75.550781 67.550781 75.394531 67.523438 C 75.109375 67.476562 74.824219 67.429688 74.535156 67.378906 C 74.371094 67.347656 74.203125 67.3125 74.035156 67.28125 C 73.761719 67.230469 73.488281 67.175781 73.214844 67.121094 C 73.039062 67.085938 72.863281 67.046875 72.6875 67.011719 C 72.421875 66.953125 72.160156 66.898438 71.898438 66.835938 C 71.714844 66.796875 71.535156 66.753906 71.355469 66.710938 C 71.097656 66.648438 70.84375 66.589844 70.585938 66.523438 C 70.402344 66.476562 70.214844 66.429688 70.03125 66.378906 C 69.78125 66.316406 69.53125 66.25 69.28125 66.179688 C 69.09375 66.128906 68.902344 66.074219 68.714844 66.023438 C 68.46875 65.953125 68.222656 65.878906 67.976562 65.808594 C 67.789062 65.75 67.601562 65.691406 67.410156 65.636719 C 67.167969 65.5625 66.925781 65.484375 66.683594 65.40625 C 66.492188 65.34375 66.304688 65.28125 66.113281 65.21875 C 65.875 65.136719 65.632812 65.058594 65.394531 64.972656 C 65.207031 64.90625 65.015625 64.839844 64.824219 64.773438 C 64.585938 64.6875 64.351562 64.601562 64.113281 64.511719 C 63.921875 64.441406 63.734375 64.371094 63.546875 64.296875 C 63.308594 64.207031 63.074219 64.113281 62.835938 64.019531 C 62.648438 63.945312 62.460938 63.871094 62.273438 63.796875 C 62.039062 63.699219 61.800781 63.59375 61.5625 63.496094 C 61.378906 63.417969 61.195312 63.34375 61.015625 63.261719 C 60.980469 63.25 60.949219 63.234375 60.917969 63.21875 C 61.105469 63.136719 61.296875 63.058594 61.488281 62.984375 C 61.582031 62.941406 61.679688 62.902344 61.777344 62.863281 C 62.089844 62.738281 62.402344 62.617188 62.714844 62.503906 C 62.746094 62.488281 62.78125 62.480469 62.8125 62.46875 C 63.09375 62.363281 63.375 62.261719 63.660156 62.167969 C 63.769531 62.128906 63.875 62.09375 63.984375 62.058594 C 64.195312 61.988281 64.402344 61.917969 64.613281 61.855469 C 64.738281 61.8125 64.867188 61.777344 64.996094 61.738281 C 65.1875 61.679688 65.378906 61.621094 65.570312 61.566406 C 65.707031 61.527344 65.84375 61.488281 65.980469 61.453125 C 66.164062 61.402344 66.351562 61.351562 66.539062 61.304688 C 66.675781 61.265625 66.816406 61.230469 66.957031 61.195312 C 67.140625 61.152344 67.324219 61.105469 67.507812 61.0625 C 67.652344 61.027344 67.796875 60.996094 67.941406 60.964844 C 68.121094 60.925781 68.304688 60.886719 68.488281 60.847656 C 68.632812 60.816406 68.78125 60.789062 68.925781 60.761719 C 69.109375 60.726562 69.289062 60.691406 69.472656 60.65625 C 69.621094 60.632812 69.765625 60.605469 69.914062 60.578125 C 70.097656 60.546875 70.285156 60.519531 70.46875 60.492188 C 70.613281 60.46875 70.761719 60.445312 70.90625 60.425781 C 71.09375 60.398438 71.28125 60.371094 71.472656 60.347656 C 71.613281 60.328125 71.757812 60.308594 71.902344 60.292969 C 72.097656 60.269531 72.292969 60.25 72.484375 60.230469 C 72.625 60.214844 72.765625 60.199219 72.90625 60.1875 C 73.109375 60.167969 73.3125 60.152344 73.519531 60.136719 C 73.648438 60.125 73.78125 60.113281 73.910156 60.105469 C 74.136719 60.089844 74.363281 60.078125 74.589844 60.066406 C 74.703125 60.058594 74.8125 60.054688 74.921875 60.046875 C 75.261719 60.035156 75.597656 60.019531 75.9375 60.015625 C 79.566406 59.949219 83.113281 60.203125 86.480469 60.777344 C 87.113281 60.886719 87.746094 61.003906 88.375 61.136719 C 88.570312 61.175781 88.761719 61.222656 88.953125 61.265625 C 89.390625 61.363281 89.828125 61.457031 90.261719 61.5625 C 90.492188 61.621094 90.722656 61.6875 90.957031 61.75 C 91.34375 61.851562 91.734375 61.949219 92.121094 62.058594 C 92.378906 62.132812 92.628906 62.21875 92.886719 62.296875 Z M 70.027344 37.054688 C 69.929688 36.871094 69.835938 36.683594 69.738281 36.5 C 69.753906 36.503906 69.769531 36.503906 69.785156 36.511719 C 69.925781 36.539062 70.066406 36.574219 70.207031 36.609375 C 70.449219 36.664062 70.691406 36.71875 70.929688 36.777344 C 71.085938 36.816406 71.238281 36.859375 71.394531 36.898438 C 71.617188 36.957031 71.84375 37.015625 72.066406 37.078125 C 72.226562 37.125 72.386719 37.171875 72.546875 37.21875 C 72.761719 37.28125 72.972656 37.34375 73.1875 37.410156 C 73.351562 37.460938 73.511719 37.515625 73.675781 37.570312 C 73.882812 37.636719 74.089844 37.703125 74.296875 37.773438 C 74.460938 37.832031 74.625 37.890625 74.785156 37.949219 C 74.988281 38.019531 75.191406 38.09375 75.390625 38.167969 C 75.554688 38.230469 75.71875 38.292969 75.882812 38.359375 C 76.082031 38.4375 76.277344 38.515625 76.472656 38.597656 C 76.636719 38.664062 76.800781 38.730469 76.964844 38.800781 C 77.15625 38.882812 77.351562 38.96875 77.542969 39.054688 C 77.707031 39.125 77.867188 39.199219 78.027344 39.273438 C 78.21875 39.363281 78.410156 39.453125 78.601562 39.546875 C 78.761719 39.621094 78.917969 39.699219 79.078125 39.777344 C 79.269531 39.871094 79.457031 39.96875 79.644531 40.066406 C 79.800781 40.148438 79.957031 40.226562 80.113281 40.308594 C 80.304688 40.410156 80.492188 40.515625 80.679688 40.621094 C 80.832031 40.703125 80.980469 40.789062 81.132812 40.875 C 81.324219 40.984375 81.511719 41.097656 81.699219 41.207031 C 81.847656 41.296875 81.992188 41.378906 82.140625 41.46875 C 82.332031 41.585938 82.523438 41.710938 82.714844 41.832031 C 82.851562 41.917969 82.992188 42.007812 83.128906 42.09375 C 83.328125 42.226562 83.527344 42.359375 83.726562 42.496094 C 83.851562 42.578125 83.980469 42.664062 84.105469 42.75 C 84.324219 42.90625 84.542969 43.0625 84.765625 43.21875 C 84.863281 43.292969 84.964844 43.363281 85.066406 43.4375 C 85.382812 43.671875 85.699219 43.910156 86.011719 44.15625 C 88.148438 45.832031 90.136719 47.617188 91.945312 49.492188 C 92.550781 50.117188 93.132812 50.75 93.695312 51.390625 C 94.113281 51.871094 94.519531 52.355469 94.921875 52.847656 C 94.960938 52.898438 95.003906 52.945312 95.042969 52.996094 C 95.421875 53.464844 95.789062 53.941406 96.148438 54.417969 C 96.203125 54.492188 96.257812 54.566406 96.316406 54.640625 C 96.664062 55.113281 97.003906 55.589844 97.335938 56.070312 C 97.394531 56.152344 97.449219 56.234375 97.507812 56.316406 C 97.835938 56.800781 98.15625 57.292969 98.46875 57.785156 C 98.515625 57.863281 98.5625 57.9375 98.613281 58.015625 C 98.925781 58.523438 99.234375 59.035156 99.535156 59.554688 C 99.5625 59.605469 99.59375 59.660156 99.621094 59.710938 C 99.933594 60.257812 100.234375 60.804688 100.523438 61.363281 L 100.527344 61.367188 C 100.816406 61.925781 101.09375 62.488281 101.359375 63.054688 C 101.386719 63.113281 101.417969 63.171875 101.445312 63.226562 C 101.699219 63.769531 101.9375 64.316406 102.171875 64.863281 C 102.191406 64.914062 102.214844 64.960938 102.234375 65.007812 C 101.992188 64.882812 101.753906 64.757812 101.511719 64.636719 C 101.441406 64.601562 101.375 64.5625 101.308594 64.53125 C 100.957031 64.351562 100.605469 64.183594 100.253906 64.011719 C 100.148438 63.964844 100.046875 63.917969 99.941406 63.867188 C 99.6875 63.75 99.4375 63.632812 99.183594 63.519531 C 99.050781 63.460938 98.917969 63.402344 98.789062 63.34375 C 98.558594 63.246094 98.324219 63.144531 98.09375 63.046875 C 97.957031 62.988281 97.816406 62.929688 97.679688 62.875 C 97.445312 62.777344 97.214844 62.683594 96.980469 62.59375 C 96.847656 62.539062 96.710938 62.488281 96.578125 62.4375 C 96.324219 62.339844 96.070312 62.246094 95.816406 62.152344 C 95.699219 62.109375 95.589844 62.066406 95.472656 62.027344 C 95.109375 61.894531 94.742188 61.769531 94.375 61.648438 C 93.707031 61.28125 93.046875 60.90625 92.394531 60.515625 C 92.25 60.429688 92.105469 60.335938 91.960938 60.246094 C 91.457031 59.941406 90.953125 59.632812 90.460938 59.3125 C 90.230469 59.164062 90.007812 59.007812 89.78125 58.855469 C 89.378906 58.585938 88.972656 58.320312 88.578125 58.039062 C 88.328125 57.863281 88.085938 57.679688 87.835938 57.5 C 87.472656 57.234375 87.105469 56.976562 86.746094 56.703125 C 86.492188 56.507812 86.242188 56.304688 85.988281 56.105469 C 85.648438 55.839844 85.308594 55.574219 84.972656 55.296875 C 84.71875 55.089844 84.46875 54.871094 84.214844 54.660156 C 83.894531 54.382812 83.570312 54.113281 83.253906 53.832031 C 83.003906 53.609375 82.757812 53.378906 82.507812 53.152344 C 82.203125 52.871094 81.894531 52.589844 81.59375 52.304688 C 81.347656 52.070312 81.109375 51.828125 80.863281 51.585938 C 80.570312 51.296875 80.28125 51.011719 79.992188 50.71875 C 79.753906 50.46875 79.519531 50.214844 79.285156 49.964844 C 79.003906 49.667969 78.726562 49.371094 78.453125 49.070312 C 78.21875 48.8125 77.992188 48.546875 77.765625 48.285156 C 77.5 47.980469 77.234375 47.675781 76.976562 47.367188 C 76.75 47.09375 76.53125 46.820312 76.308594 46.546875 C 76.058594 46.234375 75.804688 45.921875 75.558594 45.605469 C 75.34375 45.324219 75.132812 45.039062 74.917969 44.753906 C 74.679688 44.433594 74.441406 44.113281 74.210938 43.789062 C 74 43.496094 73.796875 43.203125 73.59375 42.90625 C 73.371094 42.578125 73.144531 42.253906 72.925781 41.917969 C 72.726562 41.617188 72.53125 41.3125 72.335938 41.007812 C 72.125 40.675781 71.914062 40.339844 71.707031 40 C 71.519531 39.6875 71.332031 39.371094 71.148438 39.058594 C 70.949219 38.714844 70.753906 38.371094 70.558594 38.027344 C 70.378906 37.707031 70.203125 37.382812 70.027344 37.054688 Z M 58.375 63.214844 C 53.34375 65.679688 48.890625 69.105469 45.132812 73.40625 C 40.300781 78.933594 36.910156 85.679688 35.332031 92.917969 C 35.273438 93.199219 35.441406 93.472656 35.71875 93.546875 C 40.875 94.894531 46.113281 95.566406 51.332031 95.566406 C 59.121094 95.566406 66.875 94.070312 74.285156 91.105469 C 86.597656 86.175781 96.785156 77.660156 103.742188 66.476562 L 103.757812 66.441406 C 103.769531 66.421875 103.777344 66.40625 103.785156 66.390625 L 103.792969 66.378906 C 105.84375 60.730469 106.878906 54.800781 106.863281 48.742188 C 106.863281 45.285156 106.511719 41.6875 105.8125 38.050781 C 103.601562 26.542969 96.5 16.398438 86.328125 10.222656 C 79.179688 5.878906 70.929688 3.675781 62.460938 3.855469 C 62.1875 3.859375 61.960938 4.074219 61.941406 4.351562 C 61.210938 14.910156 63.246094 25.5 67.816406 35.046875 C 63.140625 34.277344 58.382812 34.292969 53.65625 35.105469 C 47.046875 36.230469 40.671875 38.925781 35.21875 42.890625 C 34.980469 43.0625 34.925781 43.394531 35.097656 43.628906 C 41.066406 51.984375 49.101562 58.730469 58.375 63.214844 " fill-opacity="1" fill-rule="nonzero"/></g></svg>