<svg width="1728" height="1016" viewBox="0 0 1728 1016" fill="none" xmlns="http://www.w3.org/2000/svg">
<path d="M0.967098 0.239196L1728.41 0.239196L1728.41 963.392L0.967098 963.392L0.967098 0.239196Z" fill="#A98BE1"/>
<path d="M1728.32 972.07C1728.32 972.07 1683.8 981.607 1642.97 982.53C1601.54 983.457 1566.2 983.054 1515.65 980.178C1446.82 976.353 1314.07 959.864 1243.35 969.795C1172.63 979.727 1169.58 980.177 1133.6 986.435C1093.36 993.581 1011.65 1007.88 910.515 1007.93C802.673 1008.02 607.25 974.35 526.816 976.617C518.285 976.89 486.595 978.609 462.822 981.349C439.657 984.083 405.511 989.9 359.197 992.148C339.696 993.14 308.615 994.856 272.669 994.671C263.531 994.519 234.288 994.074 199.57 991.734C164.852 989.394 132.578 985.534 103.338 984.445C40.592 982.511 0.972714 986.218 0.972714 986.218L1.07774 963.025L1728.41 951.239L1728.32 972.07ZM1589.99 976.449C1585.74 974.331 1577.81 975.674 1563.8 975.769C1549.78 975.865 1526.64 973.446 1528.47 973.648C1530.3 973.85 1547.34 976.74 1565.01 977.479C1583.28 978.428 1593.64 978.572 1589.99 976.449ZM1477.91 971.416C1477.91 971.416 1463.29 971.086 1443.8 969.716C1424.31 968.131 1381.07 964.131 1351.83 962.828C1301.88 960.806 1255.56 963.485 1259.83 963.67C1264.7 963.852 1318.32 961.983 1367.05 965.301C1387.15 966.667 1423.69 969.639 1442.58 970.584C1462.68 971.735 1477.91 971.416 1477.91 971.416ZM1129.4 973.579C1139.76 972.005 1048.32 984.225 1016.62 987.448C1003.82 988.824 978.829 991.142 955.672 992.159C931.906 993.18 901.441 993.388 902.05 993.598C902.048 994.028 937.381 995.075 970.29 993.133C1003.2 991.19 1001.98 990.554 1016.61 989.381C1039.77 987.505 1119.03 975.153 1129.4 973.579ZM1214.1 969.565C1215.32 969.557 1209.23 968.74 1184.85 972.127C1160.46 975.515 1143.99 979.922 1142.77 980.36C1141.55 980.583 1164.11 976.349 1183.01 973.643C1201.3 970.941 1213.5 969.57 1214.1 969.565ZM1725.31 964.145C1724.7 964.364 1713.72 966.586 1696.04 969.713C1678.35 972.84 1653.97 976.013 1655.19 975.79C1656.41 975.782 1676.52 974.356 1700.3 970.114C1724.08 965.871 1725.92 963.926 1725.31 964.145ZM191.672 986.634C192.284 986.201 180.098 986.284 164.266 984.244C148.434 982.205 131.38 981.033 116.761 980.274C92.3972 978.722 45.4732 980.975 47.9094 981.173C49.7363 981.375 97.874 980.188 124.064 982.157C137.463 983.139 138.682 983.131 158.778 985.356C178.873 987.581 191.06 987.283 191.672 986.634ZM445.769 979.747C448.207 979.516 467.11 976.165 496.975 973.814C526.841 971.248 551.206 972.37 551.209 971.726C551.212 971.082 545.125 969.835 513.436 971.34C481.747 972.844 443.331 979.978 445.769 979.747ZM437.263 974.436C438.481 974.643 457.992 971.503 472.01 970.549C486.026 969.809 483.591 969.396 483.592 969.181C483.593 968.966 476.892 968.797 467.139 969.723C456.776 970.867 436.046 974.23 437.263 974.436ZM571.329 968.583C571.937 969.008 592.647 970.155 605.432 972.215C618.217 974.275 616.393 973.429 617.004 973.21C617.614 972.991 612.137 971.525 602.393 970.518C592.651 969.296 570.722 968.157 571.329 968.583ZM399.445 984.143C398.833 984.791 401.268 985.204 411.023 983.635C420.779 982.065 426.877 980.735 424.439 980.966C422.001 981.198 418.952 981.863 409.199 982.788C398.837 983.718 400.057 983.495 399.445 984.143ZM211.162 988.219C209.943 988.228 223.949 989.85 231.26 990.015C238.57 990.18 243.444 990.147 243.447 989.502C243.45 988.858 242.843 988.433 233.703 988.71C223.953 988.991 212.38 988.211 211.162 988.219ZM928.21 1002.01C927.6 1002.23 913.59 1001.47 882.517 1001.68C852.052 1001.88 799.677 997.088 777.753 994.876C755.829 992.663 838.644 1002.84 878.246 1002.99C917.848 1003.15 928.821 1001.79 928.21 1002.01Z" fill="#A98BE1"/>
<path d="M1643.55 990.472C1642.94 990.261 1615.52 991.307 1599.68 990.771C1555.21 989.571 1496.13 984.606 1498.56 985.233C1501 985.861 1582.01 991.321 1602.11 991.613C1631.96 992.269 1644.16 990.468 1643.55 990.472Z" fill="#A98BE1"/>
<path d="M1386.51 974.617C1385.29 974.41 1359.1 972.656 1328.63 972.435C1298.17 972.213 1251.25 974.251 1253.69 974.02C1255.52 973.792 1289.65 969.909 1334.73 970.89C1379.82 971.871 1387.72 974.823 1386.51 974.617Z" fill="#A98BE1"/>
<path d="M1246.94 983.3C1246.33 983.089 1259.14 981.069 1266.45 980.804C1273.76 980.54 1278.64 980.721 1278.63 981.366C1278.63 982.01 1278.02 982.443 1268.88 982.291C1258.52 982.147 1247.55 983.51 1246.94 983.3Z" fill="#A98BE1"/>
<path d="M1225.65 977.432C1225.65 977.217 1198.83 980.192 1187.24 982.419C1175.65 984.43 1149.43 989.334 1150.04 989.329C1150.65 989.54 1175.65 985.719 1188.45 983.484C1201.26 981.249 1225.64 977.647 1225.65 977.432Z" fill="#A98BE1"/>
<path d="M942.17 1013.94C941.561 1013.73 914.139 1014.78 898.301 1014.24C853.83 1013.04 794.753 1008.07 797.187 1008.7C799.621 1009.33 880.629 1014.79 900.734 1015.08C930.585 1015.74 942.778 1014.15 942.17 1013.94Z" fill="#A98BE1"/>
<path d="M256.182 1002.73C256.182 1002.73 263.496 1002.04 273.852 1002.39C284.208 1002.75 309.182 1004.09 323.807 1003.56C349.401 1002.52 368.921 997.451 366.483 997.682C364.046 997.699 340.262 1002.59 314.066 1002.12C303.099 1001.98 282.997 1001.26 273.247 1001.54C263.497 1001.82 256.182 1002.73 256.182 1002.73Z" fill="#A98BE1"/>
<path d="M460.968 986.944C462.186 987.151 473.162 985.143 487.178 984.403C501.194 983.878 499.976 983.672 499.978 983.242C499.979 983.028 489.015 982.458 479.263 983.384C469.509 984.524 459.751 986.738 460.968 986.944Z" fill="#A98BE1"/>
<path d="M95.9985 990.723C95.9994 990.508 122.198 990.544 136.816 991.518C151.434 992.492 167.262 995.391 167.261 995.605C167.26 995.82 150.818 994 136.201 992.811C122.193 991.618 96.6068 990.934 95.9985 990.723Z" fill="#A98BE1"/>
</svg>
