<svg width="738" height="638" viewBox="0 0 738 638" fill="none" xmlns="http://www.w3.org/2000/svg">
<mask id="mask0_394_338" style="mask-type:luminance" maskUnits="userSpaceOnUse" x="116" y="0" width="622" height="638">
<path d="M116.04 0.282532H737.445V637.856H116.04V0.282532Z" fill="white"/>
</mask>
<g mask="url(#mask0_394_338)">
<path d="M719.249 346.483C731.552 365.128 737.445 387.062 737.39 409.508C737.277 432.349 730.985 455.757 718.854 476.725C707.345 496.622 691.418 512.377 672.995 523.428C653.892 534.932 632.126 541.283 609.906 542.077C601.174 542.359 593.126 544.795 586.321 549.104C579.467 553.409 573.737 559.588 569.713 567.295C550.27 604.195 518.642 625.902 484.346 633.664C468.813 637.234 452.718 637.915 436.958 635.878C421.199 633.777 405.838 628.96 391.725 621.538C360.546 605.157 335.55 576.024 326.25 535.499C323.474 523.147 315.993 512.999 306.072 506.484C296.21 500.02 283.907 497.243 271.382 499.566C256.303 502.46 240.656 502.687 225.182 500.02C210.33 497.529 195.596 492.312 181.764 484.323C150.471 466.241 129.44 437.221 120.771 404.858C112.097 372.554 115.781 336.906 133.863 305.618C138.06 298.306 142.932 291.565 148.262 285.386C153.701 279.039 159.712 273.314 166.118 268.27C174.165 261.919 179.663 253.703 182.385 244.635C185.048 235.507 184.935 225.591 181.591 215.901C156.369 141.766 180.063 82.4243 224.615 45.0166C247.574 25.7457 276.086 12.3132 306.299 5.73988C336.457 -0.779022 368.312 -0.493226 398.017 7.6089C457.989 23.9356 508.947 71.995 519.036 159.617C532.927 279.829 558.663 278.472 595.054 276.544C628.556 274.789 670.387 272.575 719.249 346.483ZM729.397 409.508C729.451 388.595 723.953 368.19 712.562 350.906C666.249 280.795 626.968 282.891 595.449 284.533C554.639 286.688 525.841 288.221 511.102 160.524C501.408 76.6993 452.945 30.8492 395.917 15.3209C367.519 7.55447 336.965 7.32764 308 13.6197C279.035 19.9118 251.712 32.7182 229.773 51.1953C187.602 86.6205 165.21 142.841 189.19 213.347C193.042 224.629 193.214 236.247 190.038 246.844C186.922 257.5 180.457 267.19 171.108 274.562C165.042 279.321 159.426 284.705 154.268 290.598C149.283 296.382 144.746 302.729 140.777 309.642V309.588C123.829 339.002 120.372 372.441 128.533 402.821C136.64 433.198 156.369 460.462 185.788 477.405H185.729C198.767 484.891 212.544 489.763 226.543 492.144C241.055 494.58 255.735 494.408 269.907 491.745C284.533 488.969 298.932 492.199 310.495 499.793C322.059 507.332 330.787 519.236 334.076 533.744C342.749 571.773 366.217 599.092 395.463 614.452C408.728 621.479 423.185 625.957 437.979 627.944C452.772 629.867 467.965 629.245 482.591 625.902C514.731 618.535 544.377 598.184 562.627 563.557C567.336 554.543 574.023 547.403 582.016 542.359C590.064 537.314 599.473 534.424 609.621 534.084C630.479 533.349 650.943 527.338 668.858 516.573C686.146 506.198 701.167 491.405 711.936 472.701C723.332 452.922 729.284 430.934 729.397 409.508Z" fill="#BFA0F9"/>
</g>
<path fill-rule="evenodd" clip-rule="evenodd" d="M595.903 348.692C619.883 384.966 618.69 434.391 595.395 474.688C572.663 514.078 532.075 536.633 489.79 538.053C470.855 538.734 454.987 548.705 446.141 565.426C391.385 669.484 236.238 648.857 210.163 534.651C204.038 507.727 177.736 490.557 150.699 495.656C121.901 501.099 91.1211 496.676 63.7436 480.862C3.091 445.836 -17.7132 368.249 17.3174 307.601C25.6509 293.207 36.307 281.076 48.6099 271.386C66.0118 257.727 72.5307 235.566 65.3903 214.594C-10.4549 -8.03291 365.877 -93.1053 395.069 160.07C421.426 388.482 491.832 191.132 595.903 348.692Z" fill="#A98BE1"/>
</svg>
